<svg id="Layer_1" data-name="Layer 1" xmlns="http://www.w3.org/2000/svg" viewBox="0 0 36.05 36.39"><defs><style>.cls-1{fill:#010101;}</style></defs><path class="cls-1" d="M23.8,30.76v.88a14.74,14.74,0,0,0,6.84-6h-.95A13.93,13.93,0,0,1,23.8,30.76Z"/><path class="cls-1" d="M5.41,25.64a14.74,14.74,0,0,0,6.84,6v-.88a13.93,13.93,0,0,1-5.89-5.12Z"/><path class="cls-1" d="M30.64,10.65a14.79,14.79,0,0,0-6.84-6v.89a13.91,13.91,0,0,1,5.89,5.11Z"/><path class="cls-1" d="M12.25,5.54V4.65a14.79,14.79,0,0,0-6.84,6h1A13.91,13.91,0,0,1,12.25,5.54Z"/><path class="cls-1" d="M18.26,6.53a2.29,2.29,0,0,0,2.28-2.28V3.32A2.29,2.29,0,0,0,18.26,1H17.8a2.29,2.29,0,0,0-2.29,2.28v.93A2.29,2.29,0,0,0,17.8,6.53Z"/><path class="cls-1" d="M14.15,10v1.86H21.9V10a2.84,2.84,0,0,0-2.84-2.84H17A2.84,2.84,0,0,0,14.15,10Z"/><path class="cls-1" d="M18.26,24.43H17.8a2.3,2.3,0,0,0-2,1.21,2.26,2.26,0,0,0-.27,1.07v.93a2.3,2.3,0,0,0,2.29,2.29h.46a2.29,2.29,0,0,0,2.28-2.29v-.93a2.29,2.29,0,0,0-2.28-2.28Z"/><path class="cls-1" d="M14.15,35.26H21.9V33.39a2.84,2.84,0,0,0-2.84-2.84H17a2.84,2.84,0,0,0-2.84,2.84Z"/><path class="cls-1" d="M3.65,18.23h.46A2.28,2.28,0,0,0,6.39,16V15a2.28,2.28,0,0,0-2.28-2.28H3.65A2.28,2.28,0,0,0,1.37,15V16A2.28,2.28,0,0,0,3.65,18.23Z"/><path class="cls-1" d="M7.76,21.7a2.85,2.85,0,0,0-2.85-2.84H2.84A2.84,2.84,0,0,0,0,21.7v1.86H7.76Z"/><path class="cls-1" d="M31.94,18.23h.46A2.28,2.28,0,0,0,34.68,16V15a2.28,2.28,0,0,0-2.28-2.28h-.46A2.28,2.28,0,0,0,29.66,15V16A2.28,2.28,0,0,0,31.94,18.23Z"/><path class="cls-1" d="M33.21,18.86H31.14a2.85,2.85,0,0,0-2.85,2.84v1.86h7.76V21.7A2.84,2.84,0,0,0,33.21,18.86Z"/></svg>