<svg id="Layer_1" data-name="Layer 1" xmlns="http://www.w3.org/2000/svg" viewBox="0 0 36.05 36.39"><defs><style>.cls-1{fill:#010101;}</style></defs><path class="cls-1" d="M27.13,16.35a8.38,8.38,0,0,1-.86,0,.77.77,0,0,1-.69-.67,7,7,0,0,1,1.58-5.39,9.09,9.09,0,0,1,6.53-2.8.73.73,0,0,1,.78.67,7.82,7.82,0,0,1-1.87,6,7.14,7.14,0,0,1-5.47,2.27ZM27,14.85a5.77,5.77,0,0,0,4.46-1.78A6.24,6.24,0,0,0,33,9a7.27,7.27,0,0,0-4.73,2.22A5.39,5.39,0,0,0,27,14.85Z"/><path class="cls-1" d="M18.43,14.37h0A11.26,11.26,0,0,1,9.8,10.8,12.34,12.34,0,0,1,6.86,1.42.76.76,0,0,1,7.65.74C12.07,1,15.75,2.54,18,5.17a11,11,0,0,1,2.46,8.47.75.75,0,0,1-.68.67C19.33,14.35,18.87,14.37,18.43,14.37ZM8.3,2.29a10.75,10.75,0,0,0,2.61,7.5,9.81,9.81,0,0,0,7.52,3.08H19a9.39,9.39,0,0,0-2.15-6.71C15,4,12,2.62,8.3,2.29Z"/><path class="cls-1" d="M8.27,33.21H.77A.74.74,0,0,1,0,32.46V19a.75.75,0,0,1,.74-.75h7.5A.76.76,0,0,1,9,19V32.46A.75.75,0,0,1,8.27,33.21Zm-6.75-1.5h6v-12h-6Z"/><path class="cls-1" d="M20.78,35.37c-2.57,0-5.76-1.51-8.32-2.72A15,15,0,0,0,8.74,31.2a.75.75,0,1,1,0-1.5c1,0,2.47.7,4.36,1.59,2.42,1.15,5.44,2.58,7.68,2.58,4.41,0,13.77-5.59,13.77-7.12,0-1.3-.54-1.88-1.78-1.88a7.09,7.09,0,0,0-2.17,1.46c-1.64,1.34-3.5,2.88-5.3,2.35a.74.74,0,0,1-.53-.85,1.16,1.16,0,0,0-.2-1.08c-.79-.92-3.35-.83-4.73-.78l-.79,0a4.4,4.4,0,0,1-2.33-1A12.91,12.91,0,0,0,9,22.72a.75.75,0,0,1,0-1.5H9a14.35,14.35,0,0,1,8.5,2.54,3.72,3.72,0,0,0,1.52.74l.74,0c1.85-.06,4.65-.16,5.91,1.29a2.39,2.39,0,0,1,.6,1.5,9.28,9.28,0,0,0,3.35-2.1c1.23-1,2.2-1.79,3.12-1.79a3,3,0,0,1,3.28,3.38C36.05,29.93,24.79,35.37,20.78,35.37Z"/><path class="cls-1" d="M25.51,28.71H15a.75.75,0,1,1,0-1.49H25.51a.75.75,0,1,1,0,1.49Z"/><path class="cls-1" d="M22,21.47a.76.76,0,0,1-.75-.75A17.16,17.16,0,0,0,19.15,14a.75.75,0,0,1,.11-1,.76.76,0,0,1,1.06.11,16.16,16.16,0,0,1,2,5.07,17.32,17.32,0,0,1,3.56-3.22.75.75,0,0,1,.84,1.24c-1.54,1-4,3.2-4,4.54A.75.75,0,0,1,22,21.47Z"/></svg>