<svg id="Layer_1" data-name="Layer 1" xmlns="http://www.w3.org/2000/svg" viewBox="0 0 30 30"><path d="M24.91,13.66l-9.42-8a.62.62,0,0,0-.77,0l-9.41,8a.59.59,0,0,0,.38,1h.8v9.17a.6.6,0,0,0,.59.6h5.78a.6.6,0,0,0,.59-.6V18.69a.41.41,0,0,1,.41-.41h2.43a.41.41,0,0,1,.42.41v5.18a.59.59,0,0,0,.59.6h5.8a.59.59,0,0,0,.59-.6V14.73h.8a.59.59,0,0,0,.56-.39A.65.65,0,0,0,24.91,13.66Zm-2.37.47v9.15H17.92V18.69a1.6,1.6,0,0,0-1.6-1.6h-2.4a1.6,1.6,0,0,0-1.6,1.6v4.59H7.68V14.13a.61.61,0,0,0-.42-.56l7.85-6.69,7.81,6.66A.63.63,0,0,0,22.54,14.13Z"/></svg>