<svg id="Layer_1" data-name="Layer 1" xmlns="http://www.w3.org/2000/svg" viewBox="0 0 45.94 45.94"><defs><style>.cls-1{fill:#253d89;stroke:#fff;stroke-miterlimit:10;stroke-width:1.5px;fill-rule:evenodd;}.cls-2{fill:#fff;}</style></defs><polygon class="cls-1" points="9.65 46.02 36.25 46.02 36.46 46.02 36.68 46.02 36.9 46 37.12 45.99 37.34 45.96 37.56 45.94 37.78 45.9 38.01 45.86 38.23 45.82 38.46 45.77 38.68 45.71 38.91 45.65 39.13 45.58 39.36 45.51 39.58 45.43 39.81 45.35 40.03 45.25 40.25 45.16 40.47 45.05 40.69 44.94 40.91 44.83 41.12 44.71 41.33 44.58 41.54 44.45 41.75 44.31 41.95 44.17 42.15 44.02 42.34 43.86 42.54 43.7 42.72 43.54 42.91 43.37 43.09 43.19 43.26 43.01 43.43 42.83 43.6 42.64 43.76 42.45 43.91 42.25 44.06 42.05 44.2 41.85 44.34 41.65 44.48 41.44 44.6 41.23 44.72 41.01 44.84 40.8 44.95 40.58 45.05 40.36 45.15 40.13 45.24 39.91 45.33 39.69 45.41 39.46 45.48 39.24 45.55 39.01 45.61 38.79 45.66 38.56 45.71 38.34 45.76 38.11 45.8 37.89 45.83 37.66 45.86 37.44 45.88 37.22 45.9 37 45.91 36.78 45.92 36.57 45.92 36.35 45.92 9.75 45.92 9.54 45.91 9.32 45.9 9.11 45.88 8.88 45.86 8.66 45.83 8.44 45.8 8.22 45.76 7.99 45.71 7.77 45.66 7.54 45.61 7.32 45.55 7.09 45.48 6.87 45.41 6.64 45.33 6.42 45.24 6.19 45.15 5.97 45.05 5.75 44.95 5.53 44.84 5.31 44.72 5.1 44.6 4.88 44.48 4.67 44.34 4.46 44.2 4.26 44.06 4.05 43.91 3.85 43.76 3.66 43.6 3.47 43.43 3.28 43.26 3.09 43.09 2.92 42.91 2.74 42.72 2.57 42.54 2.4 42.34 2.25 42.15 2.09 41.95 1.94 41.75 1.8 41.54 1.66 41.33 1.53 41.12 1.4 40.91 1.28 40.69 1.16 40.47 1.05 40.25 0.95 40.03 0.85 39.81 0.76 39.58 0.68 39.36 0.6 39.13 0.52 38.91 0.46 38.68 0.39 38.46 0.34 38.23 0.29 38.01 0.24 37.78 0.2 37.56 0.17 37.34 0.14 37.12 0.12 36.9 0.1 36.68 0.09 36.46 0.08 36.25 0.08 9.65 0.08 9.44 0.08 9.22 0.09 9 0.1 8.78 0.12 8.56 0.14 8.34 0.17 8.11 0.2 7.89 0.24 7.67 0.29 7.44 0.34 7.21 0.39 6.99 0.46 6.76 0.52 6.54 0.6 6.31 0.68 6.09 0.76 5.87 0.85 5.64 0.95 5.42 1.05 5.21 1.16 4.99 1.28 4.78 1.4 4.57 1.53 4.36 1.66 4.15 1.8 3.95 1.94 3.75 2.09 3.55 2.25 3.36 2.4 3.17 2.57 2.99 2.74 2.81 2.92 2.64 3.09 2.47 3.28 2.3 3.47 2.14 3.66 1.99 3.85 1.84 4.05 1.69 4.26 1.55 4.46 1.42 4.67 1.29 4.88 1.17 5.1 1.06 5.31 0.95 5.53 0.84 5.75 0.75 5.97 0.66 6.19 0.57 6.42 0.49 6.64 0.42 6.87 0.35 7.09 0.29 7.32 0.23 7.54 0.18 7.77 0.14 7.99 0.1 8.22 0.07 8.44 0.04 8.66 0.02 8.88 0 9.11 -0.01 9.32 -0.02 9.54 -0.02 9.75 -0.02 36.35 -0.02 36.57 -0.01 36.78 0 37 0.02 37.22 0.04 37.44 0.07 37.66 0.1 37.89 0.14 38.11 0.18 38.34 0.23 38.56 0.29 38.79 0.35 39.01 0.42 39.24 0.49 39.46 0.57 39.69 0.66 39.91 0.75 40.13 0.84 40.36 0.95 40.58 1.06 40.8 1.17 41.01 1.29 41.23 1.42 41.44 1.55 41.65 1.69 41.85 1.84 42.05 1.99 42.25 2.14 42.45 2.3 42.64 2.47 42.83 2.64 43.01 2.81 43.19 2.99 43.37 3.17 43.54 3.36 43.7 3.55 43.86 3.75 44.02 3.95 44.17 4.15 44.31 4.36 44.45 4.57 44.58 4.78 44.71 4.99 44.83 5.21 44.94 5.42 45.05 5.64 45.16 5.87 45.25 6.09 45.35 6.31 45.43 6.54 45.51 6.76 45.58 6.99 45.65 7.21 45.71 7.44 45.77 7.67 45.82 7.89 45.86 8.11 45.9 8.34 45.94 8.56 45.96 8.78 45.99 9 46 9.22 46.02 9.44 46.02 9.65 46.02"/><rect class="cls-2" x="11.09" y="10.12" width="7.76" height="7.76" rx="2.16"/><rect class="cls-2" x="11.09" y="19.17" width="7.76" height="7.76" rx="2.16"/><rect class="cls-2" x="11.09" y="28.23" width="7.76" height="7.76" rx="2.16"/><path class="cls-2" d="M33.07,17H21a.43.43,0,0,1,0-.86H33.07a2.16,2.16,0,1,0,0-4.31H21A.44.44,0,0,1,21,11H33.07a3,3,0,1,1,0,6Z"/><path class="cls-2" d="M33.07,26.07H21a.43.43,0,0,1,0-.86H33.07a2.16,2.16,0,1,0,0-4.31H21A.43.43,0,0,1,21,20H33.07a3,3,0,1,1,0,6Z"/><path class="cls-2" d="M33.07,35.12H21a.43.43,0,0,1,0-.86H33.07a2.16,2.16,0,1,0,0-4.31H21a.43.43,0,0,1,0-.86H33.07a3,3,0,1,1,0,6Z"/></svg>