<svg id="Layer_1" data-name="Layer 1" xmlns="http://www.w3.org/2000/svg" viewBox="0 0 30 30"><path d="M7.34,6.33c0-.22.09-.59.18-1s.32-.37.55-.15l1.95,2a.79.79,0,0,0,1.3,0l.74-.74a.77.77,0,0,0,0-1.21L10.11,3.27c-.29-.28-.23-.5.16-.61A4,4,0,0,1,14.89,8.3a.21.21,0,0,0,.07.29l5.53,5,5.67,5.15a1.81,1.81,0,1,1-2.55,2.57l-5.12-5.64-4.32-4.76c-.26-.28-.52-.56-.77-.85a.17.17,0,0,0-.24,0,3.9,3.9,0,0,1-4.35-.46A4,4,0,0,1,7.34,6.33ZM8,6,8,6a3.41,3.41,0,0,0,5.16,3.35.33.33,0,0,1,.5.07q3.69,4,7.37,8.12l3,3.33a1.19,1.19,0,0,0,1.2.4,1.23,1.23,0,0,0,.55-2.1l-2.15-2L14.39,8.87c-.31-.28-.31-.32-.1-.68a3.24,3.24,0,0,0,.42-2.08,3.35,3.35,0,0,0-2.94-3,6.19,6.19,0,0,0-1,0l.19.2,1.5,1.5a1.35,1.35,0,0,1,0,2c-.29.31-.59.6-.89.89a1.29,1.29,0,0,1-1.4.33,1.89,1.89,0,0,1-.59-.39C9.1,7.09,8.56,6.54,8,6Z"/><path d="M11.52,17.19l-.18-.14L5.39,11.11A1.17,1.17,0,0,0,5.12,11a2.75,2.75,0,0,1-.59-.31c-.34-.3-.65-.64-1-1a.32.32,0,0,1,0-.53l.91-.9a.3.3,0,0,1,.5,0l1,1a1.11,1.11,0,0,1,.31.64.28.28,0,0,0,.09.18l6.07,6.08.09.07c.18-.19.35-.38.54-.56a.69.69,0,0,1,1.08,0l.24.24a.66.66,0,0,1,0,.87c-.14.16-.05.23,0,.34s.17.09.28,0a.65.65,0,0,1,.87,0l.15.14L22.48,24a.7.7,0,0,1,0,1.16l-2.05,2.06a.7.7,0,0,1-1.12,0l-6.8-6.8a.68.68,0,0,1-.08-1c.09-.12,0-.18,0-.24s-.12-.2-.28-.09a.7.7,0,0,1-1-.08l-.22-.23a.66.66,0,0,1,0-.93Zm.66,1.19a1.07,1.07,0,0,1,.67.41.66.66,0,0,1,0,.95c-.08.1-.07.16,0,.24l.6.61,6.19,6.18c.12.12.19.16.33,0q1-1,2.07-2.07c.1-.1.1-.17,0-.27l-6.82-6.81a.16.16,0,0,0-.27,0,.62.62,0,0,1-.79.06,2.89,2.89,0,0,1-.32-.29.67.67,0,0,1,0-.92c.09-.1.09-.18,0-.26l-.11-.11c-.11-.15-.2-.14-.33,0L11.5,18c-.31.31-.31.23,0,.56.09.1.15.08.25,0A2.74,2.74,0,0,1,12.18,18.38ZM5.92,10.72l6,6,.09-.09-6-6ZM4.14,9.43l.11.11c.25.25.49.51.75.75a.41.41,0,0,0,.54,0,.39.39,0,0,0,0-.55c-.28-.3-.59-.58-.88-.86Z"/><path d="M25.19,19.92a.42.42,0,0,1-.43.43.43.43,0,0,1-.43-.43.43.43,0,1,1,.86,0Z"/><path d="M20,25.26c0,.29-.22.43-.42.32a.88.88,0,0,1-.15-.12l-5.06-5.07a.86.86,0,0,1-.13-.14.26.26,0,0,1,0-.35.26.26,0,0,1,.36,0,.88.88,0,0,1,.15.12L19.82,25A.85.85,0,0,1,20,25.26Z"/><path d="M15.44,18.89a1.86,1.86,0,0,1,.24.17c1.46,1.46,2.91,2.92,4.37,4.37.24.24.49.48.72.73a.49.49,0,0,1,.12.3.27.27,0,0,1-.38.22.9.9,0,0,1-.19-.15l-5.06-5.05c0-.05-.09-.1-.13-.16S15.16,18.9,15.44,18.89Z"/></svg>