<svg id="Layer_1" data-name="Layer 1" xmlns="http://www.w3.org/2000/svg" viewBox="0 0 45.94 91.99"><defs><style>.cls-1{fill:#253d89;fill-rule:evenodd;}.cls-2{fill:none;stroke:#fff;stroke-linecap:round;stroke-linejoin:round;stroke-width:1.5px;}.cls-3{font-size:28px;fill:#fff;font-family:Arial-BoldMT, Arial;font-weight:700;}</style></defs><g id="HATCH"><polygon class="cls-1" points="36.25 0.11 9.65 0.11 9.44 0.11 9.22 0.12 9 0.13 8.78 0.15 8.56 0.17 8.34 0.2 8.11 0.23 7.89 0.27 7.67 0.31 7.44 0.36 7.21 0.42 6.99 0.48 6.76 0.55 6.54 0.62 6.31 0.7 6.09 0.79 5.87 0.88 5.64 0.97 5.42 1.08 5.21 1.19 4.99 1.3 4.78 1.42 4.57 1.55 4.36 1.68 4.15 1.82 3.95 1.97 3.75 2.12 3.55 2.27 3.36 2.43 3.17 2.6 2.99 2.77 2.81 2.94 2.64 3.12 2.47 3.3 2.3 3.49 2.14 3.68 1.99 3.88 1.84 4.08 1.69 4.28 1.55 4.49 1.42 4.7 1.29 4.91 1.17 5.12 1.06 5.34 0.95 5.55 0.84 5.78 0.75 6 0.66 6.22 0.57 6.44 0.49 6.67 0.42 6.89 0.35 7.12 0.29 7.34 0.23 7.57 0.18 7.79 0.14 8.02 0.1 8.24 0.07 8.47 0.04 8.69 0.02 8.91 0 9.13 -0.01 9.35 -0.02 9.56 -0.02 9.78 -0.02 46.05 45.92 46.05 45.92 9.78 45.92 9.56 45.91 9.35 45.9 9.13 45.88 8.91 45.86 8.69 45.83 8.47 45.8 8.24 45.76 8.02 45.71 7.79 45.66 7.57 45.61 7.34 45.55 7.12 45.48 6.89 45.41 6.67 45.33 6.44 45.24 6.22 45.15 6 45.05 5.78 44.95 5.55 44.84 5.34 44.72 5.12 44.6 4.91 44.48 4.7 44.34 4.49 44.2 4.28 44.06 4.08 43.91 3.88 43.76 3.68 43.6 3.49 43.43 3.3 43.26 3.12 43.09 2.94 42.91 2.77 42.72 2.6 42.54 2.43 42.34 2.27 42.15 2.12 41.95 1.97 41.75 1.82 41.54 1.68 41.33 1.55 41.12 1.42 40.91 1.3 40.69 1.19 40.47 1.08 40.25 0.97 40.03 0.88 39.81 0.79 39.58 0.7 39.36 0.62 39.13 0.55 38.91 0.48 38.68 0.42 38.46 0.36 38.23 0.31 38.01 0.27 37.78 0.23 37.56 0.2 37.34 0.17 37.12 0.15 36.9 0.13 36.68 0.12 36.46 0.11 36.25 0.11"/></g><g id="HATCH-2" data-name="HATCH"><polygon class="cls-1" points="36.25 91.99 9.65 91.99 9.44 91.99 9.22 91.98 9 91.97 8.78 91.95 8.56 91.93 8.34 91.9 8.11 91.87 7.89 91.83 7.67 91.79 7.44 91.74 7.21 91.68 6.99 91.62 6.76 91.55 6.54 91.48 6.31 91.4 6.09 91.31 5.87 91.22 5.64 91.13 5.42 91.02 5.21 90.91 4.99 90.8 4.78 90.68 4.57 90.55 4.36 90.42 4.15 90.28 3.95 90.13 3.75 89.98 3.55 89.83 3.36 89.67 3.17 89.5 2.99 89.33 2.81 89.16 2.64 88.98 2.47 88.8 2.3 88.61 2.14 88.42 1.99 88.22 1.84 88.02 1.69 87.82 1.55 87.61 1.42 87.4 1.29 87.19 1.17 86.98 1.06 86.76 0.95 86.55 0.84 86.33 0.75 86.1 0.66 85.88 0.57 85.66 0.49 85.43 0.42 85.21 0.35 84.98 0.29 84.76 0.23 84.53 0.18 84.31 0.14 84.08 0.1 83.86 0.07 83.63 0.04 83.41 0.02 83.19 0 82.97 -0.01 82.75 -0.02 82.53 -0.02 82.32 -0.02 46.05 45.92 46.05 45.92 82.32 45.92 82.53 45.91 82.75 45.9 82.97 45.88 83.19 45.86 83.41 45.83 83.63 45.8 83.86 45.76 84.08 45.71 84.31 45.66 84.53 45.61 84.76 45.55 84.98 45.48 85.21 45.41 85.43 45.33 85.66 45.24 85.88 45.15 86.1 45.05 86.33 44.95 86.55 44.84 86.76 44.72 86.98 44.6 87.19 44.48 87.4 44.34 87.61 44.2 87.82 44.06 88.02 43.91 88.22 43.76 88.42 43.6 88.61 43.43 88.8 43.26 88.98 43.09 89.16 42.91 89.33 42.72 89.5 42.54 89.67 42.34 89.83 42.15 89.98 41.95 90.13 41.75 90.28 41.54 90.42 41.33 90.55 41.12 90.68 40.91 90.8 40.69 90.91 40.47 91.02 40.25 91.13 40.03 91.22 39.81 91.31 39.58 91.4 39.36 91.48 39.13 91.55 38.91 91.62 38.68 91.68 38.46 91.74 38.23 91.79 38.01 91.83 37.78 91.87 37.56 91.9 37.34 91.93 37.12 91.95 36.9 91.97 36.68 91.98 36.46 91.99 36.25 91.99"/></g><g id="POLYLINE"><line class="cls-2" x1="36.25" y1="0.11" x2="9.65" y2="0.11"/></g><g id="ARC"><path class="cls-2" d="M9.65.11A9.67,9.67,0,0,0,0,9.78"/></g><g id="POLYLINE-2" data-name="POLYLINE"><line class="cls-2" x1="-0.02" y1="9.78" x2="-0.02" y2="46.05"/></g><g id="POLYLINE-3" data-name="POLYLINE"><polyline class="cls-2" points="-0.02 46.05 45.92 46.05 45.92 9.78"/></g><g id="ARC-2" data-name="ARC"><path class="cls-2" d="M45.92,9.78A9.67,9.67,0,0,0,36.25.11"/></g><g id="POLYLINE-4" data-name="POLYLINE"><line class="cls-2" x1="36.25" y1="91.99" x2="9.65" y2="91.99"/></g><g id="ARC-3" data-name="ARC"><path class="cls-2" d="M9.65,92A9.67,9.67,0,0,1,0,82.32"/></g><g id="POLYLINE-5" data-name="POLYLINE"><line class="cls-2" x1="-0.02" y1="82.32" x2="-0.02" y2="46.05"/></g><g id="POLYLINE-6" data-name="POLYLINE"><polyline class="cls-2" points="-0.02 46.05 45.92 46.05 45.92 82.32"/></g><g id="ARC-4" data-name="ARC"><path class="cls-2" d="M45.92,82.32A9.67,9.67,0,0,1,36.25,92"/></g><text class="cls-3" transform="translate(14.77 35.38)">+</text><text class="cls-3" transform="translate(18.29 77.38)">-</text></svg>