<svg id="Layer_1" data-name="Layer 1" xmlns="http://www.w3.org/2000/svg" viewBox="0 0 30 30"><defs><style>.cls-1{stroke:#231f20;stroke-miterlimit:10;stroke-width:0.5px;}</style></defs><path class="cls-1" d="M15.28,4.74a.27.27,0,0,0-.37,0c-.3.34-7.33,8.35-7.33,12.41a7.52,7.52,0,0,0,15,0C22.61,13.09,15.58,5.08,15.28,4.74ZM15.1,24.16a7,7,0,0,1-7-7c0-3.52,5.88-10.54,7-11.86,1.13,1.32,7,8.34,7,11.86A7,7,0,0,1,15.1,24.16Z"/><path class="cls-1" d="M20.17,16.83a.25.25,0,0,0-.25.25A4.84,4.84,0,0,1,15.1,21.9a.25.25,0,0,0,0,.5,5.33,5.33,0,0,0,5.32-5.32A.25.25,0,0,0,20.17,16.83Z"/></svg>