<svg id="Layer_1" data-name="Layer 1" xmlns="http://www.w3.org/2000/svg" viewBox="0 0 30 30"><path d="M12.09,18.88v-1H11.8a6.85,6.85,0,0,1-3.17-.75,6.24,6.24,0,0,1-.89-.59A.3.3,0,0,1,7.8,16a3.1,3.1,0,0,0,1.41-1.64,8.94,8.94,0,0,0,.39-1,.74.74,0,0,0,0-.33c-.08-.47-.17-.95-.24-1.42a.24.24,0,0,0-.15-.22,1,1,0,0,1-.66-1c0-.26,0-.53,0-.79A1,1,0,0,1,9,8.77a.4.4,0,0,0,.14-.24,5.76,5.76,0,0,1,3.32-5,8.11,8.11,0,0,1,.82-.31.29.29,0,0,0,.2-.2.7.7,0,0,1,.71-.54h1.72a.7.7,0,0,1,.71.55.31.31,0,0,0,.25.24,5.31,5.31,0,0,1,2.32,1.36A5.76,5.76,0,0,1,21,8.52a.3.3,0,0,0,.16.27,1,1,0,0,1,.42.77c0,.31,0,.62,0,.92a1,1,0,0,1-.64.92.23.23,0,0,0-.17.21c-.05.44-.13.87-.19,1.31a.92.92,0,0,0,0,.37,5.94,5.94,0,0,0,.93,2,2.49,2.49,0,0,0,.83.72c.31.16.34.39.07.62a5.56,5.56,0,0,1-2,1,7.31,7.31,0,0,1-2,.28h-.27v1l.76,0a6.69,6.69,0,0,1,4.65,2.53,8.34,8.34,0,0,1,1.89,5.67.34.34,0,0,1-.36.37H5.19c-.25,0-.36-.12-.36-.38a8.37,8.37,0,0,1,.76-3.88,7.39,7.39,0,0,1,3.83-3.83,6.2,6.2,0,0,1,2.29-.5H12Zm8-7.38H10a5.06,5.06,0,0,0,10.12,0ZM14.72,26.86a.25.25,0,0,0,0-.07c0-.82,0-1.64,0-2.46a1.16,1.16,0,0,0-.63-1l-.3-.17a4.43,4.43,0,0,1-1.75-2.76,7,7,0,0,1-.13-.89l-1.29.16c0,.52,0,1,0,1.44a4.9,4.9,0,0,1-1.57,3.68,2.52,2.52,0,0,0-.65,1,2.9,2.9,0,0,0-.19,1.1Zm3.5-7.35a16.2,16.2,0,0,1-.41,1.6A3.84,3.84,0,0,1,16,23.3a1.19,1.19,0,0,0-.67,1.13c0,.77,0,1.53,0,2.3a.49.49,0,0,0,0,.12h6.35a.57.57,0,0,0,0-.12,2.76,2.76,0,0,0-.88-2,4.89,4.89,0,0,1-.95-1.22,5.83,5.83,0,0,1-.57-3c0-.3,0-.59.05-.9Zm6.5,7.35c.11-3.17-1.95-6.26-4.71-7a2.64,2.64,0,0,1,0,.28,6.46,6.46,0,0,0,.18,2.36,3.6,3.6,0,0,0,1,1.68,3.28,3.28,0,0,1,1,1.58c.1.36.15.74.23,1.13Zm-9.66-16h5.38a.43.43,0,0,0,.49-.48V9.76c0-.4-.14-.54-.54-.54H17a.46.46,0,0,0-.29.13,2.14,2.14,0,0,1-3.21,0,.27.27,0,0,0-.2-.11H9.59a.4.4,0,0,0-.42.42c0,.23,0,.46,0,.69s.15.52.52.52Zm-5.1,9a7.17,7.17,0,0,0-4.49,7H7.6s0-.06,0-.09a3.46,3.46,0,0,1,1.12-2.54A3.78,3.78,0,0,0,9.89,22.1,7.43,7.43,0,0,0,10,19.89Zm7.46-3.31a6.65,6.65,0,0,1-4.67,0,.14.14,0,0,0,0,.06c0,.75,0,1.5,0,2.25a.3.3,0,0,0,.13.2,4.26,4.26,0,0,0,4.41,0,.25.25,0,0,0,.15-.25c0-.26,0-.51,0-.77Zm-4-12.71A5.12,5.12,0,0,0,9.78,8.58H13s0-.07,0-.09a2.13,2.13,0,0,1,.35-1.86.24.24,0,0,0,0-.14Zm3.23,0V6.22a.6.6,0,0,0,.14.42,1.83,1.83,0,0,1,.43,1.19,6,6,0,0,1-.07.74h3.16A5.09,5.09,0,0,0,16.66,3.9Zm.84,15.83a5.07,5.07,0,0,1-4.92,0,7.15,7.15,0,0,0,.29,1.17,3.34,3.34,0,0,0,1.29,1.73,2.64,2.64,0,0,1,.87.7,4.45,4.45,0,0,1,.6-.49,3.26,3.26,0,0,0,1.26-1.24A4.1,4.1,0,0,0,17.5,19.73ZM13.58,7.92a1.51,1.51,0,0,0,1.53,1.51,1.52,1.52,0,1,0-1.53-1.51ZM20.11,14a.23.23,0,0,1-.05.05,5.64,5.64,0,0,1-1.9,2.07s-.09.06-.09.09c0,.35,0,.7,0,1.05a6.56,6.56,0,0,0,3.62-.93A5.14,5.14,0,0,1,20.11,14Zm-8,3.26c0-.31,0-.58,0-.86a.3.3,0,0,0-.15-.29,5.14,5.14,0,0,1-1.41-1.3c-.18-.23-.34-.48-.51-.74a5.14,5.14,0,0,1-1.55,2.26A6.6,6.6,0,0,0,12.1,17.29ZM16,6V3.33c0-.15-.08-.2-.22-.2-.5,0-1,0-1.51,0-.2,0-.25.07-.25.26,0,.81,0,1.63,0,2.44a1.54,1.54,0,0,0,0,.19A2.21,2.21,0,0,1,16,6Z"/></svg>