<svg id="Layer_1" data-name="Layer 1" xmlns="http://www.w3.org/2000/svg" viewBox="0 0 45.94 45.94"><defs><style>.cls-1{fill:#253d89;stroke:#fff;stroke-miterlimit:10;stroke-width:1.5px;fill-rule:evenodd;}.cls-2{fill:#fff;}</style></defs><g id="HATCH"><polygon class="cls-1" points="9.67 45.94 36.27 45.94 36.48 45.94 36.7 45.93 36.92 45.92 37.14 45.9 37.36 45.88 37.58 45.85 37.81 45.82 38.03 45.78 38.26 45.74 38.48 45.69 38.71 45.63 38.93 45.57 39.16 45.5 39.38 45.43 39.61 45.35 39.83 45.26 40.05 45.17 40.27 45.08 40.49 44.97 40.71 44.86 40.93 44.75 41.14 44.63 41.35 44.5 41.56 44.37 41.77 44.23 41.97 44.08 42.17 43.94 42.37 43.78 42.56 43.62 42.75 43.45 42.93 43.28 43.11 43.11 43.28 42.93 43.45 42.75 43.62 42.56 43.78 42.37 43.94 42.17 44.08 41.97 44.23 41.77 44.37 41.56 44.5 41.35 44.63 41.14 44.75 40.93 44.86 40.71 44.97 40.49 45.08 40.27 45.17 40.05 45.26 39.83 45.35 39.61 45.43 39.38 45.5 39.16 45.57 38.93 45.63 38.71 45.69 38.48 45.74 38.26 45.78 38.03 45.82 37.81 45.85 37.58 45.88 37.36 45.9 37.14 45.92 36.92 45.93 36.7 45.94 36.48 45.94 36.27 45.94 9.67 45.94 9.46 45.93 9.24 45.92 9.02 45.9 8.8 45.88 8.58 45.85 8.36 45.82 8.14 45.78 7.91 45.74 7.69 45.69 7.46 45.63 7.24 45.57 7.01 45.5 6.79 45.43 6.56 45.35 6.34 45.26 6.11 45.17 5.89 45.08 5.67 44.97 5.45 44.86 5.23 44.75 5.01 44.63 4.8 44.5 4.59 44.37 4.38 44.23 4.17 44.08 3.97 43.94 3.77 43.78 3.58 43.62 3.38 43.45 3.2 43.28 3.01 43.11 2.83 42.93 2.66 42.75 2.49 42.56 2.32 42.37 2.16 42.17 2.01 41.97 1.86 41.77 1.72 41.56 1.58 41.35 1.44 41.14 1.32 40.93 1.2 40.71 1.08 40.49 0.97 40.27 0.87 40.05 0.77 39.83 0.68 39.61 0.59 39.38 0.51 39.16 0.44 38.93 0.37 38.71 0.31 38.48 0.26 38.26 0.21 38.03 0.16 37.81 0.12 37.58 0.09 37.36 0.06 37.14 0.04 36.92 0.02 36.7 0.01 36.48 0 36.27 0 9.67 0 9.46 0 9.24 0.01 9.02 0.02 8.8 0.04 8.58 0.06 8.36 0.09 8.14 0.12 7.91 0.16 7.69 0.21 7.46 0.26 7.24 0.31 7.01 0.37 6.79 0.44 6.56 0.51 6.34 0.59 6.11 0.68 5.89 0.77 5.67 0.87 5.45 0.97 5.23 1.08 5.01 1.2 4.8 1.32 4.59 1.44 4.38 1.58 4.17 1.72 3.97 1.86 3.77 2.01 3.58 2.16 3.38 2.32 3.2 2.49 3.01 2.66 2.83 2.83 2.66 3.01 2.49 3.2 2.32 3.38 2.16 3.58 2.01 3.77 1.86 3.97 1.72 4.17 1.58 4.38 1.44 4.59 1.32 4.8 1.2 5.01 1.08 5.23 0.97 5.45 0.87 5.67 0.77 5.89 0.68 6.11 0.59 6.34 0.51 6.56 0.44 6.79 0.37 7.01 0.31 7.24 0.26 7.46 0.21 7.69 0.16 7.91 0.12 8.14 0.09 8.36 0.06 8.58 0.04 8.8 0.02 9.02 0.01 9.24 0 9.46 0 9.67 0 36.27 0 36.48 0.01 36.7 0.02 36.92 0.04 37.14 0.06 37.36 0.09 37.58 0.12 37.81 0.16 38.03 0.21 38.26 0.26 38.48 0.31 38.71 0.37 38.93 0.44 39.16 0.51 39.38 0.59 39.61 0.68 39.83 0.77 40.05 0.87 40.27 0.97 40.49 1.08 40.71 1.2 40.93 1.32 41.14 1.44 41.35 1.58 41.56 1.72 41.77 1.86 41.97 2.01 42.17 2.16 42.37 2.32 42.56 2.49 42.75 2.66 42.93 2.83 43.11 3.01 43.28 3.2 43.45 3.38 43.62 3.58 43.78 3.77 43.94 3.97 44.08 4.17 44.23 4.38 44.37 4.59 44.5 4.8 44.63 5.01 44.75 5.23 44.86 5.45 44.97 5.67 45.08 5.89 45.17 6.11 45.26 6.34 45.35 6.56 45.43 6.79 45.5 7.01 45.57 7.24 45.63 7.46 45.69 7.69 45.74 7.91 45.78 8.14 45.82 8.36 45.85 8.58 45.88 8.8 45.9 9.02 45.92 9.24 45.93 9.46 45.94 9.67 45.94"/></g><path class="cls-2" d="M23.32,21.66c-1.83-.61-3-1.13-3.14-2.26a1.94,1.94,0,0,1,1.48-2,6.05,6.05,0,0,1,3.84.35,1.07,1.07,0,0,0,1.4-.61,1.16,1.16,0,0,0-.61-1.4A11.42,11.42,0,0,0,24,15.12V14a1.16,1.16,0,0,0-1.14-1.13,1.07,1.07,0,0,0-1,1.13v1.13a2.51,2.51,0,0,0-.79.18,4.22,4.22,0,0,0-3,4.44c.35,2.62,2.7,3.41,4.53,4.1a7.12,7.12,0,0,1,2.44,1.22,1.93,1.93,0,0,1,0,3,3.73,3.73,0,0,1-2.18.78,10.16,10.16,0,0,1-2.61-.26c-.26-.08-.53-.08-.79-.17a1.13,1.13,0,0,0-1.39.7,1.17,1.17,0,0,0,.7,1.39c.34.09.61.18.95.26a15.62,15.62,0,0,0,2,.26V32A1.14,1.14,0,0,0,24,32V30.82a4.61,4.61,0,0,0,2.44-1.22,4.12,4.12,0,0,0,0-6.19A7,7,0,0,0,23.32,21.66Z"/><path class="cls-2" d="M23,8A15,15,0,1,0,38,23,15,15,0,0,0,23,8Zm0,27.82A12.82,12.82,0,1,1,35.79,23,12.84,12.84,0,0,1,23,35.79Z"/></svg>