<svg id="Layer_1" data-name="Layer 1" xmlns="http://www.w3.org/2000/svg" viewBox="0 0 30 30"><path d="M10,19.24l-.45.51C9.18,20.16,8,21.56,8,22.5a2,2,0,0,0,4,0c0-.94-1.19-2.34-1.56-2.75Zm0,4a.78.78,0,0,1-.77-.77A4,4,0,0,1,10,21.14a3.86,3.86,0,0,1,.78,1.36A.78.78,0,0,1,10,23.27Z"/><path d="M19.93,19.24l-.46.51c-.37.41-1.56,1.81-1.56,2.75a2,2,0,0,0,4,0c0-.94-1.19-2.34-1.55-2.75Zm0,4a.78.78,0,0,1-.78-.77,3.86,3.86,0,0,1,.78-1.36,3.83,3.83,0,0,1,.77,1.36A.78.78,0,0,1,19.93,23.27Z"/><path d="M15,19.86l-.46.51c-.37.41-1.56,1.81-1.56,2.75a2,2,0,0,0,4,0c0-.94-1.19-2.34-1.56-2.75Zm0,4a.78.78,0,0,1-.78-.77A3.86,3.86,0,0,1,15,21.76a4,4,0,0,1,.77,1.36A.78.78,0,0,1,15,23.89Z"/><path d="M21.05,9A6.2,6.2,0,0,0,8.89,9a5,5,0,0,0,.49,9.92H20.55A5,5,0,0,0,21.05,9Zm2.13,7.56a3.73,3.73,0,0,1-2.63,1.09H9.38a3.72,3.72,0,0,1,0-7.44H10l.06-.55a5,5,0,0,1,9.86,0l.09.55h.54a3.72,3.72,0,0,1,2.63,6.35Z"/></svg>