<svg id="Layer_1" data-name="Layer 1" xmlns="http://www.w3.org/2000/svg" viewBox="0 0 45.94 45.94"><defs><style>.cls-1{fill:#253d89;stroke:#fff;stroke-miterlimit:10;stroke-width:1.5px;fill-rule:evenodd;}.cls-2{fill:#fff;}</style></defs><g id="HATCH"><polygon class="cls-1" points="9.65 46.16 36.25 46.16 36.46 46.16 36.68 46.15 36.9 46.14 37.12 46.12 37.34 46.1 37.56 46.07 37.78 46.04 38.01 46 38.23 45.95 38.46 45.9 38.68 45.85 38.91 45.79 39.13 45.72 39.36 45.65 39.58 45.57 39.81 45.48 40.03 45.39 40.25 45.29 40.47 45.19 40.69 45.08 40.91 44.96 41.12 44.84 41.33 44.72 41.54 44.58 41.75 44.44 41.95 44.3 42.15 44.15 42.34 44 42.54 43.84 42.72 43.67 42.91 43.5 43.09 43.33 43.26 43.15 43.43 42.96 43.6 42.77 43.76 42.58 43.91 42.39 44.06 42.19 44.2 41.99 44.34 41.78 44.48 41.57 44.6 41.36 44.72 41.15 44.84 40.93 44.95 40.71 45.05 40.49 45.15 40.27 45.24 40.05 45.33 39.82 45.41 39.6 45.48 39.37 45.55 39.15 45.61 38.92 45.66 38.7 45.71 38.47 45.76 38.25 45.8 38.02 45.83 37.8 45.86 37.58 45.88 37.36 45.9 37.14 45.91 36.92 45.92 36.7 45.92 36.49 45.92 9.89 45.92 9.67 45.91 9.46 45.9 9.24 45.88 9.02 45.86 8.8 45.83 8.58 45.8 8.35 45.76 8.13 45.71 7.9 45.66 7.68 45.61 7.45 45.55 7.23 45.48 7 45.41 6.78 45.33 6.55 45.24 6.33 45.15 6.11 45.05 5.88 44.95 5.67 44.84 5.45 44.72 5.23 44.6 5.02 44.48 4.8 44.34 4.6 44.2 4.39 44.06 4.19 43.91 3.99 43.76 3.79 43.6 3.6 43.43 3.41 43.26 3.23 43.09 3.05 42.91 2.88 42.72 2.71 42.54 2.54 42.34 2.38 42.15 2.23 41.95 2.08 41.75 1.93 41.54 1.79 41.33 1.66 41.12 1.53 40.91 1.41 40.69 1.3 40.47 1.19 40.25 1.08 40.03 0.99 39.81 0.9 39.58 0.81 39.36 0.73 39.13 0.66 38.91 0.59 38.68 0.53 38.46 0.47 38.23 0.42 38.01 0.38 37.78 0.34 37.56 0.31 37.34 0.28 37.12 0.26 36.9 0.24 36.68 0.23 36.46 0.22 36.25 0.22 9.65 0.22 9.44 0.22 9.22 0.23 9 0.24 8.78 0.26 8.56 0.28 8.34 0.31 8.11 0.34 7.89 0.38 7.67 0.42 7.44 0.47 7.21 0.53 6.99 0.59 6.76 0.66 6.54 0.73 6.31 0.81 6.09 0.9 5.87 0.99 5.64 1.08 5.42 1.19 5.21 1.3 4.99 1.41 4.78 1.53 4.57 1.66 4.36 1.79 4.15 1.93 3.95 2.08 3.75 2.23 3.55 2.38 3.36 2.54 3.17 2.71 2.99 2.88 2.81 3.05 2.64 3.23 2.47 3.41 2.3 3.6 2.14 3.79 1.99 3.99 1.84 4.19 1.69 4.39 1.55 4.6 1.42 4.8 1.29 5.02 1.17 5.23 1.06 5.45 0.95 5.67 0.84 5.88 0.75 6.11 0.66 6.33 0.57 6.55 0.49 6.78 0.42 7 0.35 7.23 0.29 7.45 0.23 7.68 0.18 7.9 0.14 8.13 0.1 8.35 0.07 8.58 0.04 8.8 0.02 9.02 0 9.24 -0.01 9.46 -0.02 9.67 -0.02 9.89 -0.02 36.49 -0.02 36.7 -0.01 36.92 0 37.14 0.02 37.36 0.04 37.58 0.07 37.8 0.1 38.02 0.14 38.25 0.18 38.47 0.23 38.7 0.29 38.92 0.35 39.15 0.42 39.37 0.49 39.6 0.57 39.82 0.66 40.05 0.75 40.27 0.84 40.49 0.95 40.71 1.06 40.93 1.17 41.15 1.29 41.36 1.42 41.57 1.55 41.78 1.69 41.99 1.84 42.19 1.99 42.39 2.14 42.58 2.3 42.77 2.47 42.96 2.64 43.15 2.81 43.33 2.99 43.5 3.17 43.67 3.36 43.84 3.55 44 3.75 44.15 3.95 44.3 4.15 44.44 4.36 44.58 4.57 44.72 4.78 44.84 4.99 44.96 5.21 45.08 5.42 45.19 5.64 45.29 5.87 45.39 6.09 45.48 6.31 45.57 6.54 45.65 6.76 45.72 6.99 45.79 7.21 45.85 7.44 45.9 7.67 45.95 7.89 46 8.11 46.04 8.34 46.07 8.56 46.1 8.78 46.12 9 46.14 9.22 46.15 9.44 46.16 9.65 46.16"/></g><path class="cls-2" d="M29,17.19v20h8v-20Zm6,18H31v-16h4Zm-16,2h8v-14H19Zm2-12h4v10H21Zm-12,12h8v-9H9Zm2-7h4v5H11ZM9.49,22.3l21.7-11.11H29v-2h7.77L32.81,15.7l-1.72-1,1-1.72L10.41,24.08Z"/></svg>