<svg id="Layer_1" data-name="Layer 1" xmlns="http://www.w3.org/2000/svg" viewBox="0 0 30 30"><defs><style>.cls-1{stroke:#231f20;stroke-miterlimit:10;stroke-width:0.3px;}</style></defs><path class="cls-1" d="M19.44,21.89A2.4,2.4,0,0,1,18,21.21a9.59,9.59,0,0,1-1-1.15,6.51,6.51,0,0,1-1.12-2.81,5.39,5.39,0,0,0-2.33-3.68,5.17,5.17,0,0,0-1.42-.68A11.05,11.05,0,0,1,9.52,11.7a10.22,10.22,0,0,1-3.4-3.61,9.9,9.9,0,0,1-1-2.56.51.51,0,0,1,.59-.64c.72.08,1.45.19,2.18.25A15.79,15.79,0,0,0,11,5.05a18.86,18.86,0,0,0,4.07-1,14.08,14.08,0,0,1,1.66-.56,6.59,6.59,0,0,1,6,1.45,6.47,6.47,0,0,1,2.33,4.39,13.84,13.84,0,0,1,0,2.23,15.71,15.71,0,0,1-.53,3.27A17.79,17.79,0,0,1,22.28,20c-.12.19-.26.37-.37.56a2.63,2.63,0,0,1-2,1.34v4.42q0,.38-.24.36c-.16,0-.23-.12-.23-.35V21.89ZM5.57,5.34c0,.08,0,.12,0,.16a9.35,9.35,0,0,0,1,2.39A9.56,9.56,0,0,0,11.14,12a3.57,3.57,0,0,0,1.43.41,7.74,7.74,0,0,1,.83.07,11.35,11.35,0,0,1,3.47.92c.4.17.78.37,1.2.56,0-.05,0-.11,0-.16,0-.33,0-.66,0-1l.18-4.77a1.61,1.61,0,0,1,.05-.44,1.11,1.11,0,0,1,1.21-.82,1.14,1.14,0,0,1,1,1.1l.12,3.22c.06,1.62.12,3.23.19,4.85a.53.53,0,0,0,.12.29c.36.45.74.89,1.1,1.35.2.26.37.55.56.83l0-.05c.3-.67.62-1.33.89-2a16.75,16.75,0,0,0,1-4.85,9.26,9.26,0,0,0-.1-2.73,6.17,6.17,0,0,0-3-4.13,6,6,0,0,0-5.42-.45,20.89,20.89,0,0,1-5.5,1.35,18.4,18.4,0,0,1-4.13-.1C6.16,5.44,5.88,5.39,5.57,5.34Zm8,7.62,0,.06.06,0a5.81,5.81,0,0,1,2.7,4.08,6.71,6.71,0,0,0,1.9,3.69,2,2,0,0,0,3.05-.23c.36-.5.68-1,1-1.56a.17.17,0,0,0,0-.17,11.5,11.5,0,0,0-1.6-2.19,11.63,11.63,0,0,0-5.44-3.34C14.71,13.19,14.15,13.09,13.6,13Zm6.75,2.68v-.09q-.12-3.41-.26-6.81c0-.28,0-.56,0-.84a.66.66,0,0,0-.66-.63.65.65,0,0,0-.62.66c-.08,2.07-.16,4.15-.25,6.22a.2.2,0,0,0,.11.2c.18.12.37.24.54.37Z"/></svg>