<svg id="Layer_1" data-name="Layer 1" xmlns="http://www.w3.org/2000/svg" viewBox="0 0 30 30"><path d="M12.63,8.23h4.88a2.2,2.2,0,0,1,2.19,2.19V15.3a2.17,2.17,0,0,1-.65,1.54h0a2.18,2.18,0,0,1-1.07.59v8.7a1.52,1.52,0,0,1-1.51,1.51h-2.8a1.5,1.5,0,0,1-1.51-1.51v-8.7a2.2,2.2,0,0,1-1.72-2.13V10.42A2.2,2.2,0,0,1,12.63,8.23Zm4.88,1.2H12.63a1,1,0,0,0-1,1V15.3a1,1,0,0,0,1.11,1,.6.6,0,0,1,.6.6v9.25a.31.31,0,0,0,.31.31,15.35,15.35,0,0,0,3-.09l.1-.22V16.88c0-.85.91-.38,1.42-.89h0a1,1,0,0,0,.29-.69V10.42A1,1,0,0,0,17.51,9.43Z"/><path d="M19.87,9.17a.6.6,0,0,1,0-1.2h3a2.19,2.19,0,0,1,2.19,2.18V15a2.21,2.21,0,0,1-1.72,2.14v8.7a1.52,1.52,0,0,1-1.51,1.51H19.74a.61.61,0,0,1,0-1.21c1,0,2.44.21,2.44-.3V16.62c0-1,1.71-.21,1.71-1.59V10.15a1,1,0,0,0-1-1Z"/><path d="M10.32,8a.6.6,0,0,1,0,1.2h-3a1,1,0,0,0-1,1V15a1,1,0,0,0,1.11,1,.6.6,0,0,1,.61.6v9.25a.3.3,0,0,0,.3.31h2.13a.6.6,0,0,1,0,1.2H8.32a1.52,1.52,0,0,1-1.51-1.51v-8.7A2.19,2.19,0,0,1,5.1,15V10.13A2.19,2.19,0,0,1,7.28,8Z"/><path d="M15.07,2.36a2.56,2.56,0,1,1-2.56,2.56A2.56,2.56,0,0,1,15.07,2.36ZM16,4a1.36,1.36,0,0,0-1.92,1.92A1.36,1.36,0,0,0,16,4Z"/><path d="M21.73,2.36a2.56,2.56,0,1,1-2.56,2.56A2.56,2.56,0,0,1,21.73,2.36Zm1,1.6a1.36,1.36,0,0,0-1.92,1.92A1.36,1.36,0,0,0,22.69,4Z"/><path d="M8,2.36A2.56,2.56,0,1,1,5.44,4.92,2.56,2.56,0,0,1,8,2.36ZM9,4A1.36,1.36,0,0,0,7,5.88,1.36,1.36,0,0,0,9,4Z"/></svg>