<svg id="Layer_1" data-name="Layer 1" xmlns="http://www.w3.org/2000/svg" viewBox="0 0 36.05 36.39"><defs><style>.cls-1{fill:#010101;}</style></defs><path class="cls-1" d="M6.22,7.46a3.73,3.73,0,0,0-3.73,3.72,6.18,6.18,0,0,0,7.45,0A3.73,3.73,0,0,0,6.22,7.46Z"/><circle class="cls-1" cx="6.22" cy="4.35" r="1.86"/><path class="cls-1" d="M4.16,6.66a3.11,3.11,0,1,1,4.11,0,5,5,0,0,1,2.79,3.44A6.21,6.21,0,1,0,0,6.22,6.17,6.17,0,0,0,1.37,10.1,5,5,0,0,1,4.16,6.66Z"/><path class="cls-1" d="M26.11,11.18a6.18,6.18,0,0,0,7.45,0,3.73,3.73,0,0,0-7.45,0Z"/><path class="cls-1" d="M27.78,6.66a3.11,3.11,0,1,1,4.11,0,5,5,0,0,1,2.79,3.44,6.22,6.22,0,1,0-9.69,0A5,5,0,0,1,27.78,6.66Z"/><circle class="cls-1" cx="29.83" cy="4.35" r="1.86"/><path class="cls-1" d="M29.83,23.62a6.22,6.22,0,0,0-6.21,6.21A6.13,6.13,0,0,0,25,33.71a5,5,0,0,1,2.79-3.43,3.11,3.11,0,1,1,4.11,0,5,5,0,0,1,2.79,3.43,6.13,6.13,0,0,0,1.37-3.88A6.22,6.22,0,0,0,29.83,23.62Z"/><path class="cls-1" d="M29.83,31.08a3.72,3.72,0,0,0-3.72,3.72,6.18,6.18,0,0,0,7.45,0A3.72,3.72,0,0,0,29.83,31.08Z"/><circle class="cls-1" cx="29.83" cy="27.97" r="1.86"/><path class="cls-1" d="M12.43,29.83A6.22,6.22,0,0,0,0,29.83v6.22H6.22A6.22,6.22,0,0,0,12.43,29.83ZM4.35,34.19H3.11V32.94H4.35Zm2.49,0H5.59V32.94H6.84Zm2.48,0H8.08V32.94H9.32Zm0-2.49H3.11V30.46H9.32Zm0-2.49H3.11V28H9.32Zm0-2.48H3.11V25.48H9.32Z"/><path class="cls-1" d="M14.66,27.76a8.62,8.62,0,0,0-1-2.43l-.2-.32.77-1.24-1.94-1.94L11,22.6l-.32-.2a8.75,8.75,0,0,0-2.43-1l-.37-.09-.33-1.41H4.84L4.51,21.3l-.37.09a8.75,8.75,0,0,0-2.43,1l-.3.18L0,21.84v3.88A7.45,7.45,0,1,1,10.33,36.05h3.88l-.74-1.41.18-.3a8.62,8.62,0,0,0,1-2.43l.09-.37,1.41-.33V28.46l-1.41-.33Z"/><path class="cls-1" d="M17.4,29.21v1.25h5q0-.32,0-.63c0-.21,0-.41,0-.62Z"/><path class="cls-1" d="M25,11.91a7.31,7.31,0,0,1-.88-.88L13.69,21.48l.88.88Z"/><path class="cls-1" d="M5.59,13.64v5H6.84v-5c-.21,0-.41,0-.62,0Z"/></svg>