<svg id="Layer_1" data-name="Layer 1" xmlns="http://www.w3.org/2000/svg" viewBox="0 0 39.11 39.08"><defs><style>.cls-1{fill:#231f20;}</style></defs><path class="cls-1" d="M18.38,5.13l-.08-.06c-.06.12-.17.25-.15.36a1.72,1.72,0,0,0,.25.43l.09-.06c0-.22-.07-.45-.11-.67m.73-.82-.52.54c.58.09.59.07.52-.54m.59.22-.24-.27c-.06.11-.17.21-.17.32s.12.17.19.26l.22-.31m.2-.21-.14.08a1.19,1.19,0,0,0,.11.44c0,.06.24,0,.36,0l.06-.11-.39-.43M16.07,9.27A.48.48,0,0,0,16.82,9c-.32-.16-.57-.18-.75.23m6-.08.64.15c0-.08.07-.2,0-.24-.19-.23-.42-.22-.67.09m-.75-.13a2.34,2.34,0,0,1,0-.26l-.66-.15c0,.12,0,.23-.07.35l.69.06M17.54,8.8c0,.09,0,.17.05.26L18.27,9c0-.12-.05-.23-.08-.35l-.65.15m1.11-4.91.09.06c.1-.12.26-.23.27-.35s0-.56-.36-.66Zm1.22-.38a.86.86,0,0,0,0-.16c-.13-.08-.26-.22-.38-.21s-.23.18-.35.27c.11.11.21.29.34.3s.25-.13.38-.2M19.1,5.94h.73c0-.28-.07-.51-.37-.51s-.4.2-.36.51m1.25-2,.09-.1V3c-.32.08-.55.22-.47.54,0,.15.25.26.38.38M14.62,6.37C14.4,6.2,14.27,6,14.14,6s-.3.2-.29.3a.47.47,0,0,0,.29.36c.11,0,.26-.16.48-.32m10.05.54c-.15.24-.31.38-.3.51s.21.31.31.29A.47.47,0,0,0,25,7.4c0-.12-.17-.26-.34-.49m-1-1.49c.16-.25.34-.4.32-.52a.51.51,0,0,0-.35-.3c-.09,0-.29.2-.29.31s.16.26.32.51M16,4.16c-.16.25-.33.39-.31.51s.2.25.31.37c.12-.13.3-.24.34-.39s-.17-.25-.34-.49m7.31.48c-.23-.14-.38-.31-.5-.29s-.23.21-.35.33c.13.12.25.31.4.33s.24-.19.45-.37m-8.27.87c-.24-.17-.38-.35-.53-.35a.47.47,0,0,0-.3.34.52.52,0,0,0,.34.35c.11,0,.26-.17.49-.34m4.86,1c-.21-.18-.37-.38-.46-.36a.59.59,0,0,0-.35.36c0,.09.2.31.33.33s.26-.17.48-.33m1.32-.9c.17-.26.34-.4.34-.55s-.22-.34-.32-.33-.36.2-.37.33.17.29.35.55M19.92,7.43c-.21-.2-.32-.41-.46-.42s-.35.2-.34.31a.53.53,0,0,0,.3.4c.08,0,.26-.14.5-.29M17.37,4.8c-.23-.18-.37-.38-.48-.36a.54.54,0,0,0-.36.33c0,.11.18.35.3.36s.29-.17.54-.33m5.17,0c-.23-.18-.38-.38-.49-.36a.56.56,0,0,0-.37.33c0,.1.19.34.31.35s.29-.16.55-.32m-4.93-.24c-.16.27-.33.43-.31.57s.25.35.33.33A.6.6,0,0,0,18,5.09c0-.13-.19-.28-.38-.53M19,2.48l-.09.13c.19.14.39.38.59.39s.33-.26.5-.41a.76.76,0,0,0-.08-.11ZM15.09,8.27c-.19-.2-.32-.44-.43-.43s-.4.19-.41.32a.57.57,0,0,0,.31.42c.1,0,.29-.15.53-.31m9.28-.51h-.18c-.09.16-.26.32-.25.47s.21.26.33.39c.13-.14.33-.27.36-.42s-.16-.29-.26-.43M21.62,8.94l.23,0a6.11,6.11,0,0,0,.37-1c0-.12-.2-.3-.3-.45-.14.11-.37.22-.38.35a6.67,6.67,0,0,0,.08,1.09M17,9l.13,0a1.48,1.48,0,0,0,.16-1.16.46.46,0,0,0-.39-.26.46.46,0,0,0-.28.37A7.3,7.3,0,0,0,17,9M23,11.7a24,24,0,0,0-7,0c.05.09.11.18.16.29l-.32.22H23c-.32-.11-.28-.29,0-.52M15.47,7.19l3.1-.3c.09-.26.07-.48-.3-.56a4.08,4.08,0,0,1-.67-.23s0,0,0,0l.76.16,0-.13a11.71,11.71,0,0,0-1.87-.62A1.32,1.32,0,0,0,15,7.36c0,.06.11.1.17.14s.13-.15.13-.22-.07-.27-.08-.41c-.09-.88.32-1.26,1.2-1.13-.95.12-1.28.65-1,1.45m7.93,0c.26-.9,0-1.34-1-1.45.92-.13,1.34.3,1.19,1.2a2.38,2.38,0,0,0-.06.37c0,.06.07.13.11.19s.17-.07.18-.12c.25-.82.05-2-1.17-1.92A7.78,7.78,0,0,0,21,5.9a6,6,0,0,0-.59.23l0,.1h.3c-.33.14-.68.23-.48.66l3.1.3m-7.34,4.19h6.72c0-.36,0-.35.46-.41.1,0,.25-.07.27-.13.21-.63.4-1.26.58-1.9,0-.1-.12-.23-.18-.35l-.12.07v.88l-.66-.46c-.06.25-.1.45-.14.67h.71c-.59,1.13-1.15,1.2-2.19.3-.42.36-.85.68-1.44.32a.83.83,0,0,1-.41-1l.7.17V8.78l-.81.14c.1-.37.16-.64.23-.92H19.1c.06.3.12.57.19.95l-.78-.19v.73l.69-.17a.82.82,0,0,1-.44,1.08c-.58.32-1,0-1.4-.36-1,.89-1.88.76-2.14-.31h.7c-.07-.23-.12-.42-.18-.63l-.68.41V8.63c-.33,0-.34.2-.28.4.17.58.35,1.16.56,1.73a.43.43,0,0,0,.33.21c.3,0,.54.06.39.41M13.91,7.73A.52.52,0,0,1,13.84,7a.43.43,0,0,0,0-.35.52.52,0,0,1,.11-.75c.08-.07.09-.23.15-.34A2.93,2.93,0,0,1,14.43,5a3.09,3.09,0,0,1,.48-.38,1.49,1.49,0,0,0,0,.21c0,.27.15.42.39.36a.49.49,0,0,0,.27-.38c0-.25-.22-.32-.46-.24l-.2.07c.07-.08.13-.19.22-.23a7.93,7.93,0,0,1,.83-.25.91.91,0,0,1,.32.06,3.13,3.13,0,0,0,.43,0c.11,0,.24,0,.33,0,.43.19.85.4,1.22.59.28-.31.55-.6.79-.88l-.58.21V2.55c.16.1.28.19.49.34-.11-.22-.19-.35-.29-.52h1.69L20,2.83l0,.07.52-.33V4.16L19.91,4,19.82,4l.82.88c.4-.2.79-.42,1.19-.6.1,0,.25,0,.37,0l.35,0a5.52,5.52,0,0,1,.58,0c.14,0,.27.07.4.1s.32,0,.35.12a2,2,0,0,0,.72.65l-.2,0c-.27,0-.45.1-.41.34s.23.25.36.37a4.13,4.13,0,0,0,.31-.46c0-.06,0-.16-.07-.24.19.38.4.76.56,1.15,0,.08-.09.22-.14.33,0-.11.06-.24,0-.33S24.85,6,24.74,6a.43.43,0,0,0-.31.26.42.42,0,0,0,.16.38c.11.06.29,0,.44,0,0,0-.06.09-.05.11.3.54-.1,1-.21,1.45,0,.15-.1.38-.21.42-.33.13-.32.39-.38.65-.14.58-.31,1.15-.42,1.73a5.23,5.23,0,0,0,0,1c0,.39-.14.64-.57.6l-1.64-.16a3.46,3.46,0,0,0-.46,0c-1.12,0-2.24,0-3.36,0-.63,0-1.26.15-1.89.18s-.77-.15-.71-.72a3.55,3.55,0,0,0-.2-1.45,11.49,11.49,0,0,1-.22-1.17.72.72,0,0,0-.37-.61c-.13-.06-.16-.32-.24-.49s-.13-.28-.2-.41c.11,0,.25,0,.33,0a1.67,1.67,0,0,0,.32-.33c-.12-.11-.24-.27-.38-.3s-.23.19-.29.32,0,.21,0,.32"/><path class="cls-1" d="M17.48,10.41l.56.51a1.94,1.94,0,0,1-.66.3c-.17,0-.35-.2-.53-.31l.63-.5"/><path class="cls-1" d="M21.43,10.41l.59.5c-.2.11-.41.3-.61.31s-.39-.2-.58-.31c.18-.15.36-.29.6-.5"/><path class="cls-1" d="M19.92,10.74l-.48.4L19,10.75c.16-.2.31-.38.49-.58l.48.57"/><path class="cls-1" d="M20.94,11.79a.81.81,0,0,1-1.07,0,.75.75,0,0,1,1.07,0"/><path class="cls-1" d="M17.92,11.79a.81.81,0,0,1,1.09,0,.77.77,0,0,1-1.09,0"/><path class="cls-1" d="M16.53,11.92a.66.66,0,0,1,1,0c-.38.31-.58.3-1,0"/><path class="cls-1" d="M22.31,11.92c-.36.33-.58.33-.91,0a.6.6,0,0,1,.91,0"/><path class="cls-1" d="M37,19.57A17.44,17.44,0,1,0,19.36,37,17.48,17.48,0,0,0,37,19.57M19.58,0A19.54,19.54,0,1,1,0,19.32,19.57,19.57,0,0,1,19.58,0"/><path class="cls-1" d="M24.94,15.6a11.26,11.26,0,0,1-2.18,0c-1.76-.4-3.53-.07-5.29-.19-.35,0-.49.12-.48.47,0,.93,0,1.87,0,2.81,0,.24.09.32.32.32H22c.32,0,.43-.11.4-.43a4.51,4.51,0,0,1,0-.65h-2c-1.07,0-1.07,0-1.07-1.09V16l.43,0c1.61,0,3.23,0,4.85,0,.32,0,.4.1.4.42,0,1.33,0,2.66,0,4a.76.76,0,0,1-.71.84,4.36,4.36,0,0,1-.51,0H15.64a1.3,1.3,0,0,1-1.38-1.41V14.3a1,1,0,0,1,1.19-1.2H24c.68,0,.94.26.94,1V15.6"/><path class="cls-1" d="M6.48,15.33a3.4,3.4,0,0,0,0,.65c0,.11.17.27.26.27h3.57c.33,0,.41-.21.42-.47s-.09-.47-.42-.47H6.48m2.08,2.86h0c-.59,0-1.19,0-1.78,0-.27,0-.33.15-.29.35s-.18.59.26.59c1.2,0,2.4,0,3.6,0,.35,0,.41-.25.41-.53s-.15-.42-.46-.42c-.58,0-1.16,0-1.74,0M3.93,21.26V13.11h8.3c.93,0,1.27.34,1.27,1.25,0,.64,0,1.28,0,1.92a3.82,3.82,0,0,1-.12.69,4,4,0,0,1,.14.75c0,.88,0,1.76,0,2.64a.87.87,0,0,1-.89.92H4.14l-.21,0"/><path class="cls-1" d="M35.16,15.39a8.7,8.7,0,0,1-2.35,0c-1.38-.41-2.75-.08-4.12-.21-.25,0-.53,0-.53.33s.29.32.54.32h5.48c.78,0,1,.18,1,.94v3.06a1.21,1.21,0,0,1-1.27,1.27c-2.23,0-4.45,0-6.68,0-.31,0-.63,0-.94,0a.77.77,0,0,1-.77-.71c0-.59,0-1.18,0-1.82a9.24,9.24,0,0,1,2.53,0c1.34.4,2.67.07,4,.2.31,0,.59-.1.59-.46s-.27-.5-.61-.5H26.41c-.78,0-.95-.19-.95-.94,0-.93,0-1.85,0-2.77A.93.93,0,0,1,26.52,13h7.65a.86.86,0,0,1,1,1Z"/><path class="cls-1" d="M15.37,31.11a2.43,2.43,0,0,1,0-.55c0-.13.15-.31.26-.34l7-1.76,4.95-1.24a1.78,1.78,0,0,1,.45-.08h6l.21,0v1l-.39,0c-1.74,0-3.49,0-5.23,0a14.65,14.65,0,0,0-3.54.66c-3.13.73-6.25,1.49-9.38,2.24l-.34.05"/><path class="cls-1" d="M15.43,29.79V29l3.08-.79L27.37,26a2.24,2.24,0,0,1,.63-.1q3,0,6,0l.27,0v1l-.47,0c-1.23,0-2.47.06-3.7,0a16.47,16.47,0,0,0-4.94.63c-3.11.77-6.22,1.49-9.33,2.24-.12,0-.25,0-.39.06"/><path class="cls-1" d="M34.28,24.62v1h-.72c-1.27,0-2.53,0-3.79,0a14.56,14.56,0,0,0-4.15.54c-3,.73-5.92,1.42-8.89,2.12l-1.26.31s0-.06,0-.07c-.06-.74-.06-.75.65-.93l11.58-2.92a2,2,0,0,1,.34,0h6l.33,0"/><path class="cls-1" d="M5,27.31v-.92l.42,0c1.09,0,2.18,0,3.27,0a13.28,13.28,0,0,0,3.81-.48c3.67-.93,7.34-1.81,11-2.71l.19,0a3,3,0,0,1,0,.74c0,.12-.26.22-.41.26-1.14.3-2.28.58-3.42.86l-9,2.25a2.42,2.42,0,0,1-.46.06H5.19a.68.68,0,0,1-.15,0"/><path class="cls-1" d="M23.78,24.43a5.6,5.6,0,0,0,0,.58c0,.26-.07.37-.33.44-1.71.41-3.41.84-5.11,1.27l-7.22,1.8a2.66,2.66,0,0,1-.63.09l-5.27,0a.68.68,0,0,1-.15,0v-.91c.15,0,.28,0,.42,0,.79,0,1.59,0,2.38,0a17.72,17.72,0,0,0,5.7-.72c3.14-.82,6.3-1.55,9.45-2.33l.76-.18"/><path class="cls-1" d="M5,26c0-.21,0-.38,0-.54s0-.22,0-.36l.34,0c1.06,0,2.12,0,3.18,0a14.29,14.29,0,0,0,4.27-.58c3.57-.9,7.15-1.76,10.72-2.63h.13a.34.34,0,0,1,.05.11c0,.76,0,.77-.69,1L10.87,26a2.42,2.42,0,0,1-.46.06H5.31L5,26"/><path class="cls-1" d="M18.36,34l.45-.48c-.14-.11-.28-.32-.42-.31s-.32.19-.48.29l.45.5m.09.41-.56.48c.16.12.32.32.49.35s.58,0,.56-.34c0-.15-.27-.29-.49-.49M17.56,34c-.29-.25-.63-.5-.42-.95a1.12,1.12,0,0,1,1.09-.6,2.38,2.38,0,0,1,.8.1c.75.25.84.8.22,1.43a1.85,1.85,0,0,0,.14.14.92.92,0,0,1-.27,1.65,2.15,2.15,0,0,1-1.07.1,1.07,1.07,0,0,1-.95-.74c-.13-.38,0-.66.46-1.13"/><path class="cls-1" d="M20,34.69a2.54,2.54,0,0,0,.66.33,1.17,1.17,0,0,0,.63-.11c.06,0,.12-.29.08-.31a1.76,1.76,0,0,0-.56-.29,1.61,1.61,0,0,0-.44,0c-.06-.3-.06-.3.44-1.07H20v-.69h2.1c.16.47.16.47-.46,1.08a4.53,4.53,0,0,1,.68.85,1,1,0,0,1,0,.73,1.35,1.35,0,0,1-1.61.62c-.48-.15-.82-.37-.66-1.13"/><path class="cls-1" d="M22.85,34.88a4.56,4.56,0,0,0,1,.09c.15,0,.27-.27.4-.41-.13-.11-.25-.29-.39-.32a6,6,0,0,0-1,0c0-.55,0-1.06,0-1.58,0,0,.13-.14.21-.14.53,0,1.08,0,1.61,0s.2.39.26.68c-.39,0-.74,0-1.09,0-.1,0-.2.14-.31.22l.31.19s.08,0,.12,0c.59.05,1,.32,1.08.73a1.24,1.24,0,0,1-.63,1.29A1.28,1.28,0,0,1,23,35.58c-.15-.18-.13-.49-.17-.7"/><path class="cls-1" d="M16.4,32.55v3.26s0,0-.06,0c-.77.09-.77.09-.77-.69,0-.56,0-1.12,0-1.78l-.88.55c-.18-.93.63-1.58,1.71-1.39"/></svg>