<svg id="Layer_1" data-name="Layer 1" xmlns="http://www.w3.org/2000/svg" viewBox="0 0 116.63 39.08"><defs><style>.cls-1{fill:#231f20;}</style></defs><path class="cls-1" d="M9.12,36.87c1.45-.88,2.94-1.71,4.36-2.66,2.27-1.52,4.74-2.73,6.76-4.67.36-.35.79-.61,1.33-1a12.42,12.42,0,0,0-1.41-.68.78.78,0,0,0-.64.12c-3.26,2.27-6.49,4.6-9.78,6.82-1.27.87-2.67,1.51-4,2.27a4.53,4.53,0,0,1-2.38.33.62.62,0,0,1-.66-.66c0-.28,0-.57,0-.85q0-9.83,0-19.64c0-2.09.05-2.17,2-2.27a59.77,59.77,0,0,1,6.27-.19,59.29,59.29,0,0,1,7.63.92,9.72,9.72,0,0,1,4.09,1.77,4.1,4.1,0,0,1,1.44,5.41,22.49,22.49,0,0,1-1.67,2.78c-.31.49-.63.57-1.16.16-1.49-1.16-3.09-2.17-4.55-3.37a29.61,29.61,0,0,1-3.12-3,4.81,4.81,0,0,1-1.1-2.6c-.16-.92-.25-1-1.15-1s-1.69,0-2.53,0c-.69,0-.84.21-.55.83a15.12,15.12,0,0,0,1.35,2.51,21.06,21.06,0,0,0,6,5.2A47.5,47.5,0,0,0,19.75,26c2,1.06,4.11,2,6.18,2.9,1.33.6,2.69,1.14,4,1.68s2.72,1.06,4.08,1.58a6.2,6.2,0,0,1,1.14.42,1.08,1.08,0,0,1,.48.71c0,1.25,0,2.5,0,3.75,0,.09-.1.17-.16.26a8.07,8.07,0,0,0-1.28-.19c-7.91,0-15.82,0-23.72,0a8,8,0,0,1-1.37-.22"/><path class="cls-1" d="M35.61,31.36c-3.75-1.69-7.61-2.72-11.17-4.87l.65-.81a25.12,25.12,0,0,0,2.22-2.63c1.26-1.94,2-4,1.13-6.42a3.81,3.81,0,0,0-1.56-1.91,15.73,15.73,0,0,0-5.68-2.1A46.43,46.43,0,0,0,14.45,12a2.55,2.55,0,0,1-.51-.21c.38-.24.61-.42.86-.56a27.81,27.81,0,0,1,9.11-3A77.22,77.22,0,0,1,34.2,7.45h.41c1.07,0,1.09,0,1.09,1.12q0,10.83,0,21.66c0,.31-.05.62-.09,1.13"/><path class="cls-1" d="M19.24,2.56H35.05c.48,0,.62.26.65.73C35.89,5.94,35.9,6,33.42,6a97.41,97.41,0,0,0-9.81.42,50,50,0,0,0-8.07,1.44,13.78,13.78,0,0,0-6.47,3.57,2.52,2.52,0,0,1-1.93.83c-1.18,0-2.36.17-3.54.29-.82.08-.93,0-.93-.9q0-4,0-8c0-.87.12-1,1-1H19.24Z"/><path class="cls-1" d="M45,9v4.6c0,1.42,0,2.85,0,4.28,0,.59-.17.86-.75.84s-1.28,0-1.93,0c-.47,0-.68-.2-.65-.7,0-.18,0-.36,0-.54V3.87c0-1.11,0-1.12,1-1.12.75,0,1.62-.22,2.19.12s.82,1.24,1.2,1.91c1,1.82,2.07,3.67,3.15,5.48.54.88,1.2,1.67,1.94,2.68,0-.47.08-.76.08-1.06q0-4,0-8c0-1.07,0-1.08,1-1.09h1.12c.88,0,.89,0,.89,1,0,3.71,0,7.43,0,11.15,0,1,0,1.93,0,2.9s0,.91-.84.95c-2.39.09-2.35.07-3.62-2.09C48.43,14.31,47,12,45.58,9.72L45.16,9H45"/><path class="cls-1" d="M71.43,14.33c.49-2,1-4,1.46-6,.26-1.09.24-1.11,1.33-1.1,2.34,0,1.94-.32,2.49,2.16.35,1.52.76,3,1.15,4.53,0,.06.1.09.25.22a8.42,8.42,0,0,0,.43-1.06c.36-1.55.68-3.12,1-4.68.26-1.17.27-1.17,1.4-1.17.47,0,1,0,1.42,0,.62,0,.7.15.49.81-.65,2.13-1.33,4.26-2,6.4-.38,1.22-.77,2.44-1.12,3.67a.74.74,0,0,1-.79.62c-2.41.13-2.41.14-3-2.45-.36-1.48-.72-3-1.09-4.45a2.73,2.73,0,0,0-.28-.49c-.27,1-.5,1.86-.7,2.69-.33,1.35-.66,2.7-.95,4-.1.48-.32.67-.76.64s-.61,0-.91,0c-1.57,0-1.54,0-2-1.54-.76-2.55-1.56-5.09-2.34-7.64-.22-.7-.41-1.41-.67-2.31,1.06,0,2,0,2.86,0,.2,0,.45.28.55.5A5.16,5.16,0,0,1,70,8.88c.38,1.7.73,3.4,1.1,5.1a2.39,2.39,0,0,0,.15.37l.2,0"/><path class="cls-1" d="M63.08,11.52c-.36-1.64-.94-2.2-2.12-2.13a2.15,2.15,0,0,0-2.18,2.13Zm3,3.61a4.79,4.79,0,0,1-5,4c-3.88,0-6.37-3.61-5.51-7.64a5.84,5.84,0,0,1,6-4.59,4.76,4.76,0,0,1,3.34,1.81,6.55,6.55,0,0,1,1.47,4.13c0,.8,0,.86-.79.87-1.86,0-3.72,0-5.58,0h-.61c-.77,0-.83.12-.67.87.46,2.07,2.71,2.84,4.08,1.29,1-1.14,2.1-.68,3.24-.72"/><path class="cls-1" d="M98.84,12.5a3.38,3.38,0,0,0-1-2.42,2.18,2.18,0,0,0-3.44.38,4.84,4.84,0,0,0-.05,5A2.17,2.17,0,0,0,98,15.7a5.19,5.19,0,0,0,.83-3.2m3.06.44c.06,3.79-2.34,6.1-5.6,6.16s-5.81-2.53-5.75-6.28a5.68,5.68,0,0,1,5.76-6,5.6,5.6,0,0,1,5.59,6.08"/><path class="cls-1" d="M106,8.55A4.33,4.33,0,0,1,110.51,7a3.07,3.07,0,0,1,2.6,3.17c0,2.54,0,5.08.06,7.62,0,.93,0,.94-.93,1H111c-.77,0-.8,0-.8-.84,0-1.82,0-3.65,0-5.47,0-.25,0-.5,0-.75-.08-1.4-.62-2.05-1.78-2.14a2,2,0,0,0-2.31,1.85,24.67,24.67,0,0,0-.17,3.1c0,1.14,0,2.29,0,3.43,0,.8-.06.83-.83.83-.44,0-.88,0-1.32,0s-.72-.25-.72-.78c0-3.33,0-6.65,0-10,0-.55.22-.79.73-.76.24,0,.48,0,.71,0,1.17,0,1.17,0,1.43,1.32"/><path class="cls-1" d="M82.12,31.2a4.53,4.53,0,0,0-1.42-3.5,3,3,0,0,0-5,1.43,6.52,6.52,0,0,0,.22,4.4,3,3,0,0,0,2.83,1.89,2.64,2.64,0,0,0,2.59-1.71,20.79,20.79,0,0,0,.75-2.51m-.19-4.55c0-1.78,0-3.31,0-4.85,0-.31.14-.85.29-.88a4.62,4.62,0,0,1,1.48,0c.07,0,.14.36.14.56,0,4.9,0,9.79,0,14.69,0,.52-.17.78-.7.8-1.06,0-1.11,0-1.42-1.15-.17.14-.34.25-.47.38C80,37.61,76.46,37.48,75,35.7a6.71,6.71,0,0,1-1.48-3.89A7,7,0,0,1,74.67,27a4.63,4.63,0,0,1,6.52-.9c.17.16.36.29.74.59"/><path class="cls-1" d="M85.14,13c0-.93,0-1.86,0-2.79,0-.53-.15-.81-.7-.75-.2,0-.41,0-.61,0q-.63,0-.6-.66c0-.14,0-.28,0-.43,0-1,0-1,.94-1.11s.93-.07.94-1.07c0-.61,0-1.21,0-1.82s.2-.72.68-.7,1,0,1.52,0,.7.26.68.78,0,1.29,0,1.93.11.84.83.88H89c1.19,0,1.59.6,1.2,1.8-.06.18-.37.33-.6.39-.5.12-1.23,0-1.48.3S88,10.8,88,11.36c0,1.18,0,2.36,0,3.54s.25,1.35,1.34,1.37c.92,0,.92,0,.93,1v.53c0,1-.05,1.08-1,1.06a14.17,14.17,0,0,1-2.6-.28,1.88,1.88,0,0,1-1.51-1.89c0-1.25,0-2.5,0-3.75h-.07"/><path class="cls-1" d="M41.91,29v-7.2c0-.89,0-.91.84-.91,2.74,0,5.48,0,8.22,0,.26,0,.73.15.75.29a3.61,3.61,0,0,1-.08,1.46c0,.13-.54.16-.83.16-1.93,0-3.85,0-5.78,0-1,0-1,0-1,1s0,2.07,0,3.11c0,.89,0,.91.84.91,1.72,0,3.45,0,5.17,0,.59,0,.75.24.76.82s-.2.81-.77.8c-1.59,0-3.18,0-4.77,0-1.3,0-1.23-.17-1.23,1.36,0,1.75,0,3.5,0,5.26,0,.89,0,.86-.9.92-1.22.09-1.19.09-1.19-1.27V29"/><path class="cls-1" d="M65,26.88a4.46,4.46,0,0,1,5-1.6,2.29,2.29,0,0,1,1.09.68,4.13,4.13,0,0,1,1.12,2.77c0,2.54,0,5.08,0,7.62,0,.51-.19.72-.67.65s-1,.15-1-.64c0-.54,0-1.08,0-1.61,0-1.9,0-3.79,0-5.69a1.88,1.88,0,0,0-2-2.13c-2.11-.09-3.36,1.17-3.39,3.43,0,1.86,0,3.71,0,5.57,0,.35-.11.94-.3,1a3.26,3.26,0,0,1-1.39,0c-.08,0-.19-.28-.21-.44a4.54,4.54,0,0,1,0-.74V26.41c0-1,.67-1.44,1.52-1a.63.63,0,0,1,.26.4A10.66,10.66,0,0,1,65,26.88"/><path class="cls-1" d="M59.8,35.68c-.15.07-.26.09-.32.16a4.21,4.21,0,0,1-3.7,1.31,2.86,2.86,0,0,1-3-2.82,26.57,26.57,0,0,1-.2-3.09c0-1.68,0-3.36,0-5,0-.28.16-.74.32-.78a2.73,2.73,0,0,1,1.27.06c.11,0,.15.51.15.78,0,2.18,0,4.37,0,6.55,0,1.54.36,2.16,1.42,2.51a3.09,3.09,0,0,0,3.29-1.06,4.27,4.27,0,0,0,.76-2.5c0-1.86,0-3.72,0-5.58,0-.84,0-.85.88-.85s1,.05,1,.88c0,3.25,0,6.51,0,9.76,0,.46.19,1.07-.63,1-1.09-.06-1.29,0-1.2-1,0-.06,0-.13-.08-.31"/><path class="cls-1" d="M9.12,36.87a8,8,0,0,0,1.37.22c7.9,0,15.81,0,23.72,0a8.07,8.07,0,0,1,1.28.19c-.34,0-.67.06-1,.06h-25a1.84,1.84,0,0,1-.91-.19l.59-.29"/></svg>