<svg id="Layer_1" data-name="Layer 1" xmlns="http://www.w3.org/2000/svg" viewBox="0 0 134.23 39.08"><defs><style>.cls-1{fill:#231f20;}</style></defs><path class="cls-1" d="M13.83,38.66c-.42,0-.83,0-1.24,0a2.06,2.06,0,0,1-1.42-.43,12,12,0,0,0-1.57-.77,4.67,4.67,0,0,1-1.82-1.34A12,12,0,0,0,6.91,35a5.34,5.34,0,0,1-1.25-2.46,2.16,2.16,0,0,0-.29-.77,1.8,1.8,0,0,1-.25-1.13c0-.66,0-1.31,0-2a7,7,0,0,1,.43-2.19,10.43,10.43,0,0,1,1-2.29,5.78,5.78,0,0,1,.79-1.14,9.12,9.12,0,0,1,2.43-1.94,21.58,21.58,0,0,1,2.09-.94,1.79,1.79,0,0,1,.6-.13c.88,0,1.77,0,2.65,0a3,3,0,0,1,.75.21,14,14,0,0,1,1.44.42,6.07,6.07,0,0,1,1.11.67A12.9,12.9,0,0,1,20,22.52,3.12,3.12,0,0,1,21,24.29a1.62,1.62,0,0,0,.23.59,1.53,1.53,0,0,1,.36.92.45.45,0,0,0,.11.32,3.22,3.22,0,0,1,.51,1.15,5.15,5.15,0,0,1,.25,2c0,.12,0,.24,0,.36a6.72,6.72,0,0,1-.76,3.21c-.18.44-.56.8-.63,1.2a6.16,6.16,0,0,1-.81,1.67,2,2,0,0,1-.58.6c-.38.3-.79.54-1.16.84a5.87,5.87,0,0,1-1.9,1c-.05,0-.13,0-.16,0-.59.7-1.38.5-2.11.52h-.56"/><path class="cls-1" d="M32.32.46c.56,0,1,0,1.35,0a1.77,1.77,0,0,1,1.42.43,1.21,1.21,0,0,0,.47.18,2,2,0,0,1,.37.1c.81.52,1.63,1,2.41,1.6a2.44,2.44,0,0,1,.62.76c.28.49.54,1,.79,1.53s.31.77.5,1.13a9.26,9.26,0,0,1,.73,5,5.69,5.69,0,0,1-.46,1.31c-.15.42-.28.85-.42,1.28a1.83,1.83,0,0,1-.11.33c-.44.72-.88,1.45-1.34,2.17a1.86,1.86,0,0,1-.42.42,14.78,14.78,0,0,1-1.3.94c-.53.31-1.1.55-1.66.81-.29.13-.59.24-.88.38a5.07,5.07,0,0,1-2.22.22c-.43,0-.86,0-1.3,0a1.3,1.3,0,0,1-.92-.35,2.47,2.47,0,0,0-.7-.32c-.43-.19-.87-.35-1.28-.58a4.1,4.1,0,0,1-.87-.63,12.64,12.64,0,0,1-.93-1c-.15-.15-.27-.34-.43-.47a4.49,4.49,0,0,1-1.45-2.28,7.12,7.12,0,0,1-.67-3.14,7.84,7.84,0,0,0,0-1.37A4.1,4.1,0,0,1,24,7.15c.33-.73.55-1.53.86-2.28a3.08,3.08,0,0,1,.55-.71c.23-.28.48-.54.68-.83A4.84,4.84,0,0,1,27.79,1.8c.72-.37,1.44-.73,2.17-1.06A8.06,8.06,0,0,1,32.32.46"/><path class="cls-1" d="M13.82.45a3.38,3.38,0,0,0,.45,0,4.67,4.67,0,0,1,2.32.46,12.78,12.78,0,0,1,2.83,1.6,3.87,3.87,0,0,1,1.65,2.28.82.82,0,0,0,.2.35,1.08,1.08,0,0,1,.35.84.57.57,0,0,0,.08.28,6.84,6.84,0,0,1,.83,3.57,8.65,8.65,0,0,1-.82,3.45c-.16.38-.23.79-.59,1,0,0,0,.07-.05.11a5,5,0,0,1-2.19,2.92A15.43,15.43,0,0,1,15.44,19a1.07,1.07,0,0,1-.44.06c-.86,0-1.73,0-2.59,0a1.77,1.77,0,0,1-.7-.18A12.37,12.37,0,0,0,10,18a4.23,4.23,0,0,1-1.28-.67,5.5,5.5,0,0,1-.81-.79A19.3,19.3,0,0,1,6.6,15a5.23,5.23,0,0,1-.93-2c-.07-.33-.22-.63-.31-.95A6.94,6.94,0,0,1,5.13,11c0-.52,0-1,0-1.55a7.88,7.88,0,0,1,1-4.07c.15-.29.3-.59.46-.88a1.54,1.54,0,0,1,.28-.34c.06-.07.19-.1.22-.17.26-.75.91-1.14,1.41-1.66a2.78,2.78,0,0,1,.77-.55,23.76,23.76,0,0,1,2.16-1,8.38,8.38,0,0,1,2.41-.3"/><path class="cls-1" d="M38.41,36.23a7,7,0,0,0-1.23.87,5.33,5.33,0,0,1-1.9,1c-.13.07-.31.08-.4.18a1.5,1.5,0,0,1-1.3.42c-1,0-2,0-3,0a2,2,0,0,1-.77-.27c-.57-.29-1.14-.58-1.69-.91s-1.33-.59-1.72-1.35a5.24,5.24,0,0,0-1-1.14,5,5,0,0,1-1.28-2.49,2.6,2.6,0,0,0-.28-.84,2.23,2.23,0,0,1-.26-1.36c0-.88,0-1.75,0-2.63a2.12,2.12,0,0,1,.18-.73,2.21,2.21,0,0,0,.4-1.15.27.27,0,0,1,0-.17c.59-.89,1.12-1.84,1.79-2.66a5.69,5.69,0,0,1,2.25-1.78c.37-.14.68-.47,1.06-.62a5.39,5.39,0,0,1,1.57-.49,17.94,17.94,0,0,1,2.54,0,4.3,4.3,0,0,1,1,.24A8.48,8.48,0,0,1,38,22.2a8.8,8.8,0,0,1,1.25,1.61,14.61,14.61,0,0,1,1.63,3.84,3.23,3.23,0,0,1,.1.76c0,.66,0,1.31,0,2a2.34,2.34,0,0,1-.21,1c-.29.66-.46,1.39-.69,2.08a1.27,1.27,0,0,1-.13.32l-1.56,2.49"/><path class="cls-1" d="M91.73,37.08H89V21H92A65.55,65.55,0,0,0,98.66,31.4a3.23,3.23,0,0,0,.1-.55q0-4.56,0-9.13v-.81c.73,0,1.4,0,2.07,0a.65.65,0,0,1,.72.43,8.46,8.46,0,0,0-.11.92q0,6.7,0,13.42c0,.44.08.89.13,1.38a3.47,3.47,0,0,1-.52.08H99.46a.69.69,0,0,1-.66-.37c-.23-.37-.44-.76-.68-1.12-.65-1-1.32-2-2-3s-1.21-1.95-1.84-2.91c-.19-.28-.55-.43-.72-.72-.34-.61-.59-1.29-.92-1.91-.22-.42-.52-.79-.76-1.16-.4.07-.32.35-.33.57,0,2.41,0,4.82,0,7.22,0,.6,0,1.19,0,1.79s.09,1,.14,1.58"/><path class="cls-1" d="M61.08,29a26.45,26.45,0,0,0,.43,2.64A4.8,4.8,0,0,0,63,33.82a2.64,2.64,0,0,0,2,.9,3.86,3.86,0,0,1,.68,0A2.92,2.92,0,0,0,67.79,34a6,6,0,0,0,2-4.31,6.42,6.42,0,0,0-.22-2.45,7.3,7.3,0,0,0-.85-2,3.56,3.56,0,0,0-2.52-1.83,3.67,3.67,0,0,0-3.48,1.13,5.35,5.35,0,0,0-1.28,2.12,17.56,17.56,0,0,0-.41,2.3m-2.89.28a27.58,27.58,0,0,1,.33-2.88,7.88,7.88,0,0,1,.77-1.8,7,7,0,0,1,2-2.44,7.6,7.6,0,0,1,1.67-.88,10.84,10.84,0,0,1,1.25-.43,1.26,1.26,0,0,1,.28,0,2.61,2.61,0,0,1,.28,0,9.85,9.85,0,0,1,3.69.51,2.78,2.78,0,0,1,.76.44A6.55,6.55,0,0,1,71.48,24a12.93,12.93,0,0,1,1,2.7,10.27,10.27,0,0,1,.19,3.07,9.69,9.69,0,0,1-.49,2.52,8.63,8.63,0,0,1-1.61,2.84,4.16,4.16,0,0,1-2,1.42,3.3,3.3,0,0,0-.72.32,3.79,3.79,0,0,1-1.68.35c-.47.05-.94,0-1.41,0A5.61,5.61,0,0,1,61.33,36a7.24,7.24,0,0,1-1.91-2.14A8.63,8.63,0,0,1,58.64,32a6,6,0,0,1-.34-2.78h-.11"/><path class="cls-1" d="M50.53,8.84c1.43-.13,2.82.23,4.16-.37a1.5,1.5,0,0,0,1-1.34c0-.24,0-.48,0-.71A1.48,1.48,0,0,0,55,4.94a3.27,3.27,0,0,0-.73-.22c-1.21-.43-2.44-.08-3.7-.2Zm0,2.38v4.25l.61,0c1,0,2.07,0,3.1,0a2.46,2.46,0,0,0,1.39-.36A2.17,2.17,0,0,0,56,11.57a.76.76,0,0,0-.3-.14c0-.1-.09-.26-.16-.28a3.49,3.49,0,0,0-1-.27c-1.2,0-2.4,0-3.6,0-.24,0-.4.07-.4.36M54.89,2a3.8,3.8,0,0,1,2.34,1.42,4.52,4.52,0,0,1,1,3.23,7.21,7.21,0,0,1-.61,1.93c-.06.17-.32.26-.47.4-.33.31-.32.63.06.76a3.3,3.3,0,0,1,1.84,2,1.41,1.41,0,0,1,.12.5c0,.42,0,.84,0,1.25a4.13,4.13,0,0,1-1.52,3.29,3.77,3.77,0,0,1-1.17.86,7.36,7.36,0,0,1-1.86.51c-2.08.08-4.17.06-6.25.06-.19,0-.5.1-.47-.31.35-.1.32-.4.32-.68V14.44q-.06-6.21-.1-12.4l.67,0,6.09,0"/><path class="cls-1" d="M68,8.93c.17-.21.5-.45.58-.75a4.29,4.29,0,0,0,.09-2.08,1.87,1.87,0,0,0-1.18-1.3c-1.18-.5-2.43-.22-3.68-.27V9.32c1.4-.1,2.77.25,4.19-.39M67.53,2a5.5,5.5,0,0,1,3.34,1.87c.12.13.13.36.22.52a3.62,3.62,0,0,1,.52,1.88c0,.33,0,.67,0,1a2.73,2.73,0,0,1-1.34,2.44,12.71,12.71,0,0,0-1.27.95c.25.39.49.73.69,1.09.35.61.69,1.23,1,1.86.46.91.91,1.84,1.34,2.76a9.19,9.19,0,0,1,.35.92l-.74-.22c0,.24-.08.49-.11.71l-1.31.08c-.15-.44-.27-.78-.39-1.15-.42.19-.2.57-.28.83a6.2,6.2,0,0,1-.52-.81c-.41-.87-.74-1.8-1.2-2.64A6.4,6.4,0,0,0,66.45,12a.65.65,0,0,0-.36-.2c-.73,0-1.46,0-2.3,0v6.32H61.25c0-.34,0-.59,0-.85,0-3.33,0-6.67,0-10,0-1.75,0-3.5,0-5.25h6.31"/><path class="cls-1" d="M111.76,2l2.47,0A9.5,9.5,0,0,0,114,4.9C114,6,114,7,114,8.11c0,.27-.05.59.37.58h7.14V2.05h2.62V18.2l-2.21,0c-.31-.09-.38-.31-.38-.63,0-2.13,0-4.26,0-6.39-.1-.11-.25-.35-.29-.33-.37.18-.73,0-1.08,0-1.8,0-3.59,0-5.38,0-.16,0-.31.13-.47.21s-.33.38-.33.69q0,3.18,0,6.38h0l-2.21,0a5,5,0,0,1-.06-.58V2"/><path class="cls-1" d="M74.56,21A8.23,8.23,0,0,1,77,21c0,.3,0,.53,0,.77,0,2.88,0,5.76,0,8.65a10,10,0,0,0,.08,1.9,2.82,2.82,0,0,0,1.62,2.13,5.66,5.66,0,0,0,3,.24A2.28,2.28,0,0,0,83.08,34,2.47,2.47,0,0,0,84,32.26c0-3.38,0-6.76,0-10.14V21h2.55c0,.13,0,.28,0,.44,0,3.43.06,6.88,0,10.31A5.59,5.59,0,0,1,84.74,36a4.38,4.38,0,0,1-1.66,1.08,8.19,8.19,0,0,1-1.56.17c-.77,0-1.54,0-2.31,0a4.21,4.21,0,0,1-2.07-.57,14.06,14.06,0,0,1-1.21-.8,1.29,1.29,0,0,1-.63-1,1.61,1.61,0,0,0-.3-.93,1.66,1.66,0,0,1-.26-1c-.5-3.76-.11-7.54-.22-11.3a4.48,4.48,0,0,1,0-.59"/><path class="cls-1" d="M98.34,16.89c.33-.65.59-1.26.93-1.82.22-.36.5-.37.86-.17a6.29,6.29,0,0,0,3.55,1,4.3,4.3,0,0,0,2.34-.75,1.85,1.85,0,0,0,.34-2.11,4.23,4.23,0,0,0-1.07-1.08,6.11,6.11,0,0,0-1.84-.78,5.36,5.36,0,0,1-1.31-.61c-.36-.18-.71-.39-1.09-.55a4.46,4.46,0,0,1-2-2,.56.56,0,0,1,0-.29c0-.77,0-1.55,0-2.32a3.17,3.17,0,0,1,1.12-2.2,5.56,5.56,0,0,1,2.72-1.4,7.59,7.59,0,0,1,1.91,0,6.63,6.63,0,0,1,2.56.46c.38.15.77.27,1.12.39a5.28,5.28,0,0,1-.06,2.71c-.37-.13-.74-.29-1.12-.41q-.93-.27-1.86-.51a4.66,4.66,0,0,0-1.21-.21,10.9,10.9,0,0,0-1.55.26,2.85,2.85,0,0,1-.31.38A1.67,1.67,0,0,0,102,7a3.18,3.18,0,0,0,1.89,1.45c.46.15.91.38,1.38.53a9.83,9.83,0,0,0,1.19.29,4.25,4.25,0,0,1,2.85,2.56,1.29,1.29,0,0,1,.11.45c0,.55.05,1.11,0,1.66a4,4,0,0,1-.87,2.23,4.8,4.8,0,0,1-2,1.61,6.48,6.48,0,0,1-1.48.45,6.74,6.74,0,0,1-1.93.22,7.92,7.92,0,0,1-2.62-.51c-.56-.25-1.15-.43-1.71-.67a2.42,2.42,0,0,1-.49-.38"/><path class="cls-1" d="M114.67,21.59c-.26.83-.49,1.54-.75,2.35a2.38,2.38,0,0,1-.6,0,6.35,6.35,0,0,1-1.12-.36,3.83,3.83,0,0,0-2.43-.15,3,3,0,0,0-1.91,1.08,15.61,15.61,0,0,0-1,1.41,8.11,8.11,0,0,0-.71,2.27,8.54,8.54,0,0,0,.17,2.9,2.75,2.75,0,0,0,.32.73,5,5,0,0,0,2,2.4,4.07,4.07,0,0,0,1.42.45,5.53,5.53,0,0,0,3.16-.51,1.93,1.93,0,0,1,.68-.08c.24.82.47,1.55.71,2.35a18.71,18.71,0,0,1-2.15.72,8,8,0,0,1-1.83.11,13.41,13.41,0,0,1-2.1-.16,6.21,6.21,0,0,1-2.36-1.07,10.82,10.82,0,0,1-1.84-2,3.36,3.36,0,0,1-.3-.75,8.53,8.53,0,0,1-.74-2.69,7.47,7.47,0,0,1-.19-2.05c.11-.76.35-1.51.46-2.28a7.78,7.78,0,0,1,1-2.36,6.68,6.68,0,0,1,1.24-1.47,8,8,0,0,1,2.42-1.5,1.59,1.59,0,0,1,.71-.15,9.89,9.89,0,0,1,3.07.11c.4.11.8.18,1.2.28s.89.24,1.45.39"/><path class="cls-1" d="M57,34.1c.26.83.48,1.55.73,2.37-.67.25-1.29.5-1.93.71a2.88,2.88,0,0,1-.72.06c-.88,0-1.77,0-2.65,0a2.5,2.5,0,0,1-1.65-.42.6.6,0,0,0-.25-.13,2.56,2.56,0,0,1-1.5-.83c-.42-.37-.94-.72-1.08-1.28a15.84,15.84,0,0,0-.66-1.63c-.18-.55-.41-1.08-.55-1.64a8.21,8.21,0,0,1-.09-3.69A8.06,8.06,0,0,1,47,26.3a5.89,5.89,0,0,1,.79-1.84,2,2,0,0,0,.36-.9c.1-.67.64-.95,1-1.31a8.85,8.85,0,0,1,2.66-1.33,6.9,6.9,0,0,1,2.88-.24,6,6,0,0,1,1.56.42c.46.15.91.34,1.46.55-.22.75-.45,1.5-.7,2.3-.08,0-.22.05-.32,0a7,7,0,0,0-3.83-.53,2.48,2.48,0,0,0-.66.27A4.33,4.33,0,0,0,50,25.78a7,7,0,0,0,.17,7,4.91,4.91,0,0,0,1.91,1.64,6.3,6.3,0,0,0,3.24.28,4.74,4.74,0,0,0,1.2-.41L57,34.1"/><path class="cls-1" d="M85.79,18.24H84V4.54c-1.73-.23-3.43.12-5.06-.16C79,3.51,79,2.77,79,2H90.86a4.52,4.52,0,0,1,.53.06V4.45h-5c0,.48-.08.87-.11,1.26a1.67,1.67,0,0,0-.22.55c0,3.69,0,7.38,0,11.06a2.07,2.07,0,0,0,.08.42l.16,0v.39l-.49.13"/><path class="cls-1" d="M121.6,20.89l2.58.08v12.9c0,.16,0,.32,0,.48,0,.41.28.36.5.36h5.22v2.4h-8.31c0-.28-.06-.49-.06-.7q0-7.17,0-14.32c0-.4,0-.8,0-1.19"/><path class="cls-1" d="M119.32,37.11l-2.69.19v-16c.08-.08.16-.22.25-.22.76,0,1.52,0,2.34,0V36c0,.37.07.75.1,1.12"/><rect class="cls-1" x="93.27" y="2.03" width="2.55" height="16.12"/><path class="cls-1" d="M74.56,2.05H77v16a5.19,5.19,0,0,1-2.42,0Z"/><path class="cls-1" d="M119.32,37.11c0-.37-.1-.75-.1-1.12V21c-.82,0-1.58,0-2.34,0-.09,0-.17.14-.25.22l0-.52,2.86.21c0,.26,0,.47,0,.68q0,7.45,0,14.91c0,.21.13.51-.22.58"/><path class="cls-1" d="M61.22,2c0,1.75,0,3.5,0,5.24,0,3.34,0,6.68,0,10,0,.26,0,.51,0,.85h2.54c-.06,0-.12.12-.18.12H61.19a1,1,0,0,1-.31-.12V2h.34"/><path class="cls-1" d="M111.76,2v15.5a5,5,0,0,0,.06.58l2.21,0a11.25,11.25,0,0,1-2.6.06v-.75q0-7.4,0-14.79c0-.25-.18-.66.32-.65"/><path class="cls-1" d="M48.13,2l.09,12.4c0,.93,0,1.85,0,2.78,0,.28,0,.58-.31.68,0-.62,0-1.23,0-1.85q0-7,0-14h.23"/><path class="cls-1" d="M130.16,37.12l-.24,0V34.7h-5.21c-.24,0-.53,0-.51-.36l5.16,0c.75,0,.91.15.9.93,0,.61-.07,1.22-.1,1.82"/><path class="cls-1" d="M114.35,11.08a1.16,1.16,0,0,1,.47-.21c1.79,0,3.58,0,5.38,0,.35,0,.71.2,1.08,0,0,0,.19.22.29.33h-7.21a.57.57,0,0,1,0-.13"/><path class="cls-1" d="M69.55,17.55c.08-.26-.14-.64.27-.83l.4,1.15,1.31-.08c0-.22.07-.47.11-.71l.74.22c.16.24.45.44.28.9a20.74,20.74,0,0,1-3-.07c0-.23-.05-.41-.07-.58"/><path class="cls-1" d="M114.35,11.08a.57.57,0,0,0,0,.13c0,2.1,0,4.21,0,6.31,0,.25.13.6-.31.63q0-3.19,0-6.38c0-.31,0-.56.33-.69"/><path class="cls-1" d="M114.37,8.69c-.4,0-.35-.31-.35-.58,0-1.07,0-2.14,0-3.2a9.52,9.52,0,0,1,.2-2.87,3.76,3.76,0,0,1,.12.67c0,2,0,4,0,6"/><path class="cls-1" d="M55.69,11.43a7.34,7.34,0,0,0-1.19-.23c-1.34,0-2.67,0-4,0,0-.29.16-.37.4-.37,1.2,0,2.4,0,3.6,0a3.49,3.49,0,0,1,1,.27c.07,0,.1.18.16.28"/><path class="cls-1" d="M86.27,5.71c0,2.84,0,5.68,0,8.52,0,.26,0,.51,0,.77v2.72l-.16,0a2.12,2.12,0,0,1-.08-.41c0-3.69,0-7.38,0-11.07a1.67,1.67,0,0,1,.22-.55"/></svg>