<svg id="Layer_1" data-name="Layer 1" xmlns="http://www.w3.org/2000/svg" viewBox="0 0 39.11 39.08"><defs><style>.cls-1{fill:#231f20;}</style></defs><path class="cls-1" d="M31.34,27.52C28.94,21,26.59,14.66,24.25,8.35H22.44l-2.75,7.32h-.28l-2.73-7.3H14.85L7.78,27.52h2.67c.73-1.93,1.43-3.78,2.12-5.62h4.81c-.68,1.91-1.33,3.71-2,5.63H18l1.59-4,1.59,4h2.57l-2-5.62h4.81c.74,1.93,1.45,3.77,2.15,5.61ZM19.58,1.66A17.59,17.59,0,0,1,37.36,19.45a17.8,17.8,0,1,1-35.6,0A17.61,17.61,0,0,1,19.58,1.66"/><path class="cls-1" d="M25.61,19.23H21.19a33.69,33.69,0,0,1,2.25-6l2.17,6"/><path class="cls-1" d="M15.91,13.32c.7,1.94,1.4,3.87,2.13,5.91h-4.5c.72-2,1.4-4,2.07-5.9h.3"/></svg>