<svg id="Layer_1" data-name="Layer 1" xmlns="http://www.w3.org/2000/svg" viewBox="0 0 39.11 39.08"><defs><style>.cls-1{fill:#231f20;}</style></defs><path class="cls-1" d="M29.18,13l-.29.11.6,1.48.3-.13L29.18,13M25.69,5.14l0,.34,1.81-.16,0-.3-1.82.12M25,17.72l-.19.1c.07.77,1.64,3.84,2.16,4l-2-4.1M26,24.81c-.07-.09-.13-.19-.19-.28-1.32.83-2.66,1.62-4,2.49l.18.27,4-2.48M24.6,21.54h.34c.2-.3.56-.61.55-.9a1.07,1.07,0,0,0-.7-.72.63.63,0,0,0-.77.72c.05.32.38.6.58.9M19.37,2.32a1.05,1.05,0,0,0-1,1.05,1,1,0,0,0,1,1,1.06,1.06,0,0,0,1.05-1,1.09,1.09,0,0,0-1.05-1.05M7.87,24.39a1.09,1.09,0,0,0,0,.17c.51.46,9.73,3.25,10.28,3L7.87,24.39m23.51-8.5a1.22,1.22,0,1,0-2.43,0,1.22,1.22,0,0,0,2.43,0M31,5a1.63,1.63,0,1,0-1.62,1.61A1.62,1.62,0,0,0,31,5m-3.4,16.84a1.73,1.73,0,0,0-1.75,1.73,1.75,1.75,0,0,0,1.74,1.74,1.78,1.78,0,0,0,1.72-1.7,1.75,1.75,0,0,0-1.71-1.77M22,20.2l-6.29-.6a8.34,8.34,0,0,0,.31.93c.81,1.63,1.63,3.26,2.44,4.9.08.16.15.34.23.52l-.1,0L15,21.25l-.27.21,3.82,5.17.61-.41L16.11,20l5.76.57c-.47,1.9-.94,3.73-1.4,5.57l.32.07c.48-1.87,1-3.73,1.46-5.58l1.47.08,0-.28-1.38-.21c.18-.75.34-1.47.5-2.18L22.57,18c-.19.7-.38,1.41-.61,2.23M25.45,5.49a1.89,1.89,0,1,0-3.77,0,1.89,1.89,0,0,0,3.77,0M13.56,17.57a2,2,0,0,0-2,2,2,2,0,0,0,4,.05,2,2,0,0,0-2-2M28,8.19a2.38,2.38,0,1,0,0,4.75,2.38,2.38,0,1,0,0-4.75M12.28,13.5l.13-.05c.11.19.22.38.32.57.52,1,1,2.08,1.56,3.12a3.29,3.29,0,0,0,.48.58l.14-.11c-.72-1.45-1.44-2.9-2.16-4.33,1.33-1.35,1.46-2.69.4-3.73a2.31,2.31,0,0,0-3.26,0c-1.06,1-.92,2.37.43,3.74C9,16,7.68,18.76,6.36,21.49l.27.14c.11-.2.24-.39.34-.6,1-2.15,2.08-4.31,3.13-6.46.52-1.09.53-1.09,1.71-1l.1.05c.42,1.22.52,2.57,1,3.78l.24-.06c-.3-1.29-.6-2.57-.91-3.85m11.17,4.34A2.8,2.8,0,1,0,20.69,15a2.8,2.8,0,0,0,2.76,2.8m-3.91-7.4L13.61,7.82a2.35,2.35,0,0,0,.05-.72c-.21-.6.15-.79.59-1,1.17-.56,2.33-1.15,3.5-1.73A5.69,5.69,0,0,0,18.27,4l-.13-.25L13.42,6.12c-.21-.19-.36-.36-.54-.5A2,2,0,0,0,10,8.18c.25.41.52.69,1.1.53a5.61,5.61,0,0,1,1.15,0c.28,0,.67,0,.81-.23.32-.39.59-.3.95-.14,1.56.7,3.12,1.4,4.7,2.07a.78.78,0,0,1,.59.94,2.06,2.06,0,0,0,1.42,2.28c1-1.32,1.21-1.44,3.27-1.7-.15-1.19,1.15-.38,1.54-1.14-.32,0-.53,0-.74.07-.88.14-1.08,0-1.1-1,0-.61,0-1.23,0-1.84a4.54,4.54,0,0,0-.09-.51l-.25,0V9.83l-.81-.5c.17-.64.33-1.21.48-1.78l-.27-.08c-.14.42-.26.86-.44,1.27-.09.18-.31.42-.47.42a2.62,2.62,0,0,0-2.34,1.28m2.54,17.65a2.09,2.09,0,0,0-2-1.74c-.91,0-1.56.53-2,1.71-.15,0-.33,0-.5,0-3,0-5.94,0-8.91,0a2.35,2.35,0,0,1-2.22-1.52.67.67,0,0,1,.24-.93,2.2,2.2,0,0,0,0-3.7,1,1,0,0,1-.34-.65q0-8.76,0-17.53A2.21,2.21,0,0,1,8.2,1.64a5.32,5.32,0,0,1,.89,0c7,0,14,0,21,0A2.54,2.54,0,0,1,32.8,4.22c-.06,7.1,0,14.2,0,21.3a2.29,2.29,0,0,1-2.57,2.57H22.08"/><path class="cls-1" d="M15.88,33.42v0H14.3a1.24,1.24,0,0,0-1.24,1.13c-.21,1.21,0,2.13.67,2.4a2.15,2.15,0,0,0,.8.15c.52,0,1,0,1.57,0,1.41,0,1.73-.3,1.72-1.73,0-.63.15-1.45-.18-1.82s-1.15-.14-1.76-.18m1.88-.61c.11-1.12-.32-1.65-1.35-1.68s-2.28,0-3.42,0c-.2,0-.39-.23-.58-.35.19-.09.38-.27.57-.28,1.09,0,2.19,0,3.28,0,1.56,0,2.21.71,2.21,2.25,0,1,0,2.05,0,3.08a1.77,1.77,0,0,1-2,2c-.73,0-1.46,0-2.19,0a1.83,1.83,0,0,1-1.92-2c-.08-2.5.43-3,2.95-3Z"/><path class="cls-1" d="M29.33,37.15h0c.39,0,.78,0,1.17,0a1.08,1.08,0,0,0,1.16-1.1,20,20,0,0,0,0-2.19.57.57,0,0,0-.4-.38q-1.57,0-3.15,0a1.05,1.05,0,0,0-1.11.84c-.32,2.07-.1,3,2,2.83h.34m2.28-4.34c.15-1.09-.28-1.65-1.31-1.68s-2.23,0-3.35,0c-.24,0-.66-.18-.66-.3,0-.54.43-.33.69-.33,1.07,0,2.15,0,3.22,0a1.89,1.89,0,0,1,2.13,2.16c0,1,0,2.1,0,3.15a1.75,1.75,0,0,1-2,2c-.73,0-1.46,0-2.19,0a1.83,1.83,0,0,1-1.92-1.95c-.08-2.5.43-3,2.92-3h2.44"/><path class="cls-1" d="M19.69,37.15c1.12,0,2.23.05,3.34,0,.43,0,1.12-.23,1.2-.5a3.78,3.78,0,0,0,0-1.83c0-.19-.56-.35-.88-.37-.65-.06-1.32,0-2,0a1.6,1.6,0,0,1-1.75-1.75c-.06-1.39.39-2.05,1.62-2.13s2.37,0,3.55,0c.14,0,.26.21.39.32-.13.1-.27.29-.41.3-1,0-2.1,0-3.15,0s-1.46.45-1.37,1.55a1,1,0,0,0,1.12,1c.71,0,1.41,0,2.12,0a1.44,1.44,0,0,1,1.62,1.54,7,7,0,0,1,0,1,1.41,1.41,0,0,1-1.37,1.45c-1.25.07-2.51,0-3.76,0-.13,0-.26-.29-.39-.45l.13-.17"/><path class="cls-1" d="M11.27,31.12H8.7c-1.25,0-1.58.35-1.59,1.58,0,1,0,2,0,2.94s.45,1.47,1.47,1.5,1.82,0,2.75,0v.6c-1.1,0-2.17.07-3.24,0A1.65,1.65,0,0,1,6.47,35.9c0-1.18,0-2.37,0-3.55a1.69,1.69,0,0,1,1.81-1.87c.87,0,1.74,0,2.6,0,.48,0,.55.2.39.66"/></svg>