<svg id="Layer_1" data-name="Layer 1" xmlns="http://www.w3.org/2000/svg" viewBox="0 0 224.82 46.69"><defs><style>.cls-1,.cls-2{font-size:10px;font-family:CooperHewitt-Bold, Cooper Hewitt;font-weight:700;}.cls-1,.cls-2,.cls-5{fill:#016b62;}.cls-2{letter-spacing:-0.01em;}.cls-3{letter-spacing:0em;}.cls-4{fill:#e6e6e5;}.cls-4,.cls-5{fill-rule:evenodd;}.cls-6{opacity:0.6;}</style></defs><text class="cls-1" transform="translate(16.68 26.74)">NC</text><text class="cls-2" transform="translate(76.54 26.74)">P<tspan class="cls-3" x="5.97" y="0">C</tspan></text><text class="cls-1" transform="translate(135.65 26.74)">HC</text><text class="cls-1" transform="translate(195.51 26.74)">EC</text><g id="HATCH"><polygon class="cls-4" points="201.71 6.1 201.33 6.11 200.94 6.12 200.55 6.14 200.16 6.17 199.77 6.21 199.37 6.26 198.97 6.32 198.57 6.39 198.17 6.47 197.77 6.56 197.37 6.66 196.97 6.77 196.56 6.89 196.16 7.02 195.76 7.16 195.36 7.31 194.97 7.48 194.57 7.65 194.18 7.83 193.79 8.03 193.41 8.23 193.02 8.45 192.65 8.68 192.28 8.91 191.91 9.16 191.55 9.42 191.19 9.68 190.84 9.96 190.5 10.24 190.16 10.54 189.84 10.84 189.52 11.15 189.21 11.47 188.9 11.8 188.61 12.14 188.32 12.48 188.05 12.83 187.78 13.18 187.53 13.54 187.28 13.91 187.04 14.28 186.81 14.66 186.6 15.04 186.39 15.43 186.2 15.82 186.01 16.21 185.84 16.6 185.68 17 185.53 17.4 185.38 17.8 185.25 18.2 185.13 18.6 185.02 19 184.92 19.41 184.83 19.81 184.75 20.21 184.69 20.61 184.63 21.01 184.58 21.4 184.54 21.8 184.51 22.19 184.48 22.58 184.47 22.96 184.47 23.35 184.47 23.73 184.48 24.12 184.51 24.5 184.54 24.9 184.58 25.29 184.63 25.69 184.69 26.09 184.75 26.48 184.83 26.89 184.92 27.29 185.02 27.69 185.13 28.09 185.25 28.49 185.38 28.9 185.53 29.3 185.68 29.7 185.84 30.09 186.01 30.49 186.2 30.88 186.39 31.27 186.6 31.65 186.81 32.03 187.04 32.41 187.28 32.78 187.53 33.15 187.78 33.51 188.05 33.87 188.32 34.22 188.61 34.56 188.9 34.89 189.21 35.22 189.52 35.54 189.84 35.85 190.16 36.16 190.5 36.45 190.84 36.73 191.19 37.01 191.55 37.28 191.91 37.53 192.28 37.78 192.65 38.02 193.02 38.24 193.41 38.46 193.79 38.66 194.18 38.86 194.57 39.04 194.97 39.22 195.36 39.38 195.76 39.53 196.16 39.67 196.56 39.8 196.97 39.93 197.37 40.04 197.77 40.13 198.17 40.22 198.57 40.3 198.97 40.37 199.37 40.43 199.77 40.48 200.16 40.52 200.55 40.55 200.94 40.57 201.33 40.59 201.71 40.59 202.09 40.59 202.48 40.57 202.87 40.55 203.26 40.52 203.66 40.48 204.05 40.43 204.45 40.37 204.85 40.3 205.25 40.22 205.65 40.13 206.05 40.04 206.46 39.93 206.86 39.8 207.26 39.67 207.66 39.53 208.06 39.38 208.46 39.22 208.85 39.04 209.24 38.86 209.63 38.66 210.02 38.46 210.4 38.24 210.78 38.02 211.15 37.78 211.51 37.53 211.88 37.28 212.23 37.01 212.58 36.73 212.92 36.45 213.26 36.16 213.59 35.85 213.9 35.54 214.22 35.22 214.52 34.89 214.81 34.56 215.1 34.22 215.37 33.87 215.64 33.51 215.9 33.15 216.14 32.78 216.38 32.41 216.61 32.03 216.82 31.65 217.03 31.27 217.22 30.88 217.41 30.49 217.58 30.09 217.74 29.7 217.9 29.3 218.04 28.9 218.17 28.49 218.29 28.09 218.4 27.69 218.5 27.29 218.59 26.89 218.67 26.48 218.74 26.09 218.8 25.69 218.84 25.29 218.88 24.9 218.92 24.5 218.94 24.12 218.95 23.73 218.96 23.35 218.95 22.79 218.92 22.21 218.87 21.64 218.8 21.06 218.71 20.48 218.6 19.89 218.54 19.59 218.47 19.3 218.4 19 218.32 18.71 218.23 18.41 218.14 18.12 218.05 17.82 217.94 17.53 217.84 17.24 217.72 16.95 217.6 16.66 217.48 16.36 217.35 16.08 217.21 15.79 217.07 15.5 216.92 15.22 216.77 14.94 216.61 14.66 216.44 14.38 216.27 14.11 221.42 10.84 221.66 11.21 221.88 11.58 222.09 11.96 222.3 12.34 222.5 12.73 222.7 13.11 222.88 13.5 223.06 13.89 223.23 14.29 223.39 14.68 223.54 15.08 223.69 15.47 223.83 15.87 223.96 16.27 224.08 16.67 224.2 17.07 224.31 17.47 224.41 17.87 224.5 18.27 224.58 18.66 224.73 19.46 224.85 20.25 224.94 21.04 225.01 21.82 225.05 22.59 225.06 23.35 225.05 23.87 225.03 24.39 225.01 24.91 224.96 25.45 224.91 25.98 224.84 26.52 224.76 27.05 224.67 27.6 224.56 28.14 224.44 28.68 224.31 29.23 224.16 29.77 223.99 30.32 223.82 30.86 223.63 31.4 223.42 31.94 223.2 32.48 222.96 33.01 222.71 33.54 222.45 34.07 222.17 34.59 221.88 35.11 221.57 35.62 221.25 36.12 220.92 36.62 220.57 37.11 220.21 37.59 219.84 38.06 219.45 38.53 219.05 38.98 218.64 39.42 218.22 39.86 217.79 40.28 217.34 40.69 216.89 41.09 216.43 41.47 215.95 41.85 215.47 42.21 214.98 42.55 214.49 42.89 213.98 43.21 213.47 43.52 212.96 43.81 212.43 44.09 211.91 44.35 211.38 44.6 210.84 44.84 210.31 45.05 209.76 45.26 209.22 45.45 208.68 45.63 208.13 45.79 207.59 45.94 207.05 46.08 206.5 46.2 205.96 46.3 205.42 46.4 204.88 46.48 204.34 46.55 203.81 46.6 203.28 46.64 202.75 46.67 202.23 46.69 201.71 46.7 201.19 46.69 200.67 46.67 200.14 46.64 199.61 46.6 199.08 46.55 198.54 46.48 198 46.4 197.46 46.3 196.92 46.2 196.38 46.08 195.83 45.94 195.29 45.79 194.74 45.63 194.2 45.45 193.66 45.26 193.12 45.05 192.58 44.84 192.04 44.6 191.51 44.35 190.99 44.09 190.47 43.81 189.95 43.52 189.44 43.21 188.94 42.89 188.44 42.55 187.95 42.21 187.47 41.85 187 41.47 186.53 41.09 186.08 40.69 185.63 40.28 185.2 39.86 184.78 39.42 184.37 38.98 183.97 38.53 183.59 38.06 183.21 37.59 182.85 37.11 182.5 36.62 182.17 36.12 181.85 35.62 181.54 35.11 181.25 34.59 180.97 34.07 180.71 33.54 180.46 33.01 180.22 32.48 180 31.94 179.8 31.4 179.6 30.86 179.43 30.32 179.26 29.77 179.12 29.23 178.98 28.68 178.86 28.14 178.75 27.6 178.66 27.05 178.58 26.52 178.51 25.98 178.46 25.45 178.42 24.91 178.39 24.39 178.37 23.87 178.36 23.35 178.37 22.83 178.39 22.31 178.42 21.78 178.46 21.25 178.51 20.72 178.58 20.18 178.66 19.64 178.75 19.1 178.86 18.56 178.98 18.01 179.12 17.47 179.26 16.92 179.43 16.38 179.6 15.84 179.8 15.29 180 14.75 180.22 14.22 180.46 13.68 180.71 13.15 180.97 12.62 181.25 12.1 181.54 11.59 181.85 11.07 182.17 10.57 182.5 10.07 182.85 9.59 183.21 9.1 183.59 8.63 183.97 8.17 184.37 7.71 184.78 7.27 185.2 6.84 185.63 6.42 186.08 6.01 186.53 5.61 187 5.22 187.47 4.85 187.95 4.49 188.44 4.14 188.94 3.81 189.44 3.48 189.95 3.18 190.47 2.89 190.99 2.61 191.51 2.34 192.04 2.1 192.58 1.86 193.12 1.64 193.66 1.43 194.2 1.24 194.74 1.06 195.29 0.9 195.83 0.75 196.38 0.62 196.92 0.5 197.46 0.39 198 0.3 198.54 0.22 199.08 0.15 199.61 0.09 200.14 0.05 200.67 0.02 201.19 0.01 201.71 0 201.71 6.1"/></g><g id="HATCH-2" data-name="HATCH"><polygon class="cls-4" points="142.28 6.1 141.85 6.11 141.43 6.12 141 6.15 140.59 6.19 140.17 6.23 139.76 6.29 139.35 6.35 138.95 6.43 138.56 6.51 138.16 6.6 137.78 6.7 137.4 6.81 137.02 6.92 136.65 7.05 136.29 7.18 135.93 7.31 135.57 7.46 135.22 7.61 134.87 7.78 134.51 7.95 134.16 8.13 133.81 8.32 133.46 8.53 133.12 8.74 132.77 8.96 132.43 9.19 132.09 9.43 131.76 9.68 131.43 9.94 131.11 10.21 130.79 10.49 130.47 10.78 130.16 11.07 129.86 11.38 129.56 11.7 129.27 12.02 128.99 12.35 128.72 12.7 128.45 13.04 128.19 13.4 127.94 13.77 127.7 14.14 127.47 14.52 127.24 14.9 127.03 15.29 126.83 15.69 126.63 16.09 126.45 16.5 126.28 16.91 126.12 17.33 125.97 17.75 125.83 18.17 125.7 18.6 125.58 19.02 125.48 19.45 125.38 19.89 125.3 20.32 125.23 20.75 125.17 21.19 125.12 21.62 125.08 22.06 125.05 22.49 125.04 22.92 125.03 23.35 125.04 23.77 125.05 24.2 125.08 24.62 125.11 25.04 125.16 25.45 125.22 25.86 125.28 26.27 125.36 26.67 125.44 27.07 125.53 27.46 125.63 27.85 125.74 28.23 125.85 28.61 125.98 28.97 126.11 29.34 126.24 29.7 126.39 30.05 126.54 30.4 126.7 30.76 126.88 31.11 127.06 31.46 127.25 31.81 127.45 32.16 127.67 32.51 127.89 32.85 128.12 33.19 128.36 33.53 128.61 33.86 128.87 34.19 129.14 34.52 129.42 34.84 129.71 35.15 130 35.46 130.31 35.76 130.63 36.06 130.95 36.35 131.28 36.63 131.62 36.91 131.97 37.17 132.33 37.43 132.69 37.68 133.07 37.93 133.44 38.16 133.83 38.38 134.22 38.59 134.62 38.8 135.02 38.99 135.43 39.17 135.84 39.34 136.26 39.51 136.68 39.66 137.1 39.8 137.53 39.92 137.95 40.04 138.38 40.15 138.82 40.24 139.25 40.32 139.68 40.4 140.12 40.46 140.55 40.51 140.98 40.54 141.42 40.57 141.85 40.59 142.28 40.59 142.7 40.59 143.13 40.57 143.55 40.54 143.97 40.51 144.38 40.46 144.79 40.41 145.2 40.34 145.6 40.27 146 40.19 146.39 40.09 146.78 39.99 147.16 39.89 147.53 39.77 147.9 39.65 148.27 39.52 148.62 39.38 148.99 39.23 149.36 39.07 149.73 38.9 150.09 38.72 150.46 38.53 150.82 38.33 151.18 38.11 151.54 37.89 151.9 37.66 152.25 37.42 152.6 37.16 152.94 36.9 153.28 36.62 153.62 36.34 153.94 36.04 154.27 35.74 154.59 35.42 154.9 35.1 155.2 34.77 155.49 34.42 155.78 34.07 156.06 33.71 156.33 33.34 156.59 32.96 156.84 32.58 157.08 32.18 157.31 31.78 157.54 31.38 157.75 30.96 157.94 30.55 158.13 30.12 158.31 29.7 163.98 31.94 163.82 32.34 163.65 32.75 163.47 33.15 163.28 33.55 163.08 33.94 162.88 34.33 162.66 34.72 162.44 35.11 162.22 35.49 161.98 35.87 161.74 36.25 161.48 36.62 161.22 36.99 160.96 37.35 160.68 37.71 160.4 38.06 160.11 38.41 159.82 38.76 159.51 39.09 159.21 39.42 158.89 39.75 158.57 40.07 158.24 40.38 157.91 40.69 157.57 40.99 157.22 41.28 156.87 41.57 156.52 41.85 156.16 42.12 155.79 42.38 155.43 42.64 155.05 42.89 154.67 43.13 154.29 43.36 153.91 43.59 153.52 43.81 153.13 44.02 152.74 44.22 152.34 44.41 151.94 44.6 151.54 44.78 151.14 44.95 150.74 45.11 150.33 45.26 149.92 45.41 149.52 45.54 149.11 45.67 148.7 45.79 148.29 45.91 147.88 46.01 147.47 46.11 147.07 46.2 146.66 46.28 146.25 46.35 145.85 46.42 145.44 46.48 144.64 46.58 143.84 46.64 143.06 46.68 142.28 46.7 141.76 46.69 141.24 46.67 140.71 46.64 140.18 46.6 139.65 46.55 139.11 46.48 138.57 46.4 138.03 46.3 137.49 46.2 136.94 46.08 136.4 45.94 135.85 45.79 135.31 45.63 134.76 45.45 134.22 45.26 133.68 45.05 133.15 44.84 132.61 44.6 132.08 44.35 131.55 44.09 131.03 43.81 130.51 43.52 130 43.21 129.5 42.89 129 42.55 128.51 42.21 128.03 41.85 127.56 41.47 127.1 41.09 126.64 40.69 126.2 40.28 125.77 39.86 125.34 39.42 124.94 38.98 124.54 38.53 124.15 38.06 123.78 37.59 123.42 37.11 123.07 36.62 122.73 36.12 122.41 35.62 122.11 35.11 121.81 34.59 121.54 34.07 121.27 33.54 121.02 33.01 120.79 32.48 120.57 31.94 120.36 31.4 120.17 30.86 119.99 30.32 119.83 29.77 119.68 29.23 119.55 28.68 119.43 28.14 119.32 27.6 119.22 27.05 119.14 26.52 119.08 25.98 119.02 25.45 118.98 24.91 118.95 24.39 118.93 23.87 118.93 23.35 118.93 22.83 118.95 22.31 118.98 21.78 119.02 21.25 119.08 20.72 119.14 20.18 119.22 19.64 119.32 19.1 119.43 18.56 119.55 18.01 119.68 17.47 119.83 16.92 119.99 16.38 120.17 15.84 120.36 15.29 120.57 14.75 120.79 14.22 121.02 13.68 121.27 13.15 121.54 12.62 121.81 12.1 122.11 11.59 122.41 11.07 122.73 10.57 123.07 10.07 123.42 9.59 123.78 9.1 124.15 8.63 124.54 8.17 124.94 7.71 125.34 7.27 125.77 6.84 126.2 6.42 126.64 6.01 127.1 5.61 127.56 5.22 128.03 4.85 128.51 4.49 129 4.14 129.5 3.81 130 3.48 130.51 3.18 131.03 2.89 131.55 2.61 132.08 2.34 132.61 2.1 133.15 1.86 133.68 1.64 134.22 1.43 134.76 1.24 135.31 1.06 135.85 0.9 136.4 0.75 136.94 0.62 137.49 0.5 138.03 0.39 138.57 0.3 139.11 0.22 139.65 0.15 140.18 0.09 140.71 0.05 141.24 0.02 141.76 0.01 142.28 0 142.28 6.1"/></g><g id="HATCH-3" data-name="HATCH"><polygon class="cls-4" points="103.3 12.1 103.66 12.79 104 13.48 104.31 14.18 104.6 14.89 104.86 15.6 105.1 16.31 105.32 17.02 105.5 17.74 105.67 18.45 105.81 19.17 105.93 19.88 106.02 20.58 106.1 21.28 106.15 21.98 106.18 22.67 106.19 23.35 106.18 23.87 106.17 24.39 106.14 24.91 106.09 25.45 106.04 25.98 105.97 26.52 105.89 27.05 105.8 27.6 105.69 28.14 105.57 28.68 105.44 29.23 105.29 29.77 105.12 30.32 104.95 30.86 104.75 31.4 104.55 31.94 104.33 32.48 104.09 33.01 103.84 33.54 103.58 34.07 103.3 34.59 103.01 35.11 102.7 35.62 102.38 36.12 102.05 36.62 101.7 37.11 101.34 37.59 100.97 38.06 100.58 38.53 100.18 38.98 99.77 39.42 99.35 39.86 98.92 40.28 98.47 40.69 98.02 41.09 97.56 41.47 97.08 41.85 96.6 42.21 96.11 42.55 95.62 42.89 95.11 43.21 94.6 43.52 94.09 43.81 93.56 44.09 93.04 44.35 92.51 44.6 91.97 44.84 91.44 45.05 90.89 45.26 90.35 45.45 89.81 45.63 89.27 45.79 88.72 45.94 88.18 46.08 87.63 46.2 87.09 46.3 86.55 46.4 86.01 46.48 85.47 46.55 84.94 46.6 84.41 46.64 83.88 46.67 83.36 46.69 82.84 46.7 82.32 46.69 81.8 46.67 81.27 46.64 80.74 46.6 80.21 46.55 79.67 46.48 79.13 46.4 78.59 46.3 78.05 46.2 77.51 46.08 76.96 45.94 76.42 45.79 75.87 45.63 75.33 45.45 74.79 45.26 74.25 45.05 73.71 44.84 73.17 44.6 72.64 44.35 72.12 44.09 71.6 43.81 71.08 43.52 70.57 43.21 70.06 42.89 69.57 42.55 69.08 42.21 68.6 41.85 68.13 41.47 67.66 41.09 67.21 40.69 66.77 40.28 66.33 39.86 65.91 39.42 65.5 38.98 65.1 38.53 64.72 38.06 64.34 37.59 63.98 37.11 63.63 36.62 63.3 36.12 62.98 35.62 62.67 35.11 62.38 34.59 62.1 34.07 61.84 33.54 61.59 33.01 61.35 32.48 61.13 31.94 60.93 31.4 60.73 30.86 60.56 30.32 60.4 29.77 60.25 29.23 60.11 28.68 59.99 28.14 59.88 27.6 59.79 27.05 59.71 26.52 59.64 25.98 59.59 25.45 59.55 24.91 59.52 24.39 59.5 23.87 59.49 23.35 59.5 22.83 59.52 22.31 59.55 21.78 59.59 21.25 59.64 20.72 59.71 20.18 59.79 19.64 59.88 19.1 59.99 18.56 60.11 18.01 60.25 17.47 60.4 16.92 60.56 16.38 60.73 15.84 60.93 15.29 61.13 14.75 61.35 14.22 61.59 13.68 61.84 13.15 62.1 12.62 62.38 12.1 62.67 11.59 62.98 11.07 63.3 10.57 63.63 10.07 63.98 9.59 64.34 9.1 64.72 8.63 65.1 8.17 65.5 7.71 65.91 7.27 66.33 6.84 66.77 6.42 67.21 6.01 67.66 5.61 68.13 5.22 68.6 4.85 69.08 4.49 69.57 4.14 70.06 3.81 70.57 3.48 71.08 3.18 71.6 2.89 72.12 2.61 72.64 2.34 73.17 2.1 73.71 1.86 74.25 1.64 74.79 1.43 75.33 1.24 75.87 1.06 76.42 0.9 76.96 0.75 77.51 0.62 78.05 0.5 78.59 0.39 79.13 0.3 79.67 0.22 80.21 0.15 80.74 0.09 81.27 0.05 81.8 0.02 82.32 0.01 82.84 0 82.84 6.1 82.48 6.11 82.12 6.12 81.77 6.14 81.41 6.16 81.06 6.2 80.7 6.24 80.35 6.28 80 6.34 79.66 6.4 79.31 6.47 78.97 6.54 78.64 6.62 78.3 6.71 77.97 6.81 77.64 6.91 77.31 7.01 76.99 7.13 76.68 7.24 76.36 7.37 76.06 7.5 75.75 7.63 75.45 7.77 75.15 7.91 74.86 8.06 74.58 8.21 74.29 8.37 74.02 8.53 73.74 8.7 73.48 8.87 73.22 9.04 72.96 9.22 72.7 9.4 72.4 9.63 72.09 9.86 71.79 10.11 71.49 10.36 71.2 10.63 70.91 10.9 70.62 11.18 70.34 11.47 70.06 11.77 69.79 12.08 69.52 12.4 69.26 12.72 69 13.06 68.76 13.4 68.52 13.75 68.28 14.11 68.06 14.47 67.84 14.85 67.63 15.22 67.43 15.61 67.24 16 67.06 16.4 66.89 16.81 66.72 17.22 66.57 17.63 66.43 18.05 66.3 18.48 66.18 18.91 66.07 19.34 65.97 19.77 65.89 20.21 65.81 20.65 65.75 21.09 65.69 21.54 65.65 21.98 65.62 22.42 65.6 22.87 65.6 23.31 65.6 23.75 65.62 24.2 65.64 24.64 65.68 25.07 65.73 25.51 65.79 25.94 65.86 26.37 65.95 26.8 66.04 27.22 66.14 27.64 66.25 28.05 66.37 28.46 66.5 28.86 66.64 29.25 66.79 29.64 66.94 30.03 67.11 30.41 67.28 30.77 67.46 31.14 67.64 31.5 67.84 31.85 68.04 32.19 68.24 32.52 68.45 32.85 68.67 33.17 68.89 33.48 69.12 33.79 69.36 34.09 69.6 34.4 69.86 34.7 70.12 34.99 70.39 35.28 70.68 35.57 70.97 35.85 71.27 36.13 71.58 36.4 71.89 36.67 72.22 36.93 72.55 37.19 72.89 37.43 73.24 37.67 73.6 37.91 73.97 38.13 74.34 38.35 74.72 38.56 75.1 38.76 75.5 38.95 75.9 39.13 76.3 39.3 76.71 39.47 77.13 39.62 77.55 39.76 77.97 39.89 78.4 40.01 78.83 40.12 79.27 40.22 79.7 40.3 80.14 40.38 80.58 40.44 81.03 40.5 81.47 40.54 81.92 40.57 82.36 40.59 82.81 40.59 83.25 40.59 83.69 40.57 84.13 40.54 84.57 40.5 85 40.45 85.44 40.4 85.87 40.32 86.29 40.24 86.71 40.15 87.13 40.05 87.54 39.94 87.95 39.82 88.35 39.69 88.75 39.55 89.14 39.4 89.52 39.24 89.9 39.08 90.27 38.91 90.63 38.73 90.99 38.54 91.34 38.35 91.68 38.15 92.02 37.95 92.34 37.74 92.67 37.52 92.98 37.3 93.26 37.09 93.54 36.87 93.81 36.65 94.09 36.42 94.36 36.18 94.63 35.94 94.89 35.68 95.15 35.42 95.41 35.16 95.66 34.88 95.91 34.6 96.15 34.31 96.39 34.01 96.63 33.71 96.85 33.4 97.08 33.08 97.29 32.76 97.5 32.43 97.7 32.09 97.9 31.75 98.09 31.4 98.27 31.05 98.44 30.69 98.61 30.32 98.77 29.96 98.92 29.58 99.06 29.2 99.19 28.82 99.32 28.44 99.43 28.05 99.54 27.66 99.64 27.26 99.72 26.86 99.8 26.46 99.87 26.06 99.93 25.66 99.98 25.25 100.02 24.85 100.05 24.44 100.07 24.04 100.08 23.63 100.08 23.22 100.08 22.82 100.06 22.42 100.03 22.02 100 21.61 99.95 21.22 99.9 20.82 99.84 20.43 99.77 20.04 99.68 19.65 99.6 19.27 99.5 18.89 99.39 18.52 99.28 18.15 99.16 17.78 99.03 17.42 98.9 17.06 98.76 16.71 98.61 16.37 98.45 16.03 98.29 15.69 98.13 15.36 97.95 15.04 103.3 12.1"/></g><g id="HATCH-4" data-name="HATCH"><polygon class="cls-4" points="46.71 24.81 46.67 25.32 46.62 25.83 46.56 26.34 46.49 26.86 46.4 27.37 46.31 27.89 46.2 28.41 46.08 28.93 45.94 29.45 45.79 29.97 45.63 30.49 45.46 31.01 45.27 31.53 45.07 32.05 44.86 32.56 44.63 33.07 44.39 33.58 44.14 34.08 43.87 34.58 43.59 35.07 43.3 35.56 43 36.04 42.68 36.52 42.35 36.99 42.01 37.45 41.66 37.91 41.29 38.35 40.92 38.79 40.53 39.22 40.13 39.64 39.72 40.05 39.3 40.45 38.88 40.83 38.44 41.21 37.99 41.58 37.54 41.93 37.08 42.27 36.61 42.6 36.13 42.92 35.65 43.23 35.16 43.52 34.67 43.8 34.17 44.06 33.67 44.32 33.16 44.56 32.65 44.79 32.14 45 31.62 45.2 31.1 45.39 30.58 45.56 30.06 45.73 29.54 45.87 29.02 46.01 28.5 46.13 27.98 46.24 27.46 46.34 26.95 46.42 26.43 46.5 25.92 46.56 25.41 46.61 24.9 46.65 24.4 46.67 23.9 46.69 23.41 46.7 22.89 46.69 22.36 46.67 21.84 46.64 21.31 46.6 20.77 46.55 20.24 46.48 19.7 46.4 19.16 46.3 18.61 46.2 18.07 46.08 17.53 45.94 16.98 45.79 16.44 45.63 15.89 45.45 15.35 45.26 14.81 45.05 14.27 44.84 13.74 44.6 13.21 44.35 12.68 44.09 12.16 43.81 11.64 43.52 11.13 43.21 10.63 42.89 10.13 42.55 9.64 42.21 9.16 41.85 8.69 41.47 8.23 41.09 7.77 40.69 7.33 40.28 6.9 39.86 6.47 39.42 6.07 38.98 5.67 38.53 5.28 38.06 4.91 37.59 4.55 37.11 4.2 36.62 3.86 36.12 3.54 35.62 3.24 35.11 2.94 34.59 2.67 34.07 2.4 33.54 2.15 33.01 1.92 32.48 1.7 31.94 1.49 31.4 1.3 30.86 1.12 30.32 0.96 29.77 0.81 29.23 0.68 28.68 0.56 28.14 0.45 27.6 0.35 27.05 0.27 26.52 0.21 25.98 0.15 25.45 0.11 24.91 0.08 24.39 0.06 23.87 0.06 23.35 0.06 22.83 0.08 22.31 0.11 21.78 0.15 21.25 0.21 20.72 0.27 20.18 0.35 19.64 0.45 19.1 0.56 18.56 0.68 18.01 0.81 17.47 0.96 16.92 1.12 16.38 1.3 15.84 1.49 15.29 1.7 14.75 1.92 14.22 2.15 13.68 2.4 13.15 2.67 12.62 2.94 12.1 3.24 11.59 3.54 11.07 3.86 10.57 4.2 10.07 4.55 9.59 4.91 9.1 5.28 8.63 5.67 8.17 6.07 7.71 6.47 7.27 6.9 6.84 7.33 6.42 7.77 6.01 8.23 5.61 8.69 5.22 9.16 4.85 9.64 4.49 10.13 4.14 10.63 3.81 11.13 3.48 11.64 3.18 12.16 2.89 12.68 2.61 13.21 2.34 13.74 2.1 14.27 1.86 14.81 1.64 15.35 1.43 15.89 1.24 16.44 1.06 16.98 0.9 17.53 0.75 18.07 0.62 18.61 0.5 19.16 0.39 19.7 0.3 20.24 0.22 20.77 0.15 21.31 0.09 21.84 0.05 22.36 0.02 22.89 0.01 23.41 0 23.41 6.1 23.02 6.11 22.64 6.12 22.25 6.14 21.86 6.17 21.46 6.21 21.07 6.26 20.67 6.32 20.27 6.39 19.87 6.47 19.47 6.56 19.06 6.66 18.66 6.77 18.26 6.89 17.86 7.02 17.46 7.16 17.06 7.31 16.66 7.48 16.27 7.65 15.88 7.83 15.49 8.03 15.1 8.23 14.72 8.45 14.34 8.68 13.97 8.91 13.6 9.16 13.24 9.42 12.89 9.68 12.54 9.96 12.2 10.24 11.86 10.54 11.53 10.84 11.21 11.15 10.9 11.47 10.6 11.8 10.3 12.14 10.02 12.48 9.74 12.83 9.48 13.18 9.22 13.54 8.97 13.91 8.74 14.28 8.51 14.66 8.29 15.04 8.09 15.43 7.89 15.82 7.71 16.21 7.54 16.6 7.37 17 7.22 17.4 7.08 17.8 6.95 18.2 6.83 18.6 6.72 19 6.62 19.41 6.53 19.81 6.45 20.21 6.38 20.61 6.32 21.01 6.27 21.4 6.23 21.8 6.2 22.19 6.18 22.58 6.17 22.96 6.16 23.35 6.17 23.73 6.18 24.12 6.2 24.5 6.23 24.9 6.27 25.29 6.32 25.69 6.38 26.09 6.45 26.48 6.53 26.89 6.62 27.29 6.72 27.69 6.83 28.09 6.95 28.49 7.08 28.9 7.22 29.3 7.37 29.7 7.54 30.09 7.71 30.49 7.89 30.88 8.09 31.27 8.29 31.65 8.51 32.03 8.74 32.41 8.97 32.78 9.22 33.15 9.48 33.51 9.74 33.87 10.02 34.22 10.3 34.56 10.6 34.89 10.9 35.22 11.21 35.54 11.53 35.85 11.86 36.16 12.2 36.45 12.54 36.73 12.89 37.01 13.24 37.28 13.6 37.53 13.97 37.78 14.34 38.02 14.72 38.24 15.1 38.46 15.49 38.66 15.88 38.86 16.27 39.04 16.66 39.22 17.06 39.38 17.46 39.53 17.86 39.67 18.26 39.8 18.66 39.93 19.06 40.04 19.47 40.13 19.87 40.22 20.27 40.3 20.67 40.37 21.07 40.43 21.46 40.48 21.86 40.52 22.25 40.55 22.64 40.57 23.02 40.59 23.41 40.59 23.77 40.59 24.14 40.58 24.51 40.56 24.89 40.53 25.26 40.49 25.64 40.45 26.02 40.39 26.4 40.33 26.79 40.26 27.17 40.17 27.55 40.09 27.94 39.98 28.32 39.88 28.71 39.76 29.09 39.63 29.47 39.49 29.85 39.34 30.23 39.18 30.61 39.01 30.98 38.84 31.36 38.65 31.73 38.45 32.09 38.24 32.45 38.03 32.81 37.8 33.16 37.57 33.5 37.33 33.84 37.07 34.18 36.81 34.51 36.54 34.83 36.26 35.15 35.98 35.46 35.68 35.76 35.38 36.05 35.07 36.34 34.75 36.62 34.43 36.89 34.1 37.15 33.77 37.4 33.42 37.64 33.08 37.88 32.73 38.1 32.37 38.32 32.01 38.52 31.64 38.72 31.27 38.91 30.9 39.08 30.53 39.25 30.15 39.41 29.77 39.56 29.39 39.69 29.01 39.82 28.63 39.94 28.24 40.05 27.86 40.15 27.47 40.24 27.09 40.32 26.7 40.39 26.32 40.45 25.94 40.51 25.56 40.55 25.18 40.59 24.8 40.62 24.43 46.71 24.81"/></g><g id="HATCH-5" data-name="HATCH"><polygon class="cls-5" points="23.41 0 23.92 0.01 24.45 0.02 24.97 0.05 25.5 0.09 26.04 0.15 26.57 0.22 27.11 0.3 27.65 0.39 28.2 0.5 28.74 0.62 29.29 0.75 29.83 0.9 30.37 1.06 30.92 1.24 31.46 1.43 32 1.64 32.54 1.86 33.07 2.1 33.6 2.34 34.13 2.61 34.65 2.89 35.17 3.18 35.68 3.48 36.18 3.81 36.68 4.14 37.17 4.49 37.65 4.85 38.12 5.22 38.59 5.61 39.04 6.01 39.48 6.42 39.91 6.84 40.34 7.27 40.75 7.71 41.15 8.17 41.53 8.63 41.91 9.1 42.27 9.59 42.61 10.07 42.95 10.57 43.27 11.07 43.57 11.59 43.87 12.1 44.15 12.62 44.41 13.15 44.66 13.68 44.89 14.22 45.11 14.75 45.32 15.29 45.51 15.84 45.69 16.38 45.85 16.92 46 17.47 46.13 18.01 46.26 18.56 46.36 19.1 46.46 19.64 46.54 20.18 46.6 20.72 46.66 21.25 46.7 21.78 46.73 22.31 46.75 22.83 46.75 23.35 46.74 24.08 46.71 24.81 40.62 24.43 40.64 23.89 40.65 23.35 40.65 22.96 40.63 22.58 40.61 22.19 40.58 21.8 40.54 21.4 40.49 21.01 40.43 20.61 40.36 20.21 40.28 19.81 40.19 19.41 40.09 19 39.98 18.6 39.86 18.2 39.73 17.8 39.59 17.4 39.44 17 39.28 16.6 39.1 16.21 38.92 15.82 38.72 15.43 38.52 15.04 38.3 14.66 38.08 14.28 37.84 13.91 37.59 13.54 37.34 13.18 37.07 12.83 36.79 12.48 36.51 12.14 36.21 11.8 35.91 11.47 35.6 11.15 35.28 10.84 34.95 10.54 34.62 10.24 34.27 9.96 33.93 9.68 33.57 9.42 33.21 9.16 32.84 8.91 32.47 8.68 32.09 8.45 31.71 8.23 31.33 8.03 30.94 7.83 30.55 7.65 30.15 7.48 29.75 7.31 29.35 7.16 28.95 7.02 28.55 6.89 28.15 6.77 27.75 6.66 27.35 6.56 26.94 6.47 26.54 6.39 26.14 6.32 25.75 6.26 25.35 6.21 24.95 6.17 24.56 6.14 24.18 6.12 23.79 6.11 23.41 6.1 23.41 0"/></g><g id="HATCH-6" data-name="HATCH" class="cls-6"><polygon class="cls-5" points="96.79 13.21 96.52 12.85 96.23 12.48 95.94 12.13 95.62 11.77 95.3 11.43 94.97 11.09 94.62 10.75 94.25 10.42 93.88 10.1 93.5 9.79 93.1 9.49 92.69 9.19 92.27 8.91 91.84 8.64 91.4 8.38 90.95 8.13 90.49 7.89 90.02 7.67 89.54 7.46 89.05 7.26 88.56 7.08 88.06 6.91 87.55 6.76 87.04 6.62 86.53 6.5 86 6.4 85.48 6.31 84.95 6.23 84.43 6.18 83.9 6.14 83.37 6.11 82.84 6.1 82.84 0 83.54 0.01 84.24 0.04 84.95 0.1 85.67 0.17 86.4 0.27 87.12 0.4 87.85 0.54 88.58 0.72 89.31 0.92 90.05 1.14 90.78 1.39 91.5 1.67 92.22 1.97 92.94 2.3 93.64 2.65 94.34 3.03 95.03 3.44 95.71 3.87 96.37 4.32 97.02 4.8 97.66 5.3 98.28 5.83 98.87 6.38 99.45 6.94 100.02 7.53 100.55 8.14 101.07 8.76 101.57 9.4 102.04 10.06 102.48 10.73 102.9 11.41 103.3 12.1 97.95 15.04 97.68 14.56 97.39 14.1 97.1 13.65 96.79 13.21"/></g><g id="HATCH-7" data-name="HATCH"><polygon class="cls-5" points="158.31 17 158.09 16.47 157.85 15.94 157.58 15.41 157.3 14.88 157.15 14.62 156.99 14.36 156.83 14.1 156.66 13.84 156.49 13.59 156.31 13.34 156.13 13.08 155.94 12.83 155.75 12.59 155.55 12.34 155.34 12.1 155.13 11.86 154.92 11.62 154.7 11.39 154.47 11.16 154.24 10.93 154.01 10.71 153.77 10.49 153.52 10.27 153.27 10.06 153.01 9.86 152.75 9.65 152.49 9.45 152.22 9.26 151.95 9.07 151.67 8.89 151.39 8.71 151.11 8.54 150.82 8.37 150.53 8.21 150.23 8.05 149.93 7.9 149.63 7.75 149.33 7.61 149.02 7.48 148.71 7.35 148.4 7.23 148.09 7.11 147.77 7 147.45 6.9 147.13 6.8 146.81 6.71 146.49 6.63 146.17 6.55 145.84 6.48 145.52 6.41 145.19 6.35 144.87 6.3 144.54 6.25 144.22 6.21 143.89 6.18 143.57 6.15 143.24 6.13 142.92 6.12 142.6 6.11 142.28 6.1 142.28 0 142.79 0.01 143.32 0.02 143.84 0.05 144.37 0.09 144.91 0.15 145.44 0.22 145.98 0.3 146.52 0.39 147.07 0.5 147.61 0.62 148.16 0.75 148.7 0.9 149.25 1.06 149.79 1.24 150.33 1.43 150.87 1.64 151.41 1.86 151.94 2.1 152.47 2.34 153 2.61 153.52 2.89 154.04 3.18 154.55 3.48 155.05 3.81 155.55 4.14 156.04 4.49 156.52 4.85 156.99 5.22 157.46 5.61 157.91 6.01 158.35 6.42 158.78 6.84 159.21 7.27 159.62 7.71 160.02 8.17 160.4 8.63 160.78 9.1 161.14 9.59 161.48 10.07 161.82 10.57 162.14 11.07 162.44 11.59 162.74 12.1 163.01 12.62 163.28 13.15 163.53 13.68 163.76 14.22 163.98 14.75 164.19 15.29 164.38 15.84 164.56 16.38 164.72 16.92 164.87 17.47 165.01 18.01 165.13 18.56 165.23 19.1 165.33 19.64 165.41 20.18 165.47 20.72 165.53 21.25 165.57 21.78 165.6 22.31 165.62 22.83 165.62 23.35 165.62 23.87 165.6 24.39 165.57 24.91 165.53 25.45 165.47 25.98 165.41 26.52 165.33 27.05 165.23 27.6 165.13 28.14 165.01 28.68 164.87 29.23 164.72 29.77 164.56 30.32 164.38 30.86 164.19 31.4 163.98 31.94 158.31 29.7 158.46 29.29 158.6 28.89 158.74 28.48 158.86 28.07 158.97 27.66 159.07 27.25 159.16 26.83 159.25 26.41 159.31 26 159.38 25.58 159.42 25.16 159.46 24.74 159.49 24.33 159.51 23.91 159.52 23.5 159.52 23.09 159.51 22.68 159.49 22.27 159.46 21.87 159.42 21.47 159.37 21.07 159.31 20.68 159.25 20.29 159.17 19.9 159.09 19.52 159 19.14 158.9 18.77 158.8 18.41 158.69 18.05 158.57 17.69 158.44 17.34 158.31 17"/></g><g id="HATCH-8" data-name="HATCH" class="cls-6"><polygon class="cls-5" points="201.71 0 202.37 0.01 203.03 0.04 203.7 0.09 204.38 0.15 205.06 0.24 205.74 0.35 206.43 0.48 207.12 0.64 207.81 0.81 208.5 1.01 209.19 1.23 209.87 1.47 210.56 1.74 211.23 2.03 211.91 2.34 212.57 2.68 213.23 3.04 213.88 3.42 214.52 3.83 215.15 4.25 215.76 4.7 216.36 5.17 216.95 5.66 217.52 6.17 218.08 6.7 218.61 7.24 219.13 7.8 219.63 8.38 220.11 8.97 220.57 9.58 221.01 10.2 221.42 10.84 216.27 14.11 215.96 13.64 215.64 13.18 215.3 12.73 214.95 12.29 214.58 11.87 214.19 11.45 213.8 11.05 213.39 10.66 212.97 10.28 212.53 9.92 212.09 9.58 211.63 9.24 211.17 8.93 210.7 8.63 210.22 8.35 209.73 8.08 209.24 7.83 208.75 7.6 208.24 7.39 207.74 7.19 207.23 7.01 206.72 6.85 206.21 6.7 205.71 6.57 205.2 6.46 204.69 6.36 204.18 6.28 203.68 6.22 203.18 6.17 202.69 6.13 202.2 6.11 201.71 6.1 201.71 0"/></g></svg>