<svg id="Layer_1" data-name="Layer 1" xmlns="http://www.w3.org/2000/svg" viewBox="0 0 224.82 46.69"><defs><style>.cls-1{font-size:10px;font-family:CooperHewitt-Bold, Cooper Hewitt;font-weight:700;}.cls-1,.cls-4{fill:#005488;}.cls-2{fill:#e6e6e5;}.cls-2,.cls-4{fill-rule:evenodd;}.cls-3{opacity:0.6;}.cls-5{opacity:0.8;}</style></defs><text class="cls-1" transform="translate(15.45 26.9)">WV</text><text class="cls-1" transform="translate(74.9 27.05)">WS</text><text class="cls-1" transform="translate(134.66 26.9)">WE</text><text class="cls-1" transform="translate(193.9 26.9)">WP</text><g id="HATCH"><polygon class="cls-2" points="201.65 6.1 201.26 6.11 200.88 6.12 200.49 6.14 200.1 6.17 199.7 6.21 199.31 6.26 198.91 6.32 198.51 6.39 198.11 6.47 197.71 6.56 197.3 6.66 196.9 6.77 196.5 6.89 196.1 7.02 195.7 7.16 195.3 7.31 194.9 7.48 194.51 7.65 194.12 7.83 193.73 8.03 193.34 8.23 192.96 8.45 192.58 8.68 192.21 8.91 191.84 9.16 191.48 9.42 191.13 9.68 190.78 9.96 190.44 10.24 190.1 10.54 189.77 10.84 189.45 11.15 189.14 11.47 188.84 11.8 188.54 12.14 188.26 12.48 187.98 12.83 187.72 13.18 187.46 13.54 187.21 13.91 186.98 14.28 186.75 14.66 186.53 15.04 186.33 15.43 186.13 15.82 185.95 16.21 185.78 16.6 185.61 17 185.46 17.4 185.32 17.8 185.19 18.2 185.07 18.6 184.96 19 184.86 19.41 184.77 19.81 184.69 20.21 184.62 20.61 184.56 21.01 184.51 21.4 184.47 21.8 184.44 22.19 184.42 22.58 184.41 22.96 184.4 23.35 184.41 23.73 184.42 24.12 184.44 24.5 184.47 24.9 184.51 25.29 184.56 25.69 184.62 26.09 184.69 26.48 184.77 26.89 184.86 27.29 184.96 27.69 185.07 28.09 185.19 28.49 185.32 28.9 185.46 29.3 185.61 29.7 185.78 30.09 185.95 30.49 186.13 30.88 186.33 31.27 186.53 31.65 186.75 32.03 186.98 32.41 187.21 32.78 187.46 33.15 187.72 33.51 187.98 33.87 188.26 34.22 188.54 34.56 188.84 34.89 189.14 35.22 189.45 35.54 189.77 35.85 190.1 36.16 190.44 36.45 190.78 36.73 191.13 37.01 191.48 37.28 191.84 37.53 192.21 37.78 192.58 38.02 192.96 38.24 193.34 38.46 193.73 38.66 194.12 38.86 194.51 39.04 194.9 39.22 195.3 39.38 195.7 39.53 196.1 39.67 196.5 39.8 196.9 39.93 197.3 40.04 197.71 40.13 198.11 40.22 198.51 40.3 198.91 40.37 199.31 40.43 199.7 40.48 200.1 40.52 200.49 40.55 200.88 40.57 201.26 40.59 201.65 40.59 202.03 40.59 202.42 40.57 202.81 40.55 203.2 40.52 203.59 40.48 203.99 40.43 204.38 40.37 204.78 40.3 205.19 40.22 205.59 40.13 205.99 40.04 206.39 39.93 206.79 39.8 207.19 39.67 207.59 39.53 207.99 39.38 208.39 39.22 208.79 39.04 209.18 38.86 209.57 38.66 209.95 38.46 210.33 38.24 210.71 38.02 211.08 37.78 211.45 37.53 211.81 37.28 212.17 37.01 212.52 36.73 212.86 36.45 213.19 36.16 213.52 35.85 213.84 35.54 214.15 35.22 214.46 34.89 214.75 34.56 215.03 34.22 215.31 33.87 215.58 33.51 215.83 33.15 216.08 32.78 216.32 32.41 216.54 32.03 216.76 31.65 216.96 31.27 217.16 30.88 217.34 30.49 217.52 30.09 217.68 29.7 217.83 29.3 217.97 28.9 218.1 28.49 218.22 28.09 218.34 27.69 218.44 27.29 218.52 26.89 218.6 26.48 218.67 26.09 218.73 25.69 218.78 25.29 218.82 24.9 218.85 24.5 218.87 24.12 218.89 23.73 218.89 23.35 218.89 22.96 218.87 22.58 218.85 22.19 218.82 21.8 218.78 21.4 218.73 21.01 218.67 20.61 218.6 20.21 218.52 19.81 218.44 19.41 218.34 19 218.22 18.6 218.1 18.2 217.97 17.8 217.83 17.4 217.68 17 223.35 14.75 223.56 15.29 223.75 15.84 223.93 16.38 224.09 16.92 224.24 17.47 224.38 18.01 224.5 18.56 224.6 19.1 224.7 19.64 224.78 20.18 224.84 20.72 224.9 21.25 224.94 21.78 224.97 22.31 224.99 22.83 224.99 23.35 224.99 23.87 224.97 24.39 224.94 24.91 224.9 25.45 224.84 25.98 224.78 26.52 224.7 27.05 224.6 27.6 224.5 28.14 224.38 28.68 224.24 29.23 224.09 29.77 223.93 30.32 223.75 30.86 223.56 31.4 223.35 31.94 223.13 32.48 222.9 33.01 222.65 33.54 222.39 34.07 222.11 34.59 221.81 35.11 221.51 35.62 221.19 36.12 220.85 36.62 220.51 37.11 220.15 37.59 219.77 38.06 219.39 38.53 218.99 38.98 218.58 39.42 218.16 39.86 217.72 40.28 217.28 40.69 216.83 41.09 216.36 41.47 215.89 41.85 215.41 42.21 214.92 42.55 214.42 42.89 213.92 43.21 213.41 43.52 212.89 43.81 212.37 44.09 211.84 44.35 211.31 44.6 210.78 44.84 210.24 45.05 209.7 45.26 209.16 45.45 208.62 45.63 208.07 45.79 207.53 45.94 206.98 46.08 206.44 46.2 205.9 46.3 205.35 46.4 204.81 46.48 204.28 46.55 203.75 46.6 203.21 46.64 202.69 46.67 202.16 46.69 201.65 46.7 201.13 46.69 200.61 46.67 200.08 46.64 199.55 46.6 199.01 46.55 198.48 46.48 197.94 46.4 197.4 46.3 196.86 46.2 196.31 46.08 195.77 45.94 195.22 45.79 194.68 45.63 194.13 45.45 193.59 45.26 193.05 45.05 192.51 44.84 191.98 44.6 191.45 44.35 190.92 44.09 190.4 43.81 189.88 43.52 189.38 43.21 188.87 42.89 188.37 42.55 187.88 42.21 187.4 41.85 186.93 41.47 186.47 41.09 186.01 40.69 185.57 40.28 185.14 39.86 184.72 39.42 184.31 38.98 183.91 38.53 183.52 38.06 183.15 37.59 182.79 37.11 182.44 36.62 182.1 36.12 181.78 35.62 181.48 35.11 181.19 34.59 180.91 34.07 180.64 33.54 180.39 33.01 180.16 32.48 179.94 31.94 179.73 31.4 179.54 30.86 179.36 30.32 179.2 29.77 179.05 29.23 178.92 28.68 178.8 28.14 178.69 27.6 178.6 27.05 178.52 26.52 178.45 25.98 178.39 25.45 178.35 24.91 178.32 24.39 178.31 23.87 178.3 23.35 178.31 22.83 178.32 22.31 178.35 21.78 178.39 21.25 178.45 20.72 178.52 20.18 178.6 19.64 178.69 19.1 178.8 18.56 178.92 18.01 179.05 17.47 179.2 16.92 179.36 16.38 179.54 15.84 179.73 15.29 179.94 14.75 180.16 14.22 180.39 13.68 180.64 13.15 180.91 12.62 181.19 12.1 181.48 11.59 181.78 11.07 182.1 10.57 182.44 10.07 182.79 9.59 183.15 9.1 183.52 8.63 183.91 8.17 184.31 7.71 184.72 7.27 185.14 6.84 185.57 6.42 186.01 6.01 186.47 5.61 186.93 5.22 187.4 4.85 187.88 4.49 188.37 4.14 188.87 3.81 189.38 3.48 189.88 3.18 190.4 2.89 190.92 2.61 191.45 2.34 191.98 2.1 192.51 1.86 193.05 1.64 193.59 1.43 194.13 1.24 194.68 1.06 195.22 0.9 195.77 0.75 196.31 0.62 196.86 0.5 197.4 0.39 197.94 0.3 198.48 0.22 199.01 0.15 199.55 0.09 200.08 0.05 200.61 0.02 201.13 0.01 201.65 0 201.65 6.1"/></g><g id="HATCH-2" data-name="HATCH"><polygon class="cls-2" points="142.21 6.1 141.71 6.11 141.22 6.13 140.72 6.17 140.23 6.22 139.75 6.28 139.27 6.36 138.8 6.45 138.33 6.55 137.87 6.66 137.42 6.78 136.97 6.92 136.54 7.06 136.11 7.22 135.69 7.39 135.27 7.56 134.87 7.75 134.53 7.91 134.18 8.09 133.84 8.27 133.5 8.47 133.16 8.67 132.82 8.88 132.49 9.11 132.15 9.34 131.82 9.58 131.5 9.84 131.18 10.1 130.86 10.37 130.55 10.65 130.24 10.94 129.94 11.23 129.64 11.54 129.35 11.86 129.07 12.18 128.79 12.52 128.52 12.86 128.26 13.21 128.01 13.57 127.77 13.93 127.53 14.31 127.3 14.69 127.08 15.07 126.88 15.46 126.68 15.86 126.49 16.27 126.31 16.68 126.14 17.09 125.99 17.51 125.84 17.93 125.71 18.35 125.58 18.78 125.47 19.21 125.37 19.65 125.28 20.08 125.2 20.52 125.14 20.95 125.08 21.39 125.03 21.83 125 22.27 124.98 22.7 124.97 23.14 124.97 23.57 124.98 24 125 24.43 125.03 24.86 125.08 25.28 125.13 25.7 125.19 26.11 125.26 26.52 125.34 26.93 125.43 27.33 125.53 27.73 125.64 28.12 125.76 28.5 125.88 28.88 126.01 29.26 126.15 29.63 126.3 29.99 126.45 30.34 126.61 30.69 126.78 31.03 126.95 31.38 127.14 31.72 127.33 32.06 127.54 32.4 127.75 32.74 127.97 33.07 128.21 33.41 128.45 33.73 128.7 34.06 128.96 34.38 129.23 34.7 129.51 35.01 129.8 35.32 130.1 35.62 130.41 35.92 130.72 36.21 131.05 36.49 131.38 36.77 131.72 37.03 132.07 37.3 132.43 37.55 132.8 37.8 133.17 38.03 133.55 38.26 133.94 38.48 134.33 38.68 134.73 38.88 135.13 39.07 135.54 39.25 135.95 39.41 136.37 39.57 136.79 39.72 137.22 39.85 137.65 39.98 138.08 40.09 138.51 40.19 138.95 40.28 139.38 40.36 139.82 40.42 140.26 40.48 140.69 40.52 141.13 40.56 141.57 40.58 142 40.59 142.44 40.59 142.87 40.58 143.29 40.56 143.72 40.52 144.14 40.48 144.56 40.43 144.98 40.37 145.39 40.3 145.79 40.22 146.2 40.13 146.59 40.03 146.98 39.92 147.37 39.8 147.75 39.68 148.12 39.55 148.49 39.41 148.85 39.26 149.21 39.11 149.55 38.95 150.02 38.72 150.49 38.48 150.95 38.21 151.41 37.93 151.87 37.63 152.32 37.32 152.76 36.98 153.2 36.63 157.09 41.34 156.68 41.67 156.26 42 155.83 42.31 155.39 42.62 154.95 42.91 154.5 43.2 154.05 43.47 153.6 43.73 153.13 43.98 152.67 44.22 152.2 44.45 151.73 44.67 151.26 44.87 150.78 45.07 150.3 45.25 149.82 45.42 149.34 45.58 148.86 45.73 148.38 45.87 147.89 45.99 147.41 46.11 146.93 46.21 146.45 46.31 145.97 46.39 145.49 46.46 145.01 46.53 144.54 46.58 144.07 46.62 143.6 46.65 143.13 46.68 142.67 46.69 142.21 46.7 141.69 46.69 141.17 46.67 140.64 46.64 140.11 46.6 139.58 46.55 139.04 46.48 138.5 46.4 137.96 46.3 137.42 46.2 136.88 46.08 136.33 45.94 135.79 45.79 135.24 45.63 134.7 45.45 134.16 45.26 133.62 45.05 133.08 44.84 132.55 44.6 132.01 44.35 131.49 44.09 130.97 43.81 130.45 43.52 129.94 43.21 129.44 42.89 128.94 42.55 128.45 42.21 127.97 41.85 127.5 41.47 127.03 41.09 126.58 40.69 126.14 40.28 125.7 39.86 125.28 39.42 124.87 38.98 124.47 38.53 124.09 38.06 123.71 37.59 123.35 37.11 123 36.62 122.67 36.12 122.35 35.62 122.04 35.11 121.75 34.59 121.47 34.07 121.21 33.54 120.96 33.01 120.72 32.48 120.5 31.94 120.3 31.4 120.11 30.86 119.93 30.32 119.77 29.77 119.62 29.23 119.48 28.68 119.36 28.14 119.25 27.6 119.16 27.05 119.08 26.52 119.01 25.98 118.96 25.45 118.92 24.91 118.89 24.39 118.87 23.87 118.86 23.35 118.87 22.83 118.89 22.31 118.92 21.78 118.96 21.25 119.01 20.72 119.08 20.18 119.16 19.64 119.25 19.1 119.36 18.56 119.48 18.01 119.62 17.47 119.77 16.92 119.93 16.38 120.11 15.84 120.3 15.29 120.5 14.75 120.72 14.22 120.96 13.68 121.21 13.15 121.47 12.62 121.75 12.1 122.04 11.59 122.35 11.07 122.67 10.57 123 10.07 123.35 9.59 123.71 9.1 124.09 8.63 124.47 8.17 124.87 7.71 125.28 7.27 125.7 6.84 126.14 6.42 126.58 6.01 127.03 5.61 127.5 5.22 127.97 4.85 128.45 4.49 128.94 4.14 129.44 3.81 129.94 3.48 130.45 3.18 130.97 2.89 131.49 2.61 132.01 2.34 132.55 2.1 133.08 1.86 133.62 1.64 134.16 1.43 134.7 1.24 135.24 1.06 135.79 0.9 136.33 0.75 136.88 0.62 137.42 0.5 137.96 0.39 138.5 0.3 139.04 0.22 139.58 0.15 140.11 0.09 140.64 0.05 141.17 0.02 141.69 0.01 142.21 0 142.21 6.1"/></g><g id="HATCH-3" data-name="HATCH"><polygon class="cls-2" points="82.78 6.1 82.39 6.11 82.01 6.12 81.62 6.14 81.23 6.17 80.83 6.21 80.44 6.26 80.04 6.32 79.64 6.39 79.24 6.47 78.84 6.56 78.43 6.66 78.03 6.77 77.63 6.89 77.23 7.02 76.83 7.16 76.43 7.31 76.03 7.48 75.64 7.65 75.25 7.83 74.86 8.03 74.47 8.23 74.09 8.45 73.71 8.68 73.34 8.91 72.97 9.16 72.61 9.42 72.26 9.68 71.91 9.96 71.57 10.24 71.23 10.54 70.9 10.84 70.58 11.15 70.27 11.47 69.97 11.8 69.67 12.14 69.39 12.48 69.11 12.83 68.85 13.18 68.59 13.54 68.34 13.91 68.11 14.28 67.88 14.66 67.67 15.04 67.46 15.43 67.26 15.82 67.08 16.21 66.91 16.6 66.74 17 66.59 17.4 66.45 17.8 66.32 18.2 66.2 18.6 66.09 19 65.99 19.41 65.9 19.81 65.82 20.21 65.75 20.61 65.69 21.01 65.64 21.4 65.6 21.8 65.57 22.19 65.55 22.58 65.54 22.96 65.53 23.35 65.54 23.73 65.55 24.12 65.57 24.5 65.6 24.9 65.64 25.29 65.69 25.69 65.75 26.09 65.82 26.48 65.9 26.89 65.99 27.29 66.09 27.69 66.2 28.09 66.32 28.49 66.45 28.9 66.59 29.3 66.74 29.7 66.91 30.09 67.08 30.49 67.26 30.88 67.46 31.27 67.67 31.65 67.88 32.03 68.11 32.41 68.34 32.78 68.59 33.15 68.85 33.51 69.11 33.87 69.39 34.22 69.67 34.56 69.97 34.89 70.27 35.22 70.58 35.54 70.9 35.85 71.23 36.16 71.57 36.45 71.91 36.73 72.26 37.01 72.61 37.28 72.97 37.53 73.34 37.78 73.71 38.02 74.09 38.24 74.47 38.46 74.86 38.66 75.25 38.86 75.64 39.04 76.03 39.22 76.43 39.38 76.83 39.53 77.23 39.67 77.63 39.8 78.03 39.93 78.43 40.04 78.84 40.13 79.24 40.22 79.64 40.3 80.04 40.37 80.44 40.43 80.83 40.48 81.23 40.52 81.62 40.55 82.01 40.57 82.39 40.59 82.78 40.59 83.13 40.59 83.48 40.58 83.83 40.56 84.19 40.53 84.55 40.5 84.91 40.46 85.27 40.41 85.64 40.35 86 40.29 86.37 40.21 86.74 40.13 87.1 40.04 87.47 39.94 87.84 39.83 88.2 39.72 88.57 39.59 88.94 39.45 89.3 39.31 89.66 39.16 90.02 39 90.38 38.83 90.73 38.65 91.08 38.46 91.43 38.26 91.78 38.06 92.12 37.84 92.45 37.62 92.79 37.39 93.11 37.15 93.44 36.9 93.75 36.65 94.06 36.38 94.37 36.11 94.67 35.84 94.96 35.55 95.24 35.26 95.52 34.96 95.79 34.66 96.06 34.35 96.31 34.03 96.56 33.71 96.8 33.38 97.03 33.05 97.25 32.72 97.47 32.37 97.67 32.03 97.87 31.68 98.06 31.33 98.24 30.98 98.41 30.62 98.58 30.26 98.73 29.9 98.87 29.53 99.01 29.17 99.14 28.8 99.25 28.44 99.36 28.07 99.46 27.7 99.55 27.33 99.64 26.97 99.71 26.6 99.78 26.24 99.83 25.87 99.89 25.51 105.94 26.27 105.87 26.77 105.79 27.26 105.7 27.75 105.6 28.25 105.49 28.75 105.37 29.24 105.23 29.74 105.08 30.24 104.92 30.73 104.75 31.23 104.57 31.72 104.37 32.22 104.17 32.7 103.95 33.19 103.72 33.68 103.47 34.16 103.22 34.63 102.95 35.1 102.67 35.57 102.38 36.03 102.08 36.49 101.76 36.94 101.44 37.38 101.1 37.81 100.76 38.24 100.4 38.66 100.03 39.07 99.66 39.48 99.27 39.87 98.88 40.26 98.47 40.63 98.06 41 97.64 41.35 97.21 41.7 96.77 42.03 96.33 42.36 95.88 42.67 95.42 42.97 94.96 43.26 94.5 43.54 94.03 43.81 93.55 44.06 93.07 44.3 92.58 44.53 92.1 44.75 91.61 44.96 91.11 45.16 90.62 45.34 90.13 45.51 89.63 45.67 89.13 45.81 88.63 45.95 88.14 46.07 87.64 46.18 87.14 46.28 86.65 46.37 86.16 46.45 85.67 46.52 85.18 46.57 84.69 46.62 84.21 46.65 83.73 46.67 83.25 46.69 82.78 46.7 82.26 46.69 81.74 46.67 81.21 46.64 80.68 46.6 80.14 46.55 79.61 46.48 79.07 46.4 78.53 46.3 77.99 46.2 77.44 46.08 76.9 45.94 76.35 45.79 75.81 45.63 75.27 45.45 74.72 45.26 74.18 45.05 73.64 44.84 73.11 44.6 72.58 44.35 72.05 44.09 71.53 43.81 71.02 43.52 70.5 43.21 70 42.89 69.5 42.55 69.02 42.21 68.53 41.85 68.06 41.47 67.6 41.09 67.14 40.69 66.7 40.28 66.27 39.86 65.85 39.42 65.44 38.98 65.04 38.53 64.65 38.06 64.28 37.59 63.92 37.11 63.57 36.62 63.23 36.12 62.91 35.62 62.61 35.11 62.32 34.59 62.04 34.07 61.77 33.54 61.52 33.01 61.29 32.48 61.07 31.94 60.86 31.4 60.67 30.86 60.49 30.32 60.33 29.77 60.18 29.23 60.05 28.68 59.93 28.14 59.82 27.6 59.73 27.05 59.65 26.52 59.58 25.98 59.52 25.45 59.48 24.91 59.45 24.39 59.44 23.87 59.43 23.35 59.44 22.83 59.45 22.31 59.48 21.78 59.52 21.25 59.58 20.72 59.65 20.18 59.73 19.64 59.82 19.1 59.93 18.56 60.05 18.01 60.18 17.47 60.33 16.92 60.49 16.38 60.67 15.84 60.86 15.29 61.07 14.75 61.29 14.22 61.52 13.68 61.77 13.15 62.04 12.62 62.32 12.1 62.61 11.59 62.91 11.07 63.23 10.57 63.57 10.07 63.92 9.59 64.28 9.1 64.65 8.63 65.04 8.17 65.44 7.71 65.85 7.27 66.27 6.84 66.7 6.42 67.14 6.01 67.6 5.61 68.06 5.22 68.53 4.85 69.02 4.49 69.5 4.14 70 3.81 70.5 3.48 71.02 3.18 71.53 2.89 72.05 2.61 72.58 2.34 73.11 2.1 73.64 1.86 74.18 1.64 74.72 1.43 75.27 1.24 75.81 1.06 76.35 0.9 76.9 0.75 77.44 0.62 77.99 0.5 78.53 0.39 79.07 0.3 79.61 0.22 80.14 0.15 80.68 0.09 81.21 0.05 81.74 0.02 82.26 0.01 82.78 0 82.78 6.1"/></g><g id="HATCH-4" data-name="HATCH"><polygon class="cls-2" points="23.34 6.1 22.91 6.11 22.48 6.13 22.06 6.15 21.63 6.19 21.2 6.24 20.78 6.29 20.36 6.36 19.95 6.44 19.53 6.53 19.12 6.63 18.71 6.74 18.31 6.85 17.91 6.98 17.52 7.12 17.14 7.26 16.75 7.41 16.38 7.57 16.01 7.74 15.64 7.92 15.28 8.1 14.93 8.29 14.59 8.49 14.25 8.7 13.92 8.91 13.59 9.12 13.28 9.35 12.97 9.57 12.67 9.8 12.37 10.04 12.09 10.28 11.81 10.53 11.54 10.78 11.26 11.04 10.99 11.32 10.72 11.6 10.46 11.89 10.2 12.19 9.94 12.49 9.69 12.81 9.45 13.13 9.21 13.47 8.98 13.81 8.75 14.15 8.53 14.51 8.32 14.87 8.12 15.24 7.93 15.62 7.74 16 7.56 16.39 7.39 16.79 7.23 17.2 7.08 17.6 6.94 18.02 6.81 18.43 6.69 18.86 6.58 19.29 6.48 19.72 6.4 20.15 6.32 20.59 6.25 21.03 6.2 21.47 6.16 21.91 6.13 22.36 6.11 22.81 6.1 23.25 6.1 23.7 6.12 24.14 6.14 24.59 6.18 25.03 6.23 25.47 6.29 25.91 6.36 26.35 6.44 26.78 6.54 27.21 6.64 27.64 6.75 28.06 6.88 28.48 7.01 28.89 7.16 29.3 7.31 29.7 7.47 30.09 7.64 30.48 7.82 30.86 8.01 31.24 8.2 31.61 8.41 31.97 8.62 32.32 8.83 32.67 9.06 33.01 9.29 33.34 9.52 33.66 9.76 33.97 10.01 34.28 10.26 34.58 10.51 34.87 10.77 35.15 11.04 35.43 11.31 35.7 11.59 35.97 11.88 36.23 12.18 36.49 12.49 36.75 12.8 37 13.13 37.24 13.46 37.48 13.8 37.71 14.15 37.94 14.51 38.16 14.87 38.37 15.24 38.57 15.62 38.76 16 38.95 16.39 39.13 16.79 39.3 17.19 39.46 17.6 39.61 18.01 39.75 18.43 39.88 18.85 40 19.28 40.11 19.71 40.2 20.14 40.29 20.58 40.37 21.02 40.44 21.46 40.49 21.91 40.53 22.35 40.56 22.8 40.58 23.25 40.59 23.69 40.59 24.14 40.57 24.58 40.55 25.03 40.51 25.47 40.46 25.91 40.4 26.34 40.33 26.78 40.25 27.21 40.15 27.63 40.05 28.05 39.94 28.47 39.81 28.88 39.68 29.29 39.53 29.69 39.38 30.09 39.22 30.47 39.05 30.86 38.87 31.23 38.68 31.6 38.48 31.96 38.28 32.31 38.07 32.66 37.86 33 37.63 33.33 37.4 33.65 37.17 33.97 36.93 34.27 36.68 34.57 36.43 34.86 36.18 35.15 35.92 35.4 35.68 35.65 35.43 35.89 35.17 36.14 34.91 36.38 34.64 36.61 34.36 36.84 34.08 37.07 33.78 37.29 33.49 37.51 33.18 37.72 32.87 37.92 32.55 38.12 32.23 38.31 31.9 38.5 31.56 38.68 31.22 38.86 30.87 39.02 30.52 39.18 30.16 39.33 29.8 39.48 29.43 39.61 29.05 39.74 28.68 39.86 28.29 39.97 27.91 40.07 27.52 40.17 27.13 40.25 26.73 40.33 26.33 40.39 25.93 40.45 25.53 40.49 25.12 40.53 24.72 40.56 24.31 40.58 23.91 40.59 23.5 40.58 23.09 40.57 22.68 40.55 22.28 40.52 21.87 40.48 21.47 40.43 21.06 40.38 20.66 40.31 20.27 40.23 19.87 40.15 19.48 40.05 19.09 39.95 18.7 39.84 18.32 39.72 17.94 39.59 17.57 39.45 17.2 39.31 16.84 39.16 16.48 39 16.13 38.84 15.78 38.66 15.44 38.48 15.1 38.3 14.77 38.11 14.45 37.91 14.13 37.71 13.81 37.5 13.51 37.29 13.21 42.23 9.62 42.51 10.02 42.78 10.42 43.05 10.83 43.3 11.24 43.55 11.65 43.78 12.07 44.01 12.49 44.23 12.92 44.44 13.35 44.64 13.78 44.83 14.21 45.01 14.65 45.18 15.08 45.34 15.52 45.49 15.96 45.63 16.4 45.76 16.84 45.89 17.28 46 17.72 46.11 18.16 46.2 18.61 46.29 19.05 46.37 19.48 46.44 19.92 46.5 20.36 46.55 20.79 46.59 21.22 46.63 21.65 46.66 22.08 46.67 22.51 46.69 22.93 46.69 23.35 46.68 23.87 46.67 24.39 46.64 24.91 46.59 25.45 46.54 25.98 46.47 26.52 46.39 27.05 46.3 27.6 46.19 28.14 46.07 28.68 45.94 29.23 45.79 29.77 45.63 30.32 45.45 30.86 45.26 31.4 45.05 31.94 44.83 32.48 44.59 33.01 44.34 33.54 44.08 34.07 43.8 34.59 43.51 35.11 43.2 35.62 42.88 36.12 42.55 36.62 42.2 37.11 41.84 37.59 41.47 38.06 41.08 38.53 40.68 38.98 40.27 39.42 39.85 39.86 39.42 40.28 38.97 40.69 38.52 41.09 38.06 41.47 37.59 41.85 37.1 42.21 36.61 42.55 36.12 42.89 35.61 43.21 35.1 43.52 34.59 43.81 34.06 44.09 33.54 44.35 33.01 44.6 32.47 44.84 31.94 45.05 31.4 45.26 30.85 45.45 30.31 45.63 29.77 45.79 29.22 45.94 28.68 46.08 28.13 46.2 27.59 46.3 27.05 46.4 26.51 46.48 25.97 46.55 25.44 46.6 24.91 46.64 24.38 46.67 23.86 46.69 23.34 46.7 22.82 46.69 22.3 46.67 21.77 46.64 21.24 46.6 20.71 46.55 20.17 46.48 19.63 46.4 19.09 46.3 18.55 46.2 18.01 46.08 17.46 45.94 16.92 45.79 16.37 45.63 15.83 45.45 15.29 45.26 14.75 45.05 14.21 44.84 13.68 44.6 13.14 44.35 12.62 44.09 12.1 43.81 11.58 43.52 11.07 43.21 10.57 42.89 10.07 42.55 9.58 42.21 9.1 41.85 8.63 41.47 8.16 41.09 7.71 40.69 7.26 40.28 6.83 39.86 6.41 39.42 6 38.98 5.6 38.53 5.22 38.06 4.84 37.59 4.48 37.11 4.13 36.62 3.8 36.12 3.48 35.62 3.17 35.11 2.88 34.59 2.6 34.07 2.34 33.54 2.09 33.01 1.85 32.48 1.63 31.94 1.43 31.4 1.24 30.86 1.06 30.32 0.9 29.77 0.75 29.23 0.61 28.68 0.49 28.14 0.38 27.6 0.29 27.05 0.21 26.52 0.14 25.98 0.09 25.45 0.05 24.91 0.02 24.39 0 23.87 -0.01 23.35 0 22.83 0.02 22.31 0.05 21.78 0.09 21.25 0.14 20.72 0.21 20.18 0.29 19.64 0.38 19.1 0.49 18.56 0.61 18.01 0.75 17.47 0.9 16.92 1.06 16.38 1.24 15.84 1.43 15.29 1.63 14.75 1.85 14.22 2.09 13.68 2.34 13.15 2.6 12.62 2.88 12.1 3.17 11.59 3.48 11.07 3.8 10.57 4.13 10.07 4.48 9.59 4.84 9.1 5.22 8.63 5.6 8.17 6 7.71 6.41 7.27 6.83 6.84 7.26 6.42 7.71 6.01 8.16 5.61 8.63 5.22 9.1 4.85 9.58 4.49 10.07 4.14 10.57 3.81 11.07 3.48 11.58 3.18 12.1 2.89 12.62 2.61 13.14 2.34 13.68 2.1 14.21 1.86 14.75 1.64 15.29 1.43 15.83 1.24 16.37 1.06 16.92 0.9 17.46 0.75 18.01 0.62 18.55 0.5 19.09 0.39 19.63 0.3 20.17 0.22 20.71 0.15 21.24 0.09 21.77 0.05 22.3 0.02 22.82 0.01 23.34 0 23.34 6.1"/></g><g id="HATCH-5" data-name="HATCH" class="cls-3"><polygon class="cls-4" points="23.34 0 23.96 0.01 24.58 0.03 25.21 0.07 25.84 0.14 26.48 0.21 27.12 0.31 27.77 0.42 28.41 0.56 29.06 0.71 29.71 0.89 30.36 1.08 31.01 1.29 31.65 1.53 32.29 1.78 32.93 2.06 33.56 2.35 34.19 2.67 34.8 3.01 35.41 3.36 36.02 3.74 36.61 4.14 37.19 4.55 37.76 4.99 38.32 5.44 38.86 5.91 39.39 6.39 39.91 6.89 40.41 7.41 40.89 7.95 41.35 8.49 41.8 9.05 42.23 9.62 37.29 13.21 36.96 12.77 36.62 12.35 36.27 11.94 35.91 11.54 35.64 11.26 35.35 10.97 35.06 10.7 34.76 10.42 34.44 10.15 34.12 9.89 33.79 9.63 33.45 9.38 33.11 9.13 32.75 8.9 32.39 8.67 32.01 8.44 31.63 8.23 31.25 8.02 30.85 7.82 30.45 7.64 30.04 7.46 29.62 7.29 29.2 7.13 28.77 6.98 28.34 6.84 27.9 6.72 27.46 6.6 27.01 6.5 26.56 6.41 26.11 6.33 25.65 6.26 25.19 6.2 24.73 6.16 24.27 6.13 23.8 6.11 23.34 6.1 23.34 0"/></g><g id="HATCH-6" data-name="HATCH" class="cls-5"><polygon class="cls-4" points="82.78 0 83.3 0.01 83.82 0.02 84.34 0.05 84.88 0.09 85.41 0.15 85.94 0.22 86.48 0.3 87.03 0.39 87.57 0.5 88.11 0.62 88.66 0.75 89.2 0.9 89.75 1.06 90.29 1.24 90.83 1.43 91.37 1.64 91.91 1.86 92.44 2.1 92.97 2.34 93.5 2.61 94.02 2.89 94.54 3.18 95.05 3.48 95.55 3.81 96.05 4.14 96.54 4.49 97.02 4.85 97.49 5.22 97.96 5.61 98.41 6.01 98.85 6.42 99.29 6.84 99.71 7.27 100.12 7.71 100.52 8.17 100.9 8.63 101.28 9.1 101.64 9.59 101.98 10.07 102.32 10.57 102.64 11.07 102.94 11.59 103.24 12.1 103.52 12.62 103.78 13.15 104.03 13.68 104.26 14.22 104.48 14.75 104.69 15.29 104.88 15.84 105.06 16.38 105.22 16.92 105.37 17.47 105.51 18.01 105.63 18.56 105.73 19.1 105.83 19.64 105.91 20.18 105.97 20.72 106.03 21.25 106.07 21.78 106.1 22.31 106.12 22.83 106.12 23.35 106.11 24.07 106.08 24.8 106.02 25.53 105.94 26.27 99.89 25.51 99.94 24.96 99.99 24.42 100.01 23.88 100.02 23.35 100.02 22.96 100 22.58 99.98 22.19 99.95 21.8 99.91 21.4 99.86 21.01 99.8 20.61 99.73 20.21 99.65 19.81 99.56 19.41 99.47 19 99.36 18.6 99.23 18.2 99.1 17.8 98.96 17.4 98.81 17 98.65 16.6 98.47 16.21 98.29 15.82 98.09 15.43 97.89 15.04 97.67 14.66 97.45 14.28 97.21 13.91 96.96 13.54 96.71 13.18 96.44 12.83 96.16 12.48 95.88 12.14 95.58 11.8 95.28 11.47 94.97 11.15 94.65 10.84 94.32 10.54 93.99 10.24 93.65 9.96 93.3 9.68 92.94 9.42 92.58 9.16 92.21 8.91 91.84 8.68 91.46 8.45 91.08 8.23 90.7 8.03 90.31 7.83 89.92 7.65 89.52 7.48 89.12 7.31 88.72 7.16 88.33 7.02 87.92 6.89 87.52 6.77 87.12 6.66 86.72 6.56 86.31 6.47 85.91 6.39 85.52 6.32 85.12 6.26 84.72 6.21 84.33 6.17 83.93 6.14 83.55 6.12 83.16 6.11 82.78 6.1 82.78 0"/></g><g id="HATCH-7" data-name="HATCH"><polygon class="cls-4" points="142.21 0 142.73 0.01 143.25 0.02 143.78 0.05 144.31 0.09 144.84 0.15 145.38 0.22 145.92 0.3 146.46 0.39 147 0.5 147.55 0.62 148.09 0.75 148.64 0.9 149.18 1.06 149.72 1.24 150.27 1.43 150.81 1.64 151.34 1.86 151.88 2.1 152.41 2.34 152.94 2.61 153.46 2.89 153.97 3.18 154.48 3.48 154.99 3.81 155.49 4.14 155.97 4.49 156.46 4.85 156.93 5.22 157.39 5.61 157.84 6.01 158.29 6.42 158.72 6.84 159.14 7.27 159.55 7.71 159.95 8.17 160.34 8.63 160.71 9.1 161.07 9.59 161.42 10.07 161.75 10.57 162.07 11.07 162.38 11.59 162.67 12.1 162.95 12.62 163.22 13.15 163.46 13.68 163.7 14.22 163.92 14.75 164.13 15.29 164.32 15.84 164.5 16.38 164.66 16.92 164.81 17.47 164.94 18.01 165.06 18.56 165.17 19.1 165.26 19.64 165.34 20.18 165.41 20.72 165.47 21.25 165.51 21.78 165.54 22.31 165.55 22.83 165.56 23.35 165.55 23.93 165.53 24.51 165.49 25.1 165.44 25.69 165.37 26.28 165.29 26.88 165.19 27.49 165.07 28.09 164.94 28.7 164.79 29.3 164.62 29.91 164.43 30.52 164.23 31.12 164 31.72 163.76 32.32 163.51 32.92 163.23 33.51 162.94 34.1 162.63 34.68 162.3 35.25 161.95 35.82 161.59 36.38 161.21 36.92 160.81 37.46 160.4 37.99 159.97 38.51 159.52 39.01 159.06 39.51 158.59 39.98 158.1 40.45 157.61 40.9 157.09 41.34 153.2 36.63 153.47 36.41 153.73 36.18 153.99 35.95 154.24 35.7 154.49 35.45 154.74 35.2 154.98 34.94 155.22 34.67 155.45 34.4 155.68 34.12 155.9 33.84 156.12 33.55 156.33 33.25 156.53 32.95 156.74 32.64 156.93 32.33 157.12 32.02 157.3 31.7 157.47 31.37 157.64 31.05 157.8 30.71 157.96 30.38 158.11 30.04 158.25 29.69 158.38 29.35 158.5 29 158.62 28.65 158.73 28.29 158.83 27.94 158.93 27.58 159.01 27.22 159.09 26.86 159.16 26.5 159.23 26.14 159.28 25.77 159.33 25.41 159.37 25.05 159.4 24.68 159.43 24.32 159.44 23.96 159.45 23.6 159.46 23.24 159.45 22.88 159.44 22.52 159.41 22.17 159.39 21.82 159.35 21.46 159.31 21.11 159.26 20.77 159.21 20.43 159.15 20.09 159.08 19.75 159 19.42 158.92 19.09 158.83 18.76 158.74 18.44 158.64 18.12 158.54 17.8 158.43 17.49 158.32 17.19 158.2 16.89 158.07 16.59 157.95 16.29 157.81 16 157.57 15.52 157.32 15.03 157.04 14.54 156.74 14.06 156.43 13.59 156.09 13.12 155.74 12.65 155.36 12.19 154.97 11.75 154.56 11.31 154.35 11.1 154.13 10.88 153.91 10.68 153.68 10.47 153.45 10.27 153.22 10.07 152.98 9.88 152.73 9.69 152.49 9.5 152.24 9.32 151.98 9.14 151.72 8.96 151.46 8.79 151.19 8.63 150.92 8.46 150.65 8.31 150.37 8.16 150.09 8.01 149.81 7.87 149.53 7.73 149.24 7.6 148.95 7.47 148.65 7.35 148.36 7.24 148.06 7.13 147.76 7.02 147.46 6.92 147.16 6.83 146.85 6.74 146.55 6.66 146.24 6.58 145.93 6.51 145.62 6.44 145.31 6.38 145 6.33 144.69 6.28 144.38 6.24 144.07 6.2 143.76 6.17 143.45 6.15 143.14 6.13 142.83 6.11 142.52 6.11 142.21 6.1 142.21 0"/></g><g id="HATCH-8" data-name="HATCH" class="cls-3"><polygon class="cls-4" points="201.65 0 202.43 0.01 203.21 0.05 204.01 0.12 204.81 0.22 205.22 0.28 205.62 0.34 206.03 0.41 206.44 0.5 206.85 0.59 207.25 0.68 207.66 0.79 208.07 0.9 208.48 1.02 208.89 1.15 209.29 1.29 209.7 1.43 210.11 1.59 210.51 1.75 210.91 1.92 211.31 2.1 211.71 2.28 212.11 2.47 212.5 2.68 212.89 2.89 213.28 3.1 213.66 3.33 214.04 3.56 214.42 3.81 214.8 4.05 215.16 4.31 215.53 4.58 215.89 4.85 216.25 5.13 216.59 5.41 216.94 5.71 217.28 6.01 217.61 6.31 217.94 6.63 218.26 6.95 218.58 7.27 218.89 7.6 219.19 7.94 219.48 8.28 219.77 8.63 220.05 8.98 220.33 9.34 220.59 9.71 220.85 10.07 221.11 10.45 221.35 10.82 221.59 11.2 221.81 11.59 222.04 11.97 222.25 12.36 222.45 12.76 222.65 13.15 222.84 13.55 223.02 13.95 223.19 14.35 223.35 14.75 217.68 17 217.56 16.7 217.43 16.41 217.3 16.11 217.16 15.82 217.01 15.52 216.86 15.23 216.71 14.95 216.54 14.66 216.37 14.38 216.2 14.1 216.02 13.82 215.83 13.54 215.64 13.27 215.44 13 215.24 12.74 215.03 12.48 214.82 12.22 214.6 11.97 214.38 11.72 214.15 11.47 213.92 11.23 213.68 11 213.44 10.77 213.19 10.54 212.94 10.32 212.69 10.1 212.43 9.89 212.17 9.68 211.9 9.48 211.63 9.29 211.36 9.1 211.08 8.91 210.8 8.74 210.52 8.56 210.24 8.4 209.95 8.23 209.66 8.08 209.37 7.93 209.08 7.79 208.79 7.65 208.49 7.52 208.19 7.39 207.9 7.28 207.59 7.16 207.29 7.05 206.99 6.95 206.69 6.86 206.39 6.77 206.09 6.69 205.79 6.61 205.49 6.54 205.19 6.47 204.88 6.41 204.59 6.36 204.28 6.31 203.99 6.26 203.39 6.19 202.81 6.14 202.22 6.11 201.65 6.1 201.65 0"/></g></svg>