<svg id="Layer_1" data-name="Layer 1" xmlns="http://www.w3.org/2000/svg" viewBox="0 0 224.82 46.61"><defs><style>.cls-1,.cls-4,.cls-5{fill:#016b62;}.cls-1,.cls-3{fill-rule:evenodd;}.cls-2{opacity:0.4;}.cls-3{fill:#e6e6e5;}.cls-4,.cls-5{font-size:10px;font-family:CooperHewitt-Bold, Cooper Hewitt;font-weight:700;}.cls-5{letter-spacing:-0.01em;}.cls-6{letter-spacing:0em;}</style></defs><g id="HATCH"><polygon class="cls-1" points="23.38 -0.03 23.9 -0.03 24.42 -0.01 24.95 0.02 25.48 0.06 26.01 0.11 26.55 0.18 27.09 0.26 27.63 0.35 28.17 0.46 28.71 0.58 29.25 0.72 29.8 0.87 30.34 1.03 30.89 1.21 31.43 1.4 31.97 1.6 32.5 1.82 33.04 2.06 33.57 2.31 34.09 2.57 34.62 2.85 35.13 3.14 35.64 3.45 36.14 3.77 36.64 4.1 37.13 4.45 37.61 4.81 38.08 5.18 38.55 5.57 39 5.97 39.44 6.38 39.87 6.8 40.3 7.23 40.7 7.67 41.1 8.13 41.49 8.59 41.86 9.06 42.22 9.54 42.57 10.03 42.9 10.53 43.22 11.03 43.53 11.54 43.82 12.05 44.1 12.58 44.36 13.1 44.61 13.63 44.85 14.17 45.07 14.7 45.27 15.24 45.46 15.78 45.64 16.33 45.8 16.87 45.95 17.41 46.09 17.96 46.21 18.5 46.31 19.05 46.41 19.59 46.49 20.12 46.56 20.66 46.61 21.19 46.65 21.72 46.68 22.25 46.7 22.77 46.7 23.29 46.7 23.91 46.67 24.53 46.63 25.16 46.57 25.79 46.49 26.43 46.4 27.07 46.28 27.71 46.15 28.36 45.99 29 45.82 29.65 45.63 30.3 45.41 30.95 45.18 31.59 44.92 32.23 44.65 32.87 44.35 33.5 44.04 34.12 43.7 34.74 43.34 35.35 42.97 35.95 42.57 36.54 42.16 37.12 41.73 37.69 41.27 38.25 40.8 38.79 40.32 39.32 39.82 39.84 39.3 40.33 38.77 40.82 38.22 41.28 37.66 41.73 37.09 42.16 33.51 37.23 33.93 36.91 34.34 36.58 34.75 36.23 35.14 35.88 35.52 35.51 35.89 35.13 36.25 34.74 36.6 34.34 36.93 33.93 37.25 33.51 37.56 33.08 37.85 32.64 38.13 32.2 38.39 31.75 38.64 31.29 38.87 30.83 39.09 30.36 39.29 29.89 39.48 29.42 39.65 28.94 39.81 28.47 39.95 27.99 40.08 27.51 40.2 27.03 40.3 26.55 40.38 26.08 40.45 25.61 40.51 25.14 40.55 24.67 40.58 24.2 40.6 23.74 40.61 23.29 40.6 22.91 40.59 22.52 40.57 22.13 40.54 21.74 40.5 21.35 40.45 20.95 40.39 20.55 40.32 20.15 40.24 19.75 40.15 19.35 40.05 18.95 39.94 18.55 39.82 18.15 39.69 17.75 39.55 17.35 39.4 16.95 39.23 16.55 39.06 16.16 38.88 15.77 38.68 15.38 38.48 14.99 38.26 14.61 38.04 14.23 37.8 13.86 37.55 13.5 37.3 13.13 37.03 12.78 36.76 12.43 36.47 12.09 36.18 11.76 35.87 11.43 35.56 11.11 35.24 10.8 34.92 10.49 34.58 10.2 34.24 9.91 33.89 9.64 33.53 9.37 33.17 9.12 32.81 8.87 32.44 8.63 32.06 8.41 31.68 8.19 31.29 7.99 30.91 7.79 30.51 7.61 30.12 7.43 29.72 7.27 29.32 7.12 28.92 6.98 28.52 6.85 28.12 6.73 27.72 6.62 27.32 6.52 26.92 6.43 26.52 6.35 26.12 6.28 25.72 6.22 25.32 6.17 24.93 6.13 24.54 6.1 24.15 6.08 23.76 6.07 23.38 6.06 23.38 -0.03"/></g><g id="HATCH-2" data-name="HATCH"><polygon class="cls-1" points="82.75 -0.03 83.27 -0.03 83.79 -0.01 84.32 0.02 84.85 0.06 85.38 0.11 85.92 0.18 86.46 0.26 87 0.35 87.54 0.46 88.08 0.58 88.63 0.72 89.17 0.87 89.72 1.03 90.26 1.21 90.8 1.4 91.34 1.6 91.88 1.82 92.41 2.06 92.94 2.31 93.47 2.57 93.99 2.85 94.5 3.14 95.01 3.45 95.52 3.77 96.01 4.1 96.5 4.45 96.98 4.81 97.45 5.18 97.92 5.57 98.37 5.97 98.81 6.38 99.25 6.8 99.67 7.23 100.08 7.67 100.48 8.13 100.86 8.59 101.23 9.06 101.59 9.54 101.94 10.03 102.28 10.53 102.6 11.03 102.9 11.54 103.19 12.05 103.47 12.58 103.74 13.1 103.98 13.63 104.22 14.17 104.44 14.7 104.65 15.24 104.84 15.78 105.01 16.33 105.18 16.87 105.33 17.41 105.46 17.96 105.58 18.5 105.69 19.05 105.78 19.59 105.86 20.12 105.93 20.66 105.98 21.19 106.03 21.72 106.05 22.25 106.07 22.77 106.08 23.29 106.07 23.95 106.04 24.61 105.99 25.28 105.92 25.95 105.84 26.63 105.73 27.32 105.6 28 105.44 28.69 105.27 29.38 105.07 30.07 104.85 30.76 104.61 31.44 104.34 32.12 104.05 32.8 103.74 33.47 103.4 34.14 103.04 34.8 102.66 35.45 102.25 36.08 101.83 36.71 101.38 37.32 100.91 37.92 100.42 38.51 99.92 39.08 99.39 39.64 98.84 40.17 98.28 40.69 97.7 41.19 97.11 41.67 96.5 42.13 95.88 42.56 95.25 42.98 91.98 37.83 92.44 37.53 92.88 37.23 93.19 37 93.49 36.76 93.79 36.51 94.09 36.26 94.39 35.99 94.68 35.72 94.96 35.44 95.25 35.15 95.52 34.85 95.8 34.54 96.06 34.23 96.32 33.9 96.58 33.57 96.83 33.23 97.07 32.88 97.3 32.52 97.52 32.15 97.74 31.78 97.95 31.4 98.15 31.02 98.34 30.63 98.52 30.23 98.69 29.82 98.86 29.41 99.01 29 99.15 28.58 99.28 28.15 99.4 27.73 99.51 27.3 99.61 26.86 99.69 26.42 99.77 25.98 99.83 25.54 99.89 25.1 99.93 24.66 99.96 24.21 99.97 23.77 99.98 23.32 99.98 22.88 99.96 22.44 99.93 22 99.89 21.56 99.84 21.13 99.78 20.7 99.71 20.27 99.63 19.84 99.54 19.42 99.44 19 99.33 18.59 99.21 18.19 99.08 17.79 98.94 17.39 98.79 17 98.64 16.62 98.47 16.24 98.3 15.87 98.12 15.51 97.94 15.15 97.74 14.8 97.54 14.46 97.34 14.12 97.13 13.79 96.91 13.47 96.69 13.16 96.42 12.8 96.13 12.44 95.83 12.08 95.53 11.73 95.2 11.38 94.87 11.04 94.52 10.71 94.16 10.38 93.78 10.06 93.4 9.74 93 9.44 92.59 9.15 92.17 8.87 91.75 8.6 91.31 8.33 90.85 8.09 90.39 7.85 89.92 7.63 89.45 7.42 88.96 7.22 88.47 7.04 87.97 6.87 87.46 6.72 86.95 6.58 86.44 6.46 85.92 6.36 85.39 6.27 84.87 6.19 84.34 6.14 83.81 6.09 83.28 6.07 82.75 6.06 82.75 -0.03"/></g><g id="HATCH-3" data-name="HATCH" class="cls-2"><polygon class="cls-1" points="152.25 9.35 151.98 9.16 151.7 8.97 151.41 8.78 151.13 8.6 150.83 8.43 150.54 8.26 150.24 8.09 149.94 7.93 149.63 7.78 149.32 7.64 149.01 7.5 148.69 7.36 148.38 7.24 148.06 7.12 147.74 7 147.41 6.89 147.09 6.79 146.76 6.7 146.43 6.61 146.1 6.53 145.77 6.45 145.44 6.38 145.11 6.32 144.78 6.27 144.44 6.22 144.11 6.18 143.78 6.14 143.45 6.11 143.12 6.09 142.79 6.08 142.46 6.07 142.13 6.06 142.13 -0.03 142.55 -0.03 142.97 -0.02 143.39 0 143.82 0.03 144.25 0.06 144.68 0.11 145.12 0.16 145.55 0.22 145.99 0.29 146.43 0.36 146.87 0.45 147.31 0.55 147.75 0.65 148.19 0.77 148.63 0.89 149.07 1.02 149.51 1.16 149.95 1.31 150.38 1.48 150.82 1.65 151.25 1.83 151.69 2.02 152.12 2.21 152.55 2.42 152.97 2.64 153.39 2.87 153.81 3.1 154.22 3.35 154.63 3.6 155.04 3.87 155.44 4.14 155.84 4.42 152.25 9.35"/></g><g id="HATCH-4" data-name="HATCH" class="cls-2"><polygon class="cls-1" points="201.5 -0.03 202.26 -0.02 203.03 0.02 203.81 0.08 204.59 0.17 205.38 0.29 206.18 0.44 206.58 0.53 206.98 0.62 207.38 0.72 207.77 0.82 208.17 0.94 208.57 1.06 208.97 1.19 209.37 1.33 209.76 1.48 210.16 1.63 210.55 1.79 210.94 1.96 211.34 2.14 211.72 2.33 212.11 2.52 212.49 2.72 212.87 2.93 213.25 3.14 213.63 3.37 214 3.6 210.73 8.74 210.46 8.57 210.18 8.41 209.9 8.25 209.62 8.1 209.34 7.95 209.05 7.81 208.76 7.67 208.48 7.54 208.19 7.41 207.9 7.29 207.6 7.18 207.31 7.07 207.02 6.97 206.72 6.87 206.43 6.78 206.13 6.7 205.84 6.62 205.54 6.54 205.25 6.48 204.96 6.41 204.37 6.3 203.79 6.21 203.21 6.15 202.63 6.1 202.06 6.07 201.5 6.06 201.5 -0.03"/></g><g id="HATCH-5" data-name="HATCH"><polygon class="cls-3" points="155.84 4.42 156.41 4.85 156.97 5.3 157.51 5.76 158.05 6.24 158.56 6.74 159.07 7.25 159.55 7.79 160.02 8.33 160.47 8.88 160.9 9.45 161.32 10.04 161.71 10.63 162.09 11.23 162.45 11.84 162.78 12.46 163.1 13.08 163.39 13.71 163.67 14.35 163.92 14.99 164.16 15.63 164.37 16.28 164.57 16.93 164.74 17.57 164.89 18.22 165.03 18.87 165.14 19.51 165.24 20.15 165.32 20.79 165.38 21.42 165.42 22.05 165.44 22.67 165.45 23.29 165.44 23.81 165.43 24.33 165.4 24.85 165.36 25.38 165.3 25.92 165.24 26.45 165.16 26.99 165.06 27.53 164.95 28.07 164.83 28.62 164.7 29.16 164.55 29.71 164.39 30.25 164.21 30.79 164.02 31.33 163.81 31.87 163.59 32.41 163.36 32.95 163.11 33.48 162.84 34 162.57 34.52 162.28 35.04 161.97 35.55 161.65 36.05 161.31 36.55 160.97 37.04 160.61 37.52 160.24 37.99 159.85 38.45 159.45 38.91 159.04 39.35 158.62 39.78 158.19 40.2 157.74 40.61 157.29 41.01 156.83 41.4 156.36 41.77 155.88 42.13 155.39 42.48 154.89 42.81 154.39 43.13 153.88 43.44 153.36 43.73 152.84 44.01 152.31 44.27 151.78 44.52 151.25 44.75 150.71 44.97 150.17 45.18 149.63 45.37 149.09 45.55 148.54 45.71 148 45.86 147.46 45.99 146.91 46.12 146.37 46.22 145.83 46.32 145.29 46.4 144.76 46.46 144.22 46.52 143.69 46.56 143.17 46.59 142.65 46.61 142.13 46.61 141.61 46.61 141.09 46.59 140.56 46.56 140.03 46.52 139.5 46.46 138.96 46.4 138.42 46.32 137.88 46.22 137.34 46.12 136.8 45.99 136.25 45.86 135.71 45.71 135.17 45.55 134.62 45.37 134.08 45.18 133.54 44.97 133.01 44.75 132.47 44.52 131.94 44.27 131.42 44.01 130.89 43.73 130.38 43.44 129.87 43.13 129.37 42.81 128.87 42.48 128.38 42.13 127.9 41.77 127.43 41.4 126.96 41.01 126.51 40.61 126.07 40.2 125.64 39.78 125.22 39.35 124.81 38.91 124.41 38.45 124.02 37.99 123.65 37.52 123.29 37.04 122.94 36.55 122.61 36.05 122.29 35.55 121.98 35.04 121.69 34.52 121.41 34 121.15 33.48 120.9 32.95 120.66 32.41 120.44 31.87 120.24 31.33 120.05 30.79 119.87 30.25 119.7 29.71 119.56 29.16 119.42 28.62 119.3 28.07 119.19 27.53 119.1 26.99 119.02 26.45 118.95 25.92 118.9 25.38 118.86 24.85 118.83 24.33 118.81 23.81 118.81 23.29 118.81 22.77 118.83 22.25 118.86 21.72 118.9 21.19 118.95 20.66 119.02 20.12 119.1 19.59 119.19 19.05 119.3 18.5 119.42 17.96 119.56 17.41 119.7 16.87 119.87 16.33 120.05 15.78 120.24 15.24 120.44 14.7 120.66 14.17 120.9 13.63 121.15 13.1 121.41 12.58 121.69 12.05 121.98 11.54 122.29 11.03 122.61 10.53 122.94 10.03 123.29 9.54 123.65 9.06 124.02 8.59 124.41 8.13 124.81 7.67 125.22 7.23 125.64 6.8 126.07 6.38 126.51 5.97 126.96 5.57 127.43 5.18 127.9 4.81 128.38 4.45 128.87 4.1 129.37 3.77 129.87 3.45 130.38 3.14 130.89 2.85 131.42 2.57 131.94 2.31 132.47 2.06 133.01 1.82 133.54 1.6 134.08 1.4 134.62 1.21 135.17 1.03 135.71 0.87 136.25 0.72 136.8 0.58 137.34 0.46 137.88 0.35 138.42 0.26 138.96 0.18 139.5 0.11 140.03 0.06 140.56 0.02 141.09 -0.01 141.61 -0.03 142.13 -0.03 142.13 6.06 141.7 6.07 141.28 6.08 140.86 6.11 140.44 6.15 140.03 6.19 139.61 6.25 139.21 6.31 138.81 6.39 138.41 6.47 138.02 6.56 137.63 6.66 137.25 6.77 136.88 6.88 136.51 7.01 136.14 7.14 135.79 7.27 135.43 7.42 135.08 7.57 134.72 7.73 134.37 7.91 134.02 8.09 133.67 8.28 133.32 8.48 132.98 8.69 132.63 8.91 132.29 9.14 131.96 9.38 131.62 9.63 131.29 9.89 130.97 10.16 130.65 10.44 130.34 10.73 130.03 11.03 129.72 11.34 129.43 11.65 129.14 11.97 128.86 12.31 128.58 12.65 128.31 13 128.06 13.35 127.81 13.72 127.56 14.09 127.33 14.47 127.11 14.85 126.9 15.24 126.69 15.64 126.5 16.04 126.32 16.45 126.15 16.86 125.99 17.27 125.84 17.69 125.7 18.12 125.57 18.54 125.45 18.97 125.35 19.4 125.25 19.83 125.17 20.27 125.1 20.7 125.04 21.13 124.99 21.57 124.95 22 124.92 22.43 124.91 22.86 124.9 23.29 124.91 23.72 124.92 24.14 124.95 24.56 124.98 24.98 125.03 25.39 125.09 25.8 125.15 26.21 125.22 26.61 125.31 27.01 125.4 27.4 125.5 27.78 125.61 28.16 125.72 28.54 125.84 28.91 125.97 29.27 126.11 29.63 126.26 29.98 126.41 30.34 126.57 30.69 126.75 31.04 126.93 31.39 127.12 31.75 127.32 32.09 127.53 32.44 127.75 32.78 127.98 33.12 128.22 33.46 128.47 33.79 128.73 34.12 129 34.45 129.28 34.77 129.57 35.08 129.87 35.39 130.17 35.69 130.49 35.99 130.81 36.28 131.15 36.56 131.49 36.84 131.84 37.1 132.19 37.36 132.56 37.61 132.93 37.85 133.31 38.08 133.69 38.31 134.08 38.52 134.48 38.72 134.88 38.91 135.29 39.1 135.7 39.27 136.11 39.43 136.53 39.58 136.96 39.72 137.38 39.85 137.81 39.97 138.24 40.07 138.67 40.16 139.1 40.25 139.54 40.32 139.97 40.38 140.4 40.43 140.84 40.47 141.27 40.49 141.7 40.51 142.13 40.52 142.56 40.51 142.98 40.49 143.4 40.47 143.82 40.43 144.23 40.39 144.64 40.33 145.05 40.27 145.45 40.19 145.84 40.11 146.24 40.02 146.62 39.92 147 39.81 147.38 39.7 147.75 39.57 148.11 39.44 148.47 39.3 148.82 39.16 149.18 39.01 149.53 38.84 149.88 38.67 150.23 38.49 150.58 38.3 150.93 38.09 151.28 37.88 151.62 37.66 151.96 37.43 152.3 37.19 152.63 36.94 152.96 36.68 153.28 36.41 153.6 36.13 153.92 35.85 154.23 35.55 154.53 35.24 154.83 34.93 155.12 34.6 155.4 34.27 155.67 33.93 155.94 33.58 156.2 33.22 156.45 32.86 156.69 32.49 156.92 32.11 157.15 31.73 157.36 31.34 157.56 30.94 157.75 30.54 157.94 30.13 158.11 29.72 158.27 29.3 158.42 28.88 158.56 28.46 158.69 28.04 158.8 27.61 158.91 27.18 159 26.75 159.09 26.31 159.16 25.88 159.22 25.45 159.27 25.01 159.31 24.58 159.33 24.15 159.35 23.72 159.35 23.29 159.35 22.86 159.33 22.44 159.31 22.02 159.27 21.6 159.22 21.18 159.17 20.77 159.1 20.37 159.03 19.97 158.95 19.57 158.86 19.18 158.76 18.79 158.65 18.41 158.53 18.04 158.41 17.67 158.28 17.3 158.14 16.95 157.93 16.43 157.69 15.91 157.44 15.39 157.16 14.88 156.86 14.37 156.55 13.86 156.38 13.61 156.21 13.36 156.03 13.12 155.85 12.87 155.66 12.63 155.47 12.39 155.27 12.15 155.07 11.92 154.86 11.68 154.65 11.46 154.43 11.23 154.2 11.01 153.98 10.79 153.74 10.57 153.51 10.36 153.26 10.15 153.02 9.94 152.77 9.74 152.51 9.54 152.25 9.35 155.84 4.42"/></g><g id="HATCH-6" data-name="HATCH"><polygon class="cls-3" points="201.5 6.06 201.12 6.07 200.73 6.08 200.34 6.1 199.95 6.13 199.56 6.17 199.16 6.22 198.77 6.28 198.37 6.35 197.97 6.43 197.56 6.52 197.16 6.62 196.76 6.73 196.36 6.85 195.96 6.98 195.56 7.12 195.16 7.27 194.76 7.43 194.37 7.61 193.98 7.79 193.59 7.99 193.2 8.19 192.82 8.41 192.45 8.63 192.07 8.87 191.71 9.12 191.35 9.37 190.99 9.64 190.64 9.91 190.3 10.2 189.97 10.49 189.64 10.8 189.32 11.11 189.01 11.43 188.71 11.76 188.41 12.09 188.13 12.43 187.85 12.78 187.59 13.13 187.33 13.5 187.08 13.86 186.85 14.23 186.62 14.61 186.41 14.99 186.2 15.38 186 15.77 185.82 16.16 185.65 16.55 185.48 16.95 185.33 17.35 185.19 17.75 185.06 18.15 184.94 18.55 184.83 18.95 184.73 19.35 184.64 19.75 184.56 20.15 184.49 20.55 184.43 20.95 184.38 21.35 184.34 21.74 184.31 22.13 184.29 22.52 184.28 22.91 184.28 23.29 184.28 23.67 184.29 24.06 184.31 24.45 184.34 24.84 184.38 25.23 184.43 25.63 184.49 26.02 184.56 26.42 184.64 26.82 184.73 27.23 184.83 27.63 184.94 28.03 185.06 28.43 185.19 28.83 185.33 29.23 185.48 29.63 185.65 30.03 185.82 30.42 186 30.81 186.2 31.2 186.41 31.59 186.62 31.97 186.85 32.34 187.08 32.72 187.33 33.08 187.59 33.44 187.85 33.8 188.13 34.15 188.41 34.49 188.71 34.82 189.01 35.15 189.32 35.47 189.64 35.78 189.97 36.08 190.3 36.38 190.64 36.66 190.99 36.94 191.35 37.2 191.71 37.46 192.07 37.71 192.45 37.94 192.82 38.17 193.2 38.38 193.59 38.59 193.98 38.78 194.37 38.97 194.76 39.14 195.16 39.3 195.56 39.46 195.96 39.6 196.36 39.73 196.76 39.85 197.16 39.96 197.56 40.06 197.97 40.15 198.37 40.23 198.77 40.3 199.16 40.35 199.56 40.41 199.95 40.45 200.34 40.48 200.73 40.5 201.12 40.51 201.5 40.52 201.88 40.51 202.27 40.5 202.66 40.48 203.05 40.45 203.44 40.41 203.84 40.35 204.24 40.3 204.63 40.23 205.04 40.15 205.44 40.06 205.84 39.96 206.24 39.85 206.64 39.73 207.04 39.6 207.44 39.46 207.84 39.3 208.24 39.14 208.63 38.97 209.02 38.78 209.41 38.59 209.8 38.38 210.18 38.17 210.56 37.94 210.93 37.71 211.29 37.46 211.66 37.2 212.01 36.94 212.36 36.66 212.7 36.38 213.03 36.08 213.36 35.78 213.68 35.47 213.99 35.15 214.29 34.82 214.59 34.49 214.87 34.15 215.15 33.8 215.42 33.44 215.67 33.08 215.92 32.72 216.16 32.34 216.38 31.97 216.6 31.59 216.8 31.2 217 30.81 217.18 30.42 217.35 30.03 217.52 29.63 217.67 29.23 217.81 28.83 217.94 28.43 218.06 28.03 218.17 27.63 218.27 27.23 218.36 26.82 218.44 26.42 218.51 26.02 218.57 25.63 218.62 25.23 218.66 24.84 218.69 24.45 218.71 24.06 218.72 23.67 218.73 23.29 218.72 22.8 218.7 22.31 218.66 21.82 218.61 21.32 218.55 20.82 218.47 20.31 218.37 19.81 218.26 19.3 218.13 18.79 217.98 18.28 217.82 17.77 217.64 17.27 217.44 16.76 217.23 16.26 217 15.77 216.75 15.28 216.48 14.79 216.2 14.31 215.9 13.84 215.59 13.38 215.26 12.92 214.91 12.48 214.55 12.04 214.18 11.62 213.79 11.21 213.38 10.82 212.97 10.44 212.54 10.07 212.1 9.71 211.66 9.38 211.2 9.05 210.73 8.74 214 3.6 214.63 4.01 215.25 4.45 215.86 4.91 216.45 5.39 217.03 5.89 217.59 6.41 218.14 6.94 218.66 7.5 219.17 8.07 219.66 8.65 220.13 9.25 220.57 9.87 221 10.49 221.41 11.13 221.79 11.78 222.15 12.44 222.48 13.1 222.8 13.78 223.09 14.45 223.35 15.14 223.6 15.82 223.82 16.51 224.01 17.2 224.19 17.89 224.34 18.57 224.47 19.26 224.58 19.95 224.67 20.62 224.74 21.3 224.79 21.97 224.81 22.63 224.82 23.29 224.82 23.81 224.8 24.33 224.77 24.85 224.73 25.38 224.68 25.92 224.61 26.45 224.53 26.99 224.43 27.53 224.33 28.07 224.21 28.62 224.07 29.16 223.92 29.71 223.76 30.25 223.58 30.79 223.39 31.33 223.19 31.87 222.97 32.41 222.73 32.95 222.48 33.48 222.22 34 221.94 34.52 221.65 35.04 221.34 35.55 221.02 36.05 220.69 36.55 220.34 37.04 219.98 37.52 219.61 37.99 219.22 38.45 218.82 38.91 218.41 39.35 217.99 39.78 217.56 40.2 217.12 40.61 216.66 41.01 216.2 41.4 215.73 41.77 215.25 42.13 214.76 42.48 214.26 42.81 213.76 43.13 213.25 43.44 212.73 43.73 212.21 44.01 211.69 44.27 211.16 44.52 210.62 44.75 210.09 44.97 209.55 45.18 209 45.37 208.46 45.55 207.92 45.71 207.37 45.86 206.83 45.99 206.29 46.12 205.75 46.22 205.2 46.32 204.67 46.4 204.13 46.46 203.6 46.52 203.07 46.56 202.54 46.59 202.02 46.61 201.5 46.61 200.98 46.61 200.46 46.59 199.94 46.56 199.41 46.52 198.87 46.46 198.34 46.4 197.8 46.32 197.26 46.22 196.72 46.12 196.17 45.99 195.63 45.86 195.08 45.71 194.54 45.55 194 45.37 193.46 45.18 192.92 44.97 192.38 44.75 191.84 44.52 191.31 44.27 190.79 44.01 190.27 43.73 189.75 43.44 189.24 43.13 188.74 42.81 188.24 42.48 187.75 42.13 187.27 41.77 186.8 41.4 186.34 41.01 185.88 40.61 185.44 40.2 185.01 39.78 184.59 39.35 184.18 38.91 183.78 38.45 183.39 37.99 183.02 37.52 182.66 37.04 182.31 36.55 181.98 36.05 181.66 35.55 181.35 35.04 181.06 34.52 180.78 34 180.52 33.48 180.27 32.95 180.04 32.41 179.81 31.87 179.61 31.33 179.42 30.79 179.24 30.25 179.08 29.71 178.93 29.16 178.79 28.62 178.67 28.07 178.57 27.53 178.47 26.99 178.39 26.45 178.33 25.92 178.27 25.38 178.23 24.85 178.2 24.33 178.18 23.81 178.18 23.29 178.18 22.77 178.2 22.25 178.23 21.72 178.27 21.19 178.33 20.66 178.39 20.12 178.47 19.59 178.57 19.05 178.67 18.5 178.79 17.96 178.93 17.41 179.08 16.87 179.24 16.33 179.42 15.78 179.61 15.24 179.81 14.7 180.04 14.17 180.27 13.63 180.52 13.1 180.78 12.58 181.06 12.05 181.35 11.54 181.66 11.03 181.98 10.53 182.31 10.03 182.66 9.54 183.02 9.06 183.39 8.59 183.78 8.13 184.18 7.67 184.59 7.23 185.01 6.8 185.44 6.38 185.88 5.97 186.34 5.57 186.8 5.18 187.27 4.81 187.75 4.45 188.24 4.1 188.74 3.77 189.24 3.45 189.75 3.14 190.27 2.85 190.79 2.57 191.31 2.31 191.84 2.06 192.38 1.82 192.92 1.6 193.46 1.4 194 1.21 194.54 1.03 195.08 0.87 195.63 0.72 196.17 0.58 196.72 0.46 197.26 0.35 197.8 0.26 198.34 0.18 198.87 0.11 199.41 0.06 199.94 0.02 200.46 -0.01 200.98 -0.03 201.5 -0.03 201.5 6.06"/></g><g id="HATCH-7" data-name="HATCH"><polygon class="cls-3" points="82.75 6.06 82.4 6.07 82.04 6.08 81.68 6.1 81.33 6.12 80.97 6.16 80.62 6.2 80.27 6.24 79.92 6.3 79.58 6.36 79.23 6.43 78.89 6.5 78.55 6.58 78.22 6.67 77.89 6.76 77.56 6.87 77.23 6.97 76.91 7.08 76.6 7.2 76.28 7.32 75.98 7.45 75.67 7.59 75.37 7.72 75.08 7.87 74.78 8.02 74.5 8.17 74.22 8.33 73.94 8.49 73.67 8.65 73.4 8.82 73.14 9 72.88 9.17 72.63 9.35 72.32 9.58 72.02 9.82 71.72 10.06 71.42 10.32 71.12 10.58 70.83 10.86 70.55 11.14 70.26 11.43 69.98 11.73 69.71 12.04 69.45 12.35 69.19 12.68 68.93 13.01 68.68 13.35 68.44 13.7 68.21 14.06 67.98 14.42 67.77 14.79 67.56 15.17 67.36 15.56 67.17 15.95 66.99 16.35 66.82 16.75 66.65 17.16 66.5 17.58 66.36 18 66.23 18.42 66.11 18.85 66 19.28 65.9 19.72 65.82 20.15 65.74 20.59 65.68 21.04 65.62 21.48 65.58 21.92 65.55 22.36 65.53 22.81 65.53 23.25 65.53 23.7 65.55 24.14 65.58 24.58 65.61 25.02 65.67 25.45 65.72 25.88 65.8 26.31 65.88 26.74 65.97 27.16 66.07 27.57 66.18 27.98 66.3 28.39 66.43 28.79 66.57 29.19 66.72 29.58 66.87 29.96 67.04 30.34 67.21 30.71 67.39 31.07 67.57 31.43 67.77 31.78 67.97 32.12 68.17 32.45 68.38 32.78 68.6 33.1 68.82 33.41 69.04 33.71 69.26 34 69.5 34.29 69.74 34.57 69.99 34.86 70.25 35.13 70.52 35.41 70.79 35.68 71.07 35.95 71.36 36.21 71.66 36.47 71.97 36.72 72.28 36.97 72.61 37.21 72.94 37.44 73.27 37.67 73.62 37.89 73.97 38.1 74.32 38.31 74.69 38.51 75.06 38.7 75.43 38.88 75.81 39.05 76.2 39.22 76.59 39.37 76.99 39.52 77.39 39.66 77.79 39.78 78.2 39.9 78.61 40.01 79.03 40.11 79.44 40.19 79.86 40.27 80.28 40.34 80.71 40.39 81.13 40.44 81.56 40.47 81.98 40.5 82.4 40.51 82.83 40.51 83.25 40.51 83.67 40.49 84.09 40.46 84.51 40.42 84.93 40.38 85.34 40.32 85.75 40.25 86.16 40.17 86.56 40.09 86.96 39.99 87.35 39.89 87.74 39.78 88.13 39.66 88.51 39.52 88.88 39.39 89.25 39.24 89.62 39.09 89.97 38.93 90.33 38.76 90.67 38.59 91.01 38.41 91.34 38.22 91.67 38.03 91.98 37.83 95.25 42.98 94.88 43.21 94.51 43.44 94.13 43.65 93.75 43.86 93.36 44.06 92.98 44.25 92.59 44.44 92.2 44.61 91.81 44.78 91.41 44.95 91.02 45.1 90.62 45.24 90.22 45.38 89.83 45.51 89.43 45.64 89.03 45.75 88.63 45.86 88.23 45.96 87.83 46.05 87.43 46.14 86.64 46.29 85.85 46.41 85.06 46.5 84.29 46.56 83.52 46.6 82.75 46.61 82.24 46.61 81.72 46.59 81.19 46.56 80.66 46.52 80.13 46.46 79.59 46.4 79.05 46.32 78.51 46.22 77.97 46.12 77.42 45.99 76.88 45.86 76.34 45.71 75.79 45.55 75.25 45.37 74.71 45.18 74.17 44.97 73.63 44.75 73.1 44.52 72.57 44.27 72.04 44.01 71.52 43.73 71 43.44 70.5 43.13 69.99 42.81 69.5 42.48 69.01 42.13 68.53 41.77 68.05 41.4 67.59 41.01 67.14 40.61 66.69 40.2 66.26 39.78 65.84 39.35 65.43 38.91 65.03 38.45 64.65 37.99 64.28 37.52 63.91 37.04 63.57 36.55 63.23 36.05 62.91 35.55 62.61 35.04 62.31 34.52 62.04 34 61.77 33.48 61.52 32.95 61.29 32.41 61.07 31.87 60.86 31.33 60.67 30.79 60.49 30.25 60.33 29.71 60.18 29.16 60.05 28.62 59.93 28.07 59.82 27.53 59.73 26.99 59.65 26.45 59.58 25.92 59.53 25.38 59.48 24.85 59.45 24.33 59.44 23.81 59.43 23.29 59.44 22.77 59.45 22.25 59.48 21.72 59.53 21.19 59.58 20.66 59.65 20.12 59.73 19.59 59.82 19.05 59.93 18.5 60.05 17.96 60.18 17.41 60.33 16.87 60.49 16.33 60.67 15.78 60.86 15.24 61.07 14.7 61.29 14.17 61.52 13.63 61.77 13.1 62.04 12.58 62.31 12.05 62.61 11.54 62.91 11.03 63.23 10.53 63.57 10.03 63.91 9.54 64.28 9.06 64.65 8.59 65.03 8.13 65.43 7.67 65.84 7.23 66.26 6.8 66.69 6.38 67.14 5.97 67.59 5.57 68.05 5.18 68.53 4.81 69.01 4.45 69.5 4.1 69.99 3.77 70.5 3.45 71 3.14 71.52 2.85 72.04 2.57 72.57 2.31 73.1 2.06 73.63 1.82 74.17 1.6 74.71 1.4 75.25 1.21 75.79 1.03 76.34 0.87 76.88 0.72 77.42 0.58 77.97 0.46 78.51 0.35 79.05 0.26 79.59 0.18 80.13 0.11 80.66 0.06 81.19 0.02 81.72 -0.01 82.24 -0.03 82.75 -0.03 82.75 6.06"/></g><g id="HATCH-8" data-name="HATCH"><polygon class="cls-3" points="23.38 6.06 23 6.07 22.61 6.08 22.23 6.1 21.83 6.13 21.44 6.17 21.04 6.22 20.65 6.28 20.25 6.35 19.85 6.43 19.45 6.52 19.04 6.62 18.64 6.73 18.24 6.85 17.84 6.98 17.44 7.12 17.04 7.27 16.64 7.43 16.25 7.61 15.86 7.79 15.47 7.99 15.09 8.19 14.7 8.41 14.33 8.63 13.96 8.87 13.59 9.12 13.23 9.37 12.87 9.64 12.52 9.91 12.18 10.2 11.85 10.49 11.52 10.8 11.2 11.11 10.89 11.43 10.59 11.76 10.29 12.09 10.01 12.43 9.73 12.78 9.47 13.13 9.21 13.5 8.96 13.86 8.73 14.23 8.5 14.61 8.29 14.99 8.08 15.38 7.88 15.77 7.7 16.16 7.53 16.55 7.37 16.95 7.21 17.35 7.07 17.75 6.94 18.15 6.82 18.55 6.71 18.95 6.61 19.35 6.52 19.75 6.44 20.15 6.37 20.55 6.32 20.95 6.26 21.35 6.22 21.74 6.19 22.13 6.17 22.52 6.16 22.91 6.16 23.29 6.16 23.67 6.17 24.06 6.19 24.45 6.22 24.84 6.26 25.23 6.32 25.63 6.37 26.02 6.44 26.42 6.52 26.82 6.61 27.23 6.71 27.63 6.82 28.03 6.94 28.43 7.07 28.83 7.21 29.23 7.37 29.63 7.53 30.03 7.7 30.42 7.88 30.81 8.08 31.2 8.29 31.59 8.5 31.97 8.73 32.34 8.96 32.72 9.21 33.08 9.47 33.44 9.73 33.8 10.01 34.15 10.29 34.49 10.59 34.82 10.89 35.15 11.2 35.47 11.52 35.78 11.85 36.08 12.18 36.38 12.52 36.66 12.87 36.94 13.23 37.2 13.59 37.46 13.96 37.71 14.33 37.94 14.7 38.17 15.09 38.38 15.47 38.59 15.86 38.78 16.25 38.97 16.64 39.14 17.04 39.3 17.44 39.46 17.84 39.6 18.24 39.73 18.64 39.85 19.04 39.96 19.45 40.06 19.85 40.15 20.25 40.23 20.65 40.3 21.04 40.35 21.44 40.41 21.83 40.45 22.23 40.48 22.61 40.5 23 40.51 23.38 40.52 23.69 40.51 24 40.5 24.32 40.49 24.63 40.47 24.95 40.44 25.27 40.41 25.59 40.37 25.91 40.33 26.23 40.28 26.56 40.22 26.88 40.16 27.2 40.09 27.53 40.01 27.86 39.92 28.18 39.83 28.51 39.73 28.83 39.63 29.16 39.52 29.48 39.4 29.8 39.27 30.12 39.14 30.44 39 30.76 38.85 31.08 38.7 31.39 38.54 31.7 38.37 32.01 38.2 32.32 38.02 32.62 37.83 32.92 37.63 33.21 37.43 33.51 37.23 37.09 42.16 36.7 42.44 36.29 42.71 35.89 42.98 35.48 43.23 35.06 43.48 34.65 43.71 34.22 43.94 33.8 44.16 33.37 44.36 32.94 44.56 32.51 44.75 32.07 44.93 31.64 45.1 31.2 45.26 30.76 45.41 30.32 45.55 29.88 45.69 29.44 45.81 29 45.92 28.56 46.03 28.12 46.13 27.68 46.21 27.24 46.29 26.8 46.36 26.37 46.42 25.93 46.47 25.5 46.52 25.07 46.55 24.65 46.58 24.22 46.6 23.8 46.61 23.38 46.61 22.86 46.61 22.34 46.59 21.82 46.56 21.29 46.52 20.75 46.46 20.22 46.4 19.68 46.32 19.14 46.22 18.59 46.12 18.05 45.99 17.51 45.86 16.96 45.71 16.42 45.55 15.88 45.37 15.34 45.18 14.8 44.97 14.26 44.75 13.73 44.52 13.2 44.27 12.67 44.01 12.15 43.73 11.63 43.44 11.12 43.13 10.62 42.81 10.12 42.48 9.63 42.13 9.15 41.77 8.68 41.4 8.22 41.01 7.76 40.61 7.32 40.2 6.89 39.78 6.47 39.35 6.06 38.91 5.66 38.45 5.28 37.99 4.9 37.52 4.54 37.04 4.19 36.55 3.86 36.05 3.54 35.55 3.23 35.04 2.94 34.52 2.66 34 2.4 33.48 2.15 32.95 1.92 32.41 1.7 31.87 1.49 31.33 1.3 30.79 1.12 30.25 0.96 29.71 0.81 29.16 0.68 28.62 0.56 28.07 0.45 27.53 0.35 26.99 0.27 26.45 0.21 25.92 0.15 25.38 0.11 24.85 0.08 24.33 0.06 23.81 0.06 23.29 0.06 22.77 0.08 22.25 0.11 21.72 0.15 21.19 0.21 20.66 0.27 20.12 0.35 19.59 0.45 19.05 0.56 18.5 0.68 17.96 0.81 17.41 0.96 16.87 1.12 16.33 1.3 15.78 1.49 15.24 1.7 14.7 1.92 14.17 2.15 13.63 2.4 13.1 2.66 12.58 2.94 12.05 3.23 11.54 3.54 11.03 3.86 10.53 4.19 10.03 4.54 9.54 4.9 9.06 5.28 8.59 5.66 8.13 6.06 7.67 6.47 7.23 6.89 6.8 7.32 6.38 7.76 5.97 8.22 5.57 8.68 5.18 9.15 4.81 9.63 4.45 10.12 4.1 10.62 3.77 11.12 3.45 11.63 3.14 12.15 2.85 12.67 2.57 13.2 2.31 13.73 2.06 14.26 1.82 14.8 1.6 15.34 1.4 15.88 1.21 16.42 1.03 16.96 0.87 17.51 0.72 18.05 0.58 18.59 0.46 19.14 0.35 19.68 0.26 20.22 0.18 20.75 0.11 21.29 0.06 21.82 0.02 22.34 -0.01 22.86 -0.03 23.38 -0.03 23.38 6.06"/></g><text class="cls-4" transform="translate(16.68 26.74)">NC</text><text class="cls-5" transform="translate(76.54 26.74)">P<tspan class="cls-6" x="5.97" y="0">C</tspan></text><text class="cls-4" transform="translate(135.65 26.74)">HC</text><text class="cls-4" transform="translate(195.51 26.74)">EC</text></svg>