<svg id="Layer_1" data-name="Layer 1" xmlns="http://www.w3.org/2000/svg" viewBox="0 0 224.82 46.64"><defs><style>.cls-1{opacity:0.6;}.cls-2,.cls-4{fill:#005488;}.cls-2,.cls-3{fill-rule:evenodd;}.cls-3{fill:#e6e6e5;}.cls-4{font-size:10px;font-family:CooperHewitt-Bold, Cooper Hewitt;font-weight:700;}</style></defs><g id="HATCH" class="cls-1"><polygon class="cls-2" points="201.5 -0.01 202.28 0.01 203.07 0.05 203.86 0.11 204.67 0.21 205.07 0.27 205.47 0.34 205.88 0.41 206.29 0.49 206.69 0.58 207.1 0.68 207.51 0.78 207.92 0.89 208.33 1.01 208.73 1.14 209.14 1.28 209.55 1.43 209.95 1.58 210.35 1.74 210.76 1.91 211.16 2.09 211.55 2.27 211.95 2.47 212.34 2.67 212.73 2.88 213.12 3.1 213.5 3.32 213.89 3.55 214.26 3.8 214.64 4.04 215 4.3 215.37 4.57 215.73 4.84 216.08 5.12 216.43 5.4 216.78 5.69 217.12 5.99 217.45 6.3 217.78 6.61 218.1 6.93 218.41 7.26 218.72 7.59 219.02 7.93 219.32 8.27 219.61 8.62 219.89 8.97 220.16 9.33 220.43 9.69 220.69 10.06 220.94 10.43 221.18 10.8 221.42 11.18 221.65 11.57 221.87 11.95 222.08 12.34 222.28 12.74 222.48 13.13 222.67 13.53 222.85 13.93 223.02 14.33 223.19 14.73 217.52 16.98 217.4 16.68 217.27 16.38 217.14 16.09 217 15.79 216.85 15.5 216.7 15.21 216.54 14.92 216.38 14.64 216.21 14.36 216.04 14.08 215.86 13.8 215.67 13.52 215.48 13.25 215.28 12.98 215.08 12.72 214.87 12.46 214.66 12.2 214.44 11.95 214.22 11.7 213.99 11.46 213.76 11.21 213.52 10.98 213.28 10.75 213.03 10.52 212.78 10.3 212.53 10.09 212.27 9.87 212.01 9.67 211.74 9.47 211.47 9.27 211.2 9.08 210.93 8.9 210.65 8.72 210.37 8.55 210.08 8.38 209.8 8.22 209.51 8.07 209.22 7.92 208.93 7.77 208.63 7.64 208.34 7.51 208.04 7.38 207.74 7.26 207.44 7.15 207.14 7.04 206.84 6.94 206.54 6.84 206.24 6.76 205.94 6.67 205.64 6.59 205.34 6.52 205.04 6.46 204.74 6.4 204.44 6.34 204.14 6.29 203.84 6.25 203.25 6.18 202.66 6.13 202.08 6.1 201.5 6.09 201.5 -0.01"/></g><g id="HATCH-2" data-name="HATCH" class="cls-1"><polygon class="cls-2" points="142.13 -0.01 142.71 0 143.29 0.02 143.87 0.06 144.47 0.11 145.06 0.18 145.66 0.26 146.26 0.36 146.87 0.48 147.47 0.61 148.08 0.77 148.68 0.93 149.29 1.12 149.89 1.32 150.49 1.55 151.09 1.79 151.69 2.04 152.28 2.32 152.87 2.61 153.45 2.92 154.02 3.25 154.58 3.6 155.14 3.96 155.69 4.34 156.23 4.74 156.76 5.15 157.27 5.58 157.78 6.02 158.27 6.48 158.75 6.96 159.21 7.44 159.66 7.94 160.1 8.45 155.4 12.34 155.11 11.99 154.81 11.66 154.49 11.32 154.17 11 153.83 10.68 153.49 10.37 153.13 10.07 152.77 9.77 152.4 9.48 152.01 9.21 151.62 8.94 151.22 8.69 150.81 8.44 150.39 8.2 149.97 7.98 149.54 7.76 149.1 7.56 148.65 7.38 148.21 7.2 147.75 7.04 147.29 6.88 146.83 6.75 146.37 6.62 145.9 6.51 145.43 6.41 144.96 6.33 144.49 6.25 144.01 6.2 143.54 6.15 143.07 6.12 142.6 6.1 142.13 6.09 142.13 -0.01"/></g><g id="HATCH-3" data-name="HATCH"><polygon class="cls-2" points="82.75 40.54 83.14 40.54 83.52 40.53 83.91 40.5 84.3 40.47 84.7 40.43 85.09 40.38 85.49 40.33 85.89 40.26 86.29 40.18 86.69 40.09 87.09 39.99 87.49 39.88 87.9 39.76 88.3 39.63 88.7 39.49 89.09 39.33 89.49 39.17 89.89 39 90.28 38.81 90.67 38.62 91.05 38.41 91.43 38.2 91.81 37.97 92.18 37.73 92.55 37.49 92.91 37.23 93.26 36.97 93.61 36.69 93.95 36.41 94.29 36.11 94.62 35.81 94.94 35.5 95.25 35.18 95.55 34.85 95.84 34.52 96.13 34.17 96.4 33.83 96.67 33.47 96.93 33.11 97.17 32.74 97.41 32.37 97.64 32 97.85 31.61 98.06 31.23 98.25 30.84 98.44 30.45 98.61 30.05 98.77 29.66 98.92 29.26 99.06 28.86 99.19 28.46 99.32 28.06 99.42 27.66 99.53 27.25 99.61 26.85 99.69 26.45 99.76 26.05 99.82 25.66 99.87 25.26 99.91 24.86 99.94 24.47 99.96 24.09 99.98 23.7 99.98 23.32 99.98 22.93 99.96 22.55 99.94 22.16 99.91 21.77 99.87 21.38 99.82 20.98 99.76 20.58 99.69 20.18 99.61 19.78 99.53 19.38 99.42 18.98 99.32 18.58 99.19 18.18 99.06 17.77 98.92 17.38 98.77 16.98 98.61 16.58 98.44 16.19 98.25 15.79 98.06 15.4 97.85 15.02 97.64 14.64 97.41 14.26 97.17 13.89 96.93 13.52 96.67 13.16 96.4 12.81 96.13 12.46 95.84 12.12 95.55 11.78 95.25 11.46 94.94 11.14 94.62 10.82 94.29 10.52 93.95 10.23 93.61 9.94 93.26 9.67 92.91 9.4 92.55 9.15 92.18 8.9 91.81 8.66 91.43 8.44 91.05 8.22 90.67 8.02 90.28 7.82 89.89 7.64 89.49 7.46 89.09 7.3 88.7 7.15 88.3 7.01 87.9 6.88 87.49 6.76 87.09 6.65 86.69 6.55 86.29 6.46 85.89 6.38 85.49 6.31 85.09 6.25 84.7 6.2 84.3 6.16 83.91 6.13 83.52 6.11 83.14 6.1 82.75 6.09 82.75 -0.01 83.27 0 83.79 0.02 84.32 0.05 84.85 0.09 85.38 0.14 85.92 0.21 86.46 0.29 87 0.38 87.54 0.49 88.08 0.61 88.63 0.75 89.17 0.9 89.72 1.06 90.26 1.23 90.8 1.43 91.34 1.63 91.88 1.85 92.41 2.09 92.94 2.34 93.47 2.6 93.99 2.88 94.5 3.17 95.01 3.48 95.52 3.8 96.01 4.13 96.5 4.48 96.98 4.84 97.45 5.21 97.92 5.6 98.37 5.99 98.81 6.4 99.25 6.83 99.67 7.26 100.08 7.7 100.48 8.15 100.86 8.62 101.23 9.09 101.59 9.57 101.94 10.06 102.28 10.55 102.6 11.06 102.9 11.57 103.19 12.08 103.47 12.61 103.74 13.13 103.98 13.66 104.22 14.2 104.44 14.73 104.65 15.27 104.84 15.81 105.01 16.36 105.18 16.9 105.33 17.44 105.46 17.99 105.58 18.53 105.69 19.07 105.78 19.61 105.86 20.15 105.93 20.69 105.98 21.22 106.03 21.75 106.05 22.28 106.07 22.8 106.08 23.32 106.07 23.84 106.05 24.36 106.03 24.88 105.98 25.41 105.93 25.95 105.86 26.48 105.78 27.02 105.69 27.56 105.58 28.1 105.46 28.65 105.33 29.19 105.18 29.73 105.01 30.28 104.84 30.82 104.65 31.36 104.44 31.9 104.22 32.44 103.98 32.97 103.74 33.5 103.47 34.03 103.19 34.55 102.9 35.07 102.6 35.58 102.28 36.08 101.94 36.58 101.59 37.06 101.23 37.55 100.86 38.02 100.48 38.48 100.08 38.93 99.67 39.38 99.25 39.81 98.81 40.23 98.37 40.64 97.92 41.04 97.45 41.42 96.98 41.8 96.5 42.16 96.01 42.51 95.52 42.84 95.01 43.16 94.5 43.47 93.99 43.76 93.47 44.03 92.94 44.3 92.41 44.55 91.88 44.78 91.34 45 90.8 45.21 90.26 45.4 89.72 45.58 89.17 45.74 88.63 45.89 88.08 46.02 87.54 46.14 87 46.25 86.46 46.34 85.92 46.42 85.38 46.49 84.85 46.55 84.32 46.59 83.79 46.62 83.27 46.63 82.75 46.64 82.75 40.54"/></g><g id="HATCH-4" data-name="HATCH" class="cls-1"><polygon class="cls-2" points="35.94 11.53 35.66 11.24 35.38 10.96 35.09 10.68 34.78 10.4 34.47 10.14 34.15 9.87 33.82 9.62 33.48 9.36 33.14 9.12 32.78 8.88 32.42 8.65 32.05 8.43 31.66 8.21 31.28 8.01 30.88 7.81 30.48 7.62 30.07 7.44 29.66 7.28 29.23 7.12 28.81 6.97 28.37 6.83 27.94 6.7 27.49 6.59 27.05 6.49 26.6 6.39 26.14 6.31 25.69 6.25 25.23 6.19 24.77 6.15 24.31 6.12 23.84 6.1 23.38 6.09 23.38 -0.01 24.08 0.01 24.78 0.04 25.49 0.09 26.21 0.17 26.93 0.27 27.66 0.39 28.39 0.54 29.12 0.71 29.85 0.91 30.58 1.13 31.31 1.38 32.03 1.66 32.75 1.96 33.47 2.29 34.17 2.64 34.87 3.02 35.56 3.43 36.24 3.86 36.9 4.31 37.55 4.79 38.18 5.29 38.8 5.82 39.4 6.36 39.98 6.93 40.54 7.52 41.08 8.12 41.59 8.75 42.09 9.39 42.56 10.04 43 10.71 43.42 11.39 43.82 12.08 38.48 15.02 38.2 14.53 37.91 14.06 37.6 13.6 37.29 13.15 36.97 12.72 36.63 12.31 36.29 11.91 35.94 11.53"/></g><g id="HATCH-5" data-name="HATCH"><polygon class="cls-3" points="201.5 6.09 201.12 6.1 200.73 6.11 200.34 6.13 199.95 6.16 199.56 6.2 199.16 6.25 198.77 6.31 198.37 6.38 197.97 6.46 197.56 6.55 197.16 6.65 196.76 6.76 196.36 6.88 195.96 7.01 195.56 7.15 195.16 7.3 194.76 7.46 194.37 7.64 193.98 7.82 193.59 8.02 193.2 8.22 192.82 8.44 192.45 8.66 192.07 8.9 191.71 9.15 191.35 9.4 190.99 9.67 190.64 9.94 190.3 10.23 189.97 10.52 189.64 10.82 189.32 11.14 189.01 11.46 188.71 11.78 188.41 12.12 188.13 12.46 187.85 12.81 187.59 13.16 187.33 13.52 187.08 13.89 186.85 14.26 186.62 14.64 186.41 15.02 186.2 15.4 186 15.79 185.82 16.19 185.65 16.58 185.48 16.98 185.33 17.38 185.19 17.77 185.06 18.18 184.94 18.58 184.83 18.98 184.73 19.38 184.64 19.78 184.56 20.18 184.49 20.58 184.43 20.98 184.38 21.38 184.34 21.77 184.31 22.16 184.29 22.55 184.28 22.93 184.28 23.32 184.28 23.7 184.29 24.09 184.31 24.47 184.34 24.86 184.38 25.26 184.43 25.66 184.49 26.05 184.56 26.45 184.64 26.85 184.73 27.25 184.83 27.66 184.94 28.06 185.06 28.46 185.19 28.86 185.33 29.26 185.48 29.66 185.65 30.05 185.82 30.45 186 30.84 186.2 31.23 186.41 31.61 186.62 32 186.85 32.37 187.08 32.74 187.33 33.11 187.59 33.47 187.85 33.83 188.13 34.17 188.41 34.52 188.71 34.85 189.01 35.18 189.32 35.5 189.64 35.81 189.97 36.11 190.3 36.41 190.64 36.69 190.99 36.97 191.35 37.23 191.71 37.49 192.07 37.73 192.45 37.97 192.82 38.2 193.2 38.41 193.59 38.62 193.98 38.81 194.37 39 194.76 39.17 195.16 39.33 195.56 39.49 195.96 39.63 196.36 39.76 196.76 39.88 197.16 39.99 197.56 40.09 197.97 40.18 198.37 40.26 198.77 40.33 199.16 40.38 199.56 40.43 199.95 40.47 200.34 40.5 200.73 40.53 201.12 40.54 201.5 40.54 201.88 40.54 202.27 40.53 202.66 40.5 203.05 40.47 203.44 40.43 203.84 40.38 204.24 40.33 204.63 40.26 205.04 40.18 205.44 40.09 205.84 39.99 206.24 39.88 206.64 39.76 207.04 39.63 207.44 39.49 207.84 39.33 208.24 39.17 208.63 39 209.02 38.81 209.41 38.62 209.8 38.41 210.18 38.2 210.56 37.97 210.93 37.73 211.29 37.49 211.66 37.23 212.01 36.97 212.36 36.69 212.7 36.41 213.03 36.11 213.36 35.81 213.68 35.5 213.99 35.18 214.29 34.85 214.59 34.52 214.87 34.17 215.15 33.83 215.42 33.47 215.67 33.11 215.92 32.74 216.16 32.37 216.38 32 216.6 31.61 216.8 31.23 217 30.84 217.18 30.45 217.35 30.05 217.52 29.66 217.67 29.26 217.81 28.86 217.94 28.46 218.06 28.06 218.17 27.66 218.27 27.25 218.36 26.85 218.44 26.45 218.51 26.05 218.57 25.66 218.62 25.26 218.66 24.86 218.69 24.47 218.71 24.09 218.72 23.7 218.73 23.32 218.72 22.93 218.71 22.55 218.69 22.16 218.66 21.77 218.62 21.38 218.57 20.98 218.51 20.58 218.44 20.18 218.36 19.78 218.27 19.38 218.17 18.98 218.06 18.58 217.94 18.18 217.81 17.77 217.67 17.37 217.52 16.98 223.19 14.73 223.39 15.27 223.58 15.81 223.76 16.36 223.92 16.9 224.07 17.44 224.21 17.99 224.33 18.53 224.43 19.07 224.53 19.61 224.61 20.15 224.68 20.69 224.73 21.22 224.77 21.75 224.8 22.28 224.82 22.8 224.82 23.32 224.82 23.84 224.8 24.36 224.77 24.88 224.73 25.41 224.68 25.95 224.61 26.48 224.53 27.02 224.43 27.56 224.33 28.1 224.21 28.65 224.07 29.19 223.92 29.73 223.76 30.28 223.58 30.82 223.39 31.36 223.19 31.9 222.97 32.44 222.73 32.97 222.48 33.5 222.22 34.03 221.94 34.55 221.65 35.07 221.34 35.58 221.02 36.08 220.69 36.58 220.34 37.06 219.98 37.55 219.61 38.02 219.22 38.48 218.82 38.93 218.41 39.38 217.99 39.81 217.56 40.23 217.12 40.64 216.66 41.04 216.2 41.42 215.73 41.8 215.25 42.16 214.76 42.51 214.26 42.84 213.76 43.16 213.25 43.47 212.73 43.76 212.21 44.03 211.69 44.3 211.16 44.55 210.62 44.78 210.09 45 209.55 45.21 209 45.4 208.46 45.58 207.92 45.74 207.37 45.89 206.83 46.02 206.29 46.14 205.75 46.25 205.2 46.34 204.67 46.42 204.13 46.49 203.6 46.55 203.07 46.59 202.54 46.62 202.02 46.63 201.5 46.64 200.98 46.63 200.46 46.62 199.94 46.59 199.41 46.55 198.87 46.49 198.34 46.42 197.8 46.34 197.26 46.25 196.72 46.14 196.17 46.02 195.63 45.89 195.08 45.74 194.54 45.58 194 45.4 193.46 45.21 192.92 45 192.38 44.78 191.84 44.55 191.31 44.3 190.79 44.03 190.27 43.76 189.75 43.47 189.24 43.16 188.74 42.84 188.24 42.51 187.75 42.16 187.27 41.8 186.8 41.42 186.34 41.04 185.88 40.64 185.44 40.23 185.01 39.81 184.59 39.38 184.18 38.93 183.78 38.48 183.39 38.02 183.02 37.55 182.66 37.06 182.31 36.58 181.98 36.08 181.66 35.58 181.35 35.07 181.06 34.55 180.78 34.03 180.52 33.5 180.27 32.97 180.04 32.44 179.81 31.9 179.61 31.36 179.42 30.82 179.24 30.28 179.08 29.73 178.93 29.19 178.79 28.65 178.67 28.1 178.57 27.56 178.47 27.02 178.39 26.48 178.33 25.95 178.27 25.41 178.23 24.88 178.2 24.36 178.18 23.84 178.18 23.32 178.18 22.8 178.2 22.28 178.23 21.75 178.27 21.22 178.33 20.69 178.39 20.15 178.47 19.61 178.57 19.07 178.67 18.53 178.79 17.99 178.93 17.44 179.08 16.9 179.24 16.36 179.42 15.81 179.61 15.27 179.81 14.73 180.04 14.2 180.27 13.66 180.52 13.13 180.78 12.61 181.06 12.08 181.35 11.57 181.66 11.06 181.98 10.55 182.31 10.06 182.66 9.57 183.02 9.09 183.39 8.62 183.78 8.15 184.18 7.7 184.59 7.26 185.01 6.83 185.44 6.4 185.88 5.99 186.34 5.6 186.8 5.21 187.27 4.84 187.75 4.48 188.24 4.13 188.74 3.8 189.24 3.48 189.75 3.17 190.27 2.88 190.79 2.6 191.31 2.34 191.84 2.09 192.38 1.85 192.92 1.63 193.46 1.43 194 1.23 194.54 1.06 195.08 0.9 195.63 0.75 196.17 0.61 196.72 0.49 197.26 0.38 197.8 0.29 198.34 0.21 198.87 0.14 199.41 0.09 199.94 0.05 200.46 0.02 200.98 0 201.5 -0.01 201.5 6.09"/></g><g id="HATCH-6" data-name="HATCH"><polygon class="cls-3" points="142.13 6.09 141.63 6.1 141.13 6.12 140.64 6.16 140.15 6.21 139.67 6.27 139.19 6.34 138.72 6.43 138.25 6.53 137.79 6.65 137.34 6.77 136.9 6.91 136.46 7.05 136.03 7.21 135.61 7.37 135.2 7.55 134.79 7.73 134.45 7.9 134.11 8.07 133.76 8.26 133.42 8.45 133.08 8.66 132.75 8.87 132.41 9.09 132.08 9.33 131.75 9.57 131.43 9.82 131.1 10.08 130.79 10.35 130.47 10.63 130.17 10.92 129.87 11.22 129.57 11.53 129.28 11.84 129 12.17 128.72 12.5 128.45 12.84 128.19 13.19 127.94 13.55 127.7 13.91 127.46 14.29 127.23 14.66 127.02 15.05 126.81 15.44 126.61 15.84 126.42 16.24 126.24 16.65 126.08 17.07 125.92 17.48 125.78 17.9 125.64 18.33 125.52 18.76 125.4 19.19 125.3 19.62 125.21 20.05 125.14 20.49 125.07 20.93 125.01 21.36 124.97 21.8 124.94 22.24 124.91 22.67 124.9 23.11 124.9 23.54 124.91 23.97 124.94 24.4 124.97 24.82 125.01 25.25 125.06 25.66 125.13 26.08 125.2 26.49 125.28 26.9 125.37 27.3 125.47 27.69 125.57 28.08 125.69 28.47 125.81 28.85 125.94 29.22 126.08 29.59 126.23 29.95 126.38 30.3 126.54 30.65 126.71 31 126.88 31.34 127.07 31.68 127.26 32.02 127.47 32.36 127.68 32.7 127.9 33.03 128.14 33.37 128.38 33.69 128.63 34.02 128.89 34.34 129.16 34.66 129.44 34.97 129.73 35.28 130.03 35.58 130.34 35.87 130.65 36.16 130.98 36.45 131.31 36.72 131.65 36.99 132 37.25 132.36 37.51 132.72 37.75 133.09 37.98 133.47 38.21 133.86 38.43 134.25 38.64 134.65 38.84 135.05 39.02 135.46 39.2 135.88 39.37 136.29 39.52 136.71 39.67 137.14 39.8 137.57 39.93 138 40.04 138.43 40.14 138.87 40.23 139.3 40.31 139.74 40.38 140.18 40.43 140.61 40.48 141.05 40.51 141.48 40.53 141.92 40.54 142.35 40.54 142.78 40.53 143.21 40.51 143.63 40.48 144.06 40.44 144.48 40.38 144.89 40.32 145.3 40.25 145.71 40.17 146.11 40.08 146.5 39.98 146.89 39.87 147.28 39.76 147.66 39.63 148.03 39.5 148.4 39.36 148.76 39.22 149.11 39.06 149.46 38.9 149.81 38.74 150.15 38.56 150.49 38.38 150.83 38.18 151.17 37.98 151.51 37.76 151.84 37.54 152.18 37.31 152.5 37.07 152.83 36.81 153.15 36.55 153.47 36.28 153.78 36 154.09 35.72 154.39 35.42 154.69 35.11 154.97 34.79 155.26 34.47 155.53 34.13 155.8 33.79 156.06 33.44 156.31 33.09 156.56 32.72 156.8 32.35 157.02 31.97 157.24 31.59 157.45 31.19 157.65 30.8 157.83 30.39 158.01 29.98 158.18 29.57 158.34 29.15 158.48 28.73 158.62 28.31 158.74 27.88 158.85 27.45 158.95 27.01 159.04 26.58 159.12 26.14 159.19 25.71 159.24 25.27 159.29 24.83 159.32 24.4 159.34 23.96 159.35 23.53 159.35 23.09 159.34 22.66 159.32 22.23 159.29 21.81 159.25 21.39 159.19 20.97 159.13 20.55 159.06 20.14 158.98 19.74 158.89 19.34 158.79 18.94 158.68 18.55 158.56 18.17 158.44 17.79 158.31 17.41 158.17 17.05 158.03 16.68 157.87 16.33 157.71 15.98 157.49 15.52 157.24 15.05 156.98 14.59 156.7 14.13 156.4 13.67 156.08 13.22 155.75 12.78 155.4 12.34 160.1 8.45 160.43 8.87 160.76 9.29 161.07 9.72 161.38 10.15 161.67 10.59 161.96 11.04 162.23 11.49 162.49 11.95 162.74 12.41 162.98 12.87 163.21 13.34 163.43 13.81 163.63 14.28 163.82 14.76 164.01 15.24 164.18 15.72 164.34 16.2 164.49 16.68 164.62 17.16 164.75 17.64 164.87 18.13 164.97 18.61 165.06 19.09 165.15 19.57 165.22 20.04 165.28 20.52 165.34 20.99 165.38 21.46 165.41 21.93 165.43 22.4 165.45 22.86 165.45 23.32 165.44 23.84 165.43 24.36 165.4 24.88 165.36 25.41 165.3 25.95 165.24 26.48 165.16 27.02 165.06 27.56 164.95 28.1 164.83 28.65 164.7 29.19 164.55 29.73 164.39 30.28 164.21 30.82 164.02 31.36 163.81 31.9 163.59 32.44 163.36 32.97 163.11 33.5 162.84 34.03 162.57 34.55 162.28 35.07 161.97 35.58 161.65 36.08 161.31 36.58 160.97 37.06 160.61 37.55 160.24 38.02 159.85 38.48 159.45 38.93 159.04 39.38 158.62 39.81 158.19 40.23 157.74 40.64 157.29 41.04 156.83 41.42 156.36 41.8 155.88 42.16 155.39 42.51 154.89 42.84 154.39 43.16 153.88 43.47 153.36 43.76 152.84 44.03 152.31 44.3 151.78 44.55 151.25 44.78 150.71 45 150.17 45.21 149.63 45.4 149.09 45.58 148.54 45.74 148 45.89 147.46 46.02 146.91 46.14 146.37 46.25 145.83 46.34 145.29 46.42 144.76 46.49 144.22 46.55 143.69 46.59 143.17 46.62 142.65 46.63 142.13 46.64 141.61 46.63 141.09 46.62 140.56 46.59 140.03 46.55 139.5 46.49 138.96 46.42 138.42 46.34 137.88 46.25 137.34 46.14 136.8 46.02 136.25 45.89 135.71 45.74 135.17 45.58 134.62 45.4 134.08 45.21 133.54 45 133.01 44.78 132.47 44.55 131.94 44.3 131.42 44.03 130.89 43.76 130.38 43.47 129.87 43.16 129.37 42.84 128.87 42.51 128.38 42.16 127.9 41.8 127.43 41.42 126.96 41.04 126.51 40.64 126.07 40.23 125.64 39.81 125.22 39.38 124.81 38.93 124.41 38.48 124.02 38.02 123.65 37.55 123.29 37.06 122.94 36.58 122.61 36.08 122.29 35.58 121.98 35.07 121.69 34.55 121.41 34.03 121.15 33.5 120.9 32.97 120.66 32.44 120.44 31.9 120.24 31.36 120.05 30.82 119.87 30.28 119.7 29.73 119.56 29.19 119.42 28.65 119.3 28.1 119.19 27.56 119.1 27.02 119.02 26.48 118.95 25.95 118.9 25.41 118.86 24.88 118.83 24.36 118.81 23.84 118.81 23.32 118.81 22.8 118.83 22.28 118.86 21.75 118.9 21.22 118.95 20.69 119.02 20.15 119.1 19.61 119.19 19.07 119.3 18.53 119.42 17.99 119.56 17.44 119.7 16.9 119.87 16.36 120.05 15.81 120.24 15.27 120.44 14.73 120.66 14.2 120.9 13.66 121.15 13.13 121.41 12.61 121.69 12.08 121.98 11.57 122.29 11.06 122.61 10.55 122.94 10.06 123.29 9.57 123.65 9.09 124.02 8.62 124.41 8.15 124.81 7.7 125.22 7.26 125.64 6.83 126.07 6.4 126.51 5.99 126.96 5.6 127.43 5.21 127.9 4.84 128.38 4.48 128.87 4.13 129.37 3.8 129.87 3.48 130.38 3.17 130.89 2.88 131.42 2.6 131.94 2.34 132.47 2.09 133.01 1.85 133.54 1.63 134.08 1.43 134.62 1.23 135.17 1.06 135.71 0.9 136.25 0.75 136.8 0.61 137.34 0.49 137.88 0.38 138.42 0.29 138.96 0.21 139.5 0.14 140.03 0.09 140.56 0.05 141.09 0.02 141.61 0 142.13 -0.01 142.13 6.09"/></g><g id="HATCH-7" data-name="HATCH"><polygon class="cls-3" points="82.75 46.64 82.24 46.63 81.72 46.62 81.19 46.59 80.66 46.55 80.13 46.49 79.59 46.42 79.05 46.34 78.51 46.25 77.97 46.14 77.42 46.02 76.88 45.89 76.34 45.74 75.79 45.58 75.25 45.4 74.71 45.21 74.17 45 73.63 44.78 73.1 44.55 72.57 44.3 72.04 44.03 71.52 43.76 71 43.47 70.5 43.16 69.99 42.84 69.5 42.51 69.01 42.16 68.53 41.8 68.05 41.42 67.59 41.04 67.14 40.64 66.69 40.23 66.26 39.81 65.84 39.38 65.43 38.93 65.03 38.48 64.65 38.02 64.28 37.55 63.91 37.06 63.57 36.58 63.23 36.08 62.91 35.58 62.61 35.07 62.31 34.55 62.04 34.03 61.77 33.5 61.52 32.97 61.29 32.44 61.07 31.9 60.86 31.36 60.67 30.82 60.49 30.28 60.33 29.73 60.18 29.19 60.05 28.65 59.93 28.1 59.82 27.56 59.73 27.02 59.65 26.48 59.58 25.95 59.53 25.41 59.48 24.88 59.45 24.36 59.44 23.84 59.43 23.32 59.44 22.8 59.45 22.28 59.48 21.75 59.53 21.22 59.58 20.69 59.65 20.15 59.73 19.61 59.82 19.07 59.93 18.53 60.05 17.99 60.18 17.44 60.33 16.9 60.49 16.36 60.67 15.81 60.86 15.27 61.07 14.73 61.29 14.2 61.52 13.66 61.77 13.13 62.04 12.61 62.31 12.08 62.61 11.57 62.91 11.06 63.23 10.55 63.57 10.06 63.91 9.57 64.28 9.09 64.65 8.62 65.03 8.15 65.43 7.7 65.84 7.26 66.26 6.83 66.69 6.4 67.14 5.99 67.59 5.6 68.05 5.21 68.53 4.84 69.01 4.48 69.5 4.13 69.99 3.8 70.5 3.48 71 3.17 71.52 2.88 72.04 2.6 72.57 2.34 73.1 2.09 73.63 1.85 74.17 1.63 74.71 1.43 75.25 1.23 75.79 1.06 76.34 0.9 76.88 0.75 77.42 0.61 77.97 0.49 78.51 0.38 79.05 0.29 79.59 0.21 80.13 0.14 80.66 0.09 81.19 0.05 81.72 0.02 82.24 0 82.75 -0.01 82.75 6.09 82.37 6.1 81.99 6.11 81.6 6.13 81.21 6.16 80.81 6.2 80.42 6.25 80.02 6.31 79.62 6.38 79.22 6.46 78.82 6.55 78.42 6.65 78.02 6.76 77.61 6.88 77.21 7.01 76.81 7.15 76.41 7.3 76.02 7.46 75.62 7.64 75.23 7.82 74.84 8.02 74.46 8.22 74.08 8.44 73.7 8.66 73.33 8.9 72.96 9.15 72.6 9.4 72.25 9.67 71.9 9.94 71.56 10.23 71.22 10.52 70.89 10.82 70.57 11.14 70.26 11.46 69.96 11.78 69.67 12.12 69.38 12.46 69.11 12.81 68.84 13.16 68.58 13.52 68.34 13.89 68.1 14.26 67.87 14.64 67.66 15.02 67.45 15.4 67.26 15.79 67.07 16.19 66.9 16.58 66.74 16.98 66.59 17.38 66.44 17.77 66.31 18.18 66.19 18.58 66.08 18.98 65.98 19.38 65.89 19.78 65.82 20.18 65.75 20.58 65.69 20.98 65.64 21.38 65.6 21.77 65.57 22.16 65.55 22.55 65.53 22.93 65.53 23.32 65.53 23.7 65.55 24.09 65.57 24.47 65.6 24.86 65.64 25.26 65.69 25.66 65.75 26.05 65.82 26.45 65.89 26.85 65.98 27.25 66.08 27.66 66.19 28.06 66.31 28.46 66.44 28.86 66.59 29.26 66.74 29.66 66.9 30.05 67.07 30.45 67.26 30.84 67.45 31.23 67.66 31.61 67.87 32 68.1 32.37 68.34 32.74 68.58 33.11 68.84 33.47 69.11 33.83 69.38 34.17 69.67 34.52 69.96 34.85 70.26 35.18 70.57 35.5 70.89 35.81 71.22 36.11 71.56 36.41 71.9 36.69 72.25 36.97 72.6 37.23 72.96 37.49 73.33 37.73 73.7 37.97 74.08 38.2 74.46 38.41 74.84 38.62 75.23 38.81 75.62 39 76.02 39.17 76.41 39.33 76.81 39.49 77.21 39.63 77.61 39.76 78.02 39.88 78.42 39.99 78.82 40.09 79.22 40.18 79.62 40.26 80.02 40.33 80.42 40.38 80.81 40.43 81.21 40.47 81.6 40.5 81.99 40.53 82.37 40.54 82.75 40.54 82.75 46.64"/></g><g id="HATCH-8" data-name="HATCH"><polygon class="cls-3" points="43.82 12.08 44.18 12.77 44.52 13.46 44.83 14.16 45.12 14.87 45.38 15.57 45.62 16.29 45.83 17 46.02 17.71 46.19 18.43 46.33 19.14 46.45 19.85 46.54 20.55 46.61 21.25 46.66 21.95 46.7 22.64 46.7 23.32 46.7 23.84 46.68 24.36 46.65 24.88 46.61 25.41 46.56 25.95 46.49 26.48 46.41 27.02 46.31 27.56 46.21 28.1 46.09 28.65 45.95 29.19 45.8 29.73 45.64 30.28 45.46 30.82 45.27 31.36 45.07 31.9 44.85 32.44 44.61 32.97 44.36 33.5 44.1 34.03 43.82 34.55 43.53 35.07 43.22 35.58 42.9 36.08 42.57 36.58 42.22 37.06 41.86 37.55 41.49 38.02 41.1 38.48 40.7 38.93 40.3 39.38 39.87 39.81 39.44 40.23 39 40.64 38.55 41.04 38.08 41.42 37.61 41.8 37.13 42.16 36.64 42.51 36.14 42.84 35.64 43.16 35.13 43.47 34.62 43.76 34.09 44.03 33.57 44.3 33.04 44.55 32.5 44.78 31.97 45 31.43 45.21 30.89 45.4 30.34 45.58 29.8 45.74 29.25 45.89 28.71 46.02 28.17 46.14 27.63 46.25 27.09 46.34 26.55 46.42 26.01 46.49 25.48 46.55 24.95 46.59 24.42 46.62 23.9 46.63 23.38 46.64 22.86 46.63 22.34 46.62 21.82 46.59 21.29 46.55 20.75 46.49 20.22 46.42 19.68 46.34 19.14 46.25 18.59 46.14 18.05 46.02 17.51 45.89 16.96 45.74 16.42 45.58 15.88 45.4 15.34 45.21 14.8 45 14.26 44.78 13.73 44.55 13.2 44.3 12.67 44.03 12.15 43.76 11.63 43.47 11.12 43.16 10.62 42.84 10.12 42.51 9.63 42.16 9.15 41.8 8.68 41.42 8.22 41.04 7.76 40.64 7.32 40.23 6.89 39.81 6.47 39.38 6.06 38.93 5.66 38.48 5.28 38.02 4.9 37.55 4.54 37.06 4.19 36.58 3.86 36.08 3.54 35.58 3.23 35.07 2.94 34.55 2.66 34.03 2.4 33.5 2.15 32.97 1.92 32.44 1.7 31.9 1.49 31.36 1.3 30.82 1.12 30.28 0.96 29.73 0.81 29.19 0.68 28.65 0.56 28.1 0.45 27.56 0.35 27.02 0.27 26.48 0.21 25.95 0.15 25.41 0.11 24.88 0.08 24.36 0.06 23.84 0.06 23.32 0.06 22.8 0.08 22.28 0.11 21.75 0.15 21.22 0.21 20.69 0.27 20.15 0.35 19.61 0.45 19.07 0.56 18.53 0.68 17.99 0.81 17.44 0.96 16.9 1.12 16.36 1.3 15.81 1.49 15.27 1.7 14.73 1.92 14.2 2.15 13.66 2.4 13.13 2.66 12.61 2.94 12.08 3.23 11.57 3.54 11.06 3.86 10.55 4.19 10.06 4.54 9.57 4.9 9.09 5.28 8.62 5.66 8.15 6.06 7.7 6.47 7.26 6.89 6.83 7.32 6.4 7.76 5.99 8.22 5.6 8.68 5.21 9.15 4.84 9.63 4.48 10.12 4.13 10.62 3.8 11.12 3.48 11.63 3.17 12.15 2.88 12.67 2.6 13.2 2.34 13.73 2.09 14.26 1.85 14.8 1.63 15.34 1.43 15.88 1.23 16.42 1.06 16.96 0.9 17.51 0.75 18.05 0.61 18.59 0.49 19.14 0.38 19.68 0.29 20.22 0.21 20.75 0.14 21.29 0.09 21.82 0.05 22.34 0.02 22.86 0 23.38 -0.01 23.38 6.09 22.95 6.1 22.52 6.11 22.1 6.14 21.67 6.18 21.25 6.22 20.82 6.28 20.41 6.35 19.99 6.43 19.58 6.52 19.17 6.62 18.76 6.72 18.36 6.84 17.96 6.97 17.57 7.1 17.18 7.25 16.8 7.4 16.42 7.56 16.05 7.73 15.69 7.9 15.33 8.09 14.98 8.28 14.64 8.48 14.3 8.68 13.97 8.89 13.64 9.11 13.33 9.33 13.02 9.56 12.72 9.79 12.43 10.03 12.14 10.27 11.86 10.51 11.59 10.76 11.31 11.03 11.04 11.3 10.77 11.58 10.51 11.87 10.25 12.17 9.99 12.48 9.74 12.79 9.5 13.12 9.26 13.45 9.03 13.79 8.81 14.13 8.59 14.49 8.38 14.85 8.18 15.22 7.98 15.6 7.79 15.98 7.62 16.37 7.45 16.77 7.29 17.17 7.14 17.58 7 17.99 6.87 18.41 6.75 18.83 6.64 19.26 6.54 19.69 6.45 20.12 6.38 20.56 6.31 21 6.26 21.44 6.21 21.89 6.18 22.33 6.16 22.78 6.16 23.22 6.16 23.67 6.17 24.11 6.2 24.56 6.24 25 6.29 25.44 6.35 25.88 6.42 26.32 6.5 26.75 6.59 27.18 6.7 27.6 6.81 28.02 6.93 28.44 7.07 28.85 7.21 29.26 7.37 29.66 7.53 30.05 7.7 30.44 7.88 30.82 8.06 31.2 8.26 31.57 8.46 31.93 8.67 32.28 8.89 32.63 9.11 32.97 9.34 33.3 9.57 33.62 9.82 33.93 10.06 34.24 10.31 34.54 10.57 34.83 10.82 35.11 11.09 35.38 11.36 35.66 11.64 35.93 11.94 36.19 12.23 36.45 12.54 36.7 12.86 36.95 13.18 37.2 13.51 37.44 13.85 37.67 14.2 37.89 14.55 38.11 14.92 38.32 15.29 38.52 15.66 38.72 16.05 38.9 16.44 39.08 16.83 39.25 17.23 39.41 17.64 39.56 18.06 39.7 18.47 39.83 18.9 39.95 19.32 40.06 19.75 40.16 20.19 40.24 20.63 40.32 21.07 40.39 21.51 40.44 21.95 40.48 22.39 40.52 22.84 40.53 23.29 40.54 23.73 40.54 24.18 40.52 24.62 40.5 25.06 40.46 25.5 40.41 25.94 40.35 26.38 40.28 26.81 40.2 27.24 40.1 27.67 40 28.09 39.89 28.5 39.76 28.92 39.63 29.32 39.49 29.72 39.33 30.12 39.17 30.51 39 30.89 38.82 31.26 38.63 31.63 38.44 31.99 38.24 32.35 38.03 32.69 37.81 33.03 37.59 33.36 37.36 33.68 37.12 34 36.88 34.3 36.64 34.6 36.39 34.89 36.13 35.17 35.87 35.4 35.66 35.63 35.43 35.85 35.2 36.08 34.96 36.29 34.72 36.51 34.47 36.72 34.22 36.93 33.96 37.13 33.69 37.33 33.42 37.53 33.14 37.72 32.86 37.91 32.57 38.09 32.28 38.27 31.98 38.44 31.68 38.61 31.37 38.77 31.06 38.93 30.74 39.08 30.42 39.22 30.09 39.36 29.76 39.49 29.43 39.61 29.09 39.73 28.74 39.84 28.4 39.95 28.05 40.04 27.7 40.13 27.34 40.21 26.98 40.29 26.63 40.35 26.26 40.41 25.9 40.46 25.53 40.51 25.17 40.54 24.8 40.57 24.43 40.59 24.06 40.6 23.69 40.61 23.32 40.6 22.95 40.59 22.58 40.57 22.21 40.54 21.84 40.51 21.48 40.47 21.11 40.41 20.75 40.36 20.38 40.29 20.02 40.22 19.67 40.13 19.31 40.05 18.96 39.95 18.61 39.85 18.26 39.74 17.92 39.62 17.58 39.5 17.25 39.37 16.91 39.24 16.59 39.1 16.26 38.95 15.95 38.8 15.63 38.64 15.32 38.48 15.02 43.82 12.08"/></g><text class="cls-4" transform="translate(15.45 26.9)">WV</text><text class="cls-4" transform="translate(74.9 27.05)">WS</text><text class="cls-4" transform="translate(134.66 26.9)">WE</text><text class="cls-4" transform="translate(193.9 26.9)">WP</text></svg>