<svg id="Layer_1" data-name="Layer 1" xmlns="http://www.w3.org/2000/svg" viewBox="0 0 224.82 46.62"><defs><style>.cls-1{opacity:0.4;}.cls-2,.cls-4,.cls-5{fill:#016b62;}.cls-2,.cls-3{fill-rule:evenodd;}.cls-3{fill:#e6e6e5;}.cls-4,.cls-5{font-size:10px;font-family:CooperHewitt-Bold, Cooper Hewitt;font-weight:700;}.cls-5{letter-spacing:-0.01em;}.cls-6{letter-spacing:0em;}</style></defs><g id="HATCH" class="cls-1"><polygon class="cls-2" points="23.38 -0.02 24.06 -0.01 24.75 0.02 25.44 0.07 26.14 0.14 26.85 0.24 27.56 0.35 28.27 0.49 28.98 0.66 29.7 0.85 30.41 1.06 31.13 1.3 31.83 1.56 32.54 1.85 33.24 2.16 33.93 2.5 34.62 2.86 31.68 8.21 31.17 7.94 30.66 7.69 30.14 7.46 29.62 7.25 29.1 7.05 28.57 6.88 28.05 6.72 27.52 6.58 26.99 6.46 26.47 6.35 25.94 6.26 25.42 6.2 24.91 6.14 24.39 6.1 23.88 6.08 23.38 6.07 23.38 -0.02"/></g><g id="HATCH-2" data-name="HATCH" class="cls-1"><polygon class="cls-2" points="94.55 10.74 94.27 10.48 93.98 10.23 93.68 9.98 93.38 9.74 93.07 9.5 92.75 9.27 92.43 9.04 92.09 8.83 91.76 8.61 91.41 8.41 91.06 8.21 90.71 8.02 90.34 7.84 89.98 7.66 89.6 7.49 89.22 7.33 88.84 7.18 88.45 7.04 88.06 6.91 87.67 6.79 87.27 6.68 86.87 6.57 86.46 6.48 86.06 6.39 85.65 6.32 85.24 6.25 84.82 6.2 84.41 6.15 84 6.12 83.58 6.09 83.17 6.08 82.75 6.07 82.75 -0.02 83.25 -0.02 83.75 0 84.26 0.03 84.77 0.06 85.28 0.11 85.8 0.18 86.31 0.25 86.83 0.34 87.36 0.43 87.88 0.55 88.4 0.67 88.92 0.81 89.45 0.96 89.97 1.12 90.49 1.3 91.01 1.49 91.53 1.69 92.05 1.91 92.56 2.14 93.07 2.38 93.57 2.64 94.07 2.91 94.57 3.19 95.06 3.49 95.54 3.8 96.02 4.12 96.49 4.45 96.95 4.8 97.41 5.16 97.86 5.53 98.29 5.91 98.72 6.3 94.55 10.74"/></g><g id="HATCH-3" data-name="HATCH"><polygon class="cls-2" points="142.13 -0.02 142.65 -0.02 143.17 0 143.69 0.03 144.22 0.07 144.76 0.13 145.29 0.19 145.83 0.27 146.37 0.37 146.91 0.47 147.46 0.59 148 0.73 148.54 0.88 149.09 1.04 149.63 1.22 150.17 1.41 150.71 1.61 151.25 1.83 151.78 2.07 152.31 2.32 152.84 2.58 153.36 2.86 153.88 3.15 154.39 3.46 154.89 3.78 155.39 4.11 155.88 4.46 156.36 4.82 156.83 5.19 157.29 5.58 157.74 5.98 158.19 6.39 158.62 6.81 159.04 7.24 159.45 7.68 159.85 8.14 160.24 8.6 160.61 9.07 160.97 9.55 161.31 10.04 161.65 10.54 161.97 11.04 162.28 11.55 162.57 12.07 162.84 12.59 163.11 13.11 163.36 13.64 163.59 14.18 163.81 14.71 164.02 15.25 164.21 15.8 164.39 16.34 164.55 16.88 164.7 17.43 164.83 17.97 164.95 18.51 165.06 19.06 165.16 19.6 165.24 20.14 165.3 20.67 165.36 21.2 165.4 21.73 165.43 22.26 165.44 22.78 165.45 23.3 165.44 23.88 165.42 24.46 165.38 25.05 165.33 25.64 165.26 26.23 165.18 26.83 165.08 27.43 164.96 28.04 164.83 28.64 164.68 29.25 164.51 29.86 164.32 30.46 164.12 31.06 163.9 31.67 163.66 32.27 163.4 32.86 163.13 33.45 162.83 34.04 162.52 34.62 162.19 35.19 161.85 35.76 161.48 36.31 161.1 36.86 160.71 37.4 160.29 37.93 159.86 38.45 159.42 38.95 158.96 39.44 158.49 39.92 158 40.38 157.5 40.84 156.99 41.27 153.11 36.57 153.36 36.36 153.62 36.14 153.86 35.91 154.11 35.68 154.35 35.44 154.59 35.19 154.82 34.94 155.05 34.69 155.28 34.43 155.5 34.16 155.71 33.89 155.92 33.62 156.13 33.34 156.33 33.05 156.52 32.76 156.71 32.47 156.9 32.17 157.07 31.86 157.25 31.56 157.41 31.25 157.57 30.93 157.72 30.62 157.87 30.3 158.01 29.97 158.14 29.65 158.27 29.32 158.39 28.99 158.5 28.66 158.61 28.32 158.71 27.98 158.8 27.64 158.88 27.31 158.96 26.96 159.03 26.62 159.09 26.28 159.15 25.94 159.2 25.6 159.24 25.25 159.28 24.91 159.31 24.57 159.33 24.23 159.34 23.89 159.35 23.55 159.35 23.21 159.35 22.88 159.34 22.54 159.32 22.21 159.29 21.88 159.26 21.55 159.23 21.22 159.19 20.89 159.14 20.57 159.08 20.25 159.02 19.94 158.96 19.63 158.89 19.32 158.81 19.01 158.73 18.7 158.64 18.4 158.55 18.11 158.46 17.82 158.36 17.52 158.25 17.24 158.14 16.96 157.92 16.43 157.68 15.9 157.42 15.37 157.13 14.84 156.99 14.58 156.83 14.32 156.67 14.06 156.5 13.81 156.33 13.55 156.15 13.3 155.97 13.05 155.78 12.8 155.59 12.55 155.39 12.3 155.18 12.06 154.97 11.82 154.76 11.59 154.54 11.35 154.31 11.12 154.08 10.9 153.85 10.67 153.6 10.46 153.36 10.24 153.11 10.03 152.85 9.82 152.6 9.62 152.33 9.42 152.06 9.23 151.79 9.04 151.51 8.86 151.23 8.68 150.95 8.51 150.66 8.34 150.37 8.17 150.08 8.02 149.78 7.87 149.48 7.72 149.17 7.58 148.87 7.45 148.56 7.32 148.25 7.2 147.93 7.08 147.62 6.97 147.3 6.87 146.98 6.77 146.66 6.68 146.34 6.6 146.02 6.52 145.69 6.45 145.37 6.38 145.04 6.32 144.72 6.27 144.39 6.22 144.07 6.18 143.74 6.15 143.42 6.12 143.09 6.1 142.77 6.09 142.45 6.08 142.13 6.07 142.13 -0.02"/></g><g id="HATCH-4" data-name="HATCH"><polygon class="cls-2" points="201.5 -0.02 202.02 -0.02 202.54 0 203.07 0.03 203.6 0.07 204.13 0.13 204.67 0.19 205.2 0.27 205.75 0.37 206.29 0.47 206.83 0.59 207.37 0.73 207.92 0.88 208.46 1.04 209 1.22 209.55 1.41 210.09 1.61 210.62 1.83 211.16 2.07 211.69 2.32 212.21 2.58 212.73 2.86 213.25 3.15 213.76 3.46 214.26 3.78 214.76 4.11 215.25 4.46 215.73 4.82 216.2 5.19 216.66 5.58 217.12 5.98 217.56 6.39 217.99 6.81 218.41 7.24 218.82 7.68 219.22 8.14 219.61 8.6 219.98 9.07 220.34 9.55 220.69 10.04 221.02 10.54 221.34 11.04 221.65 11.55 221.94 12.07 222.22 12.59 222.48 13.11 222.73 13.64 222.97 14.18 223.19 14.71 223.39 15.25 223.58 15.8 223.76 16.34 223.92 16.88 224.07 17.43 224.21 17.97 224.33 18.51 224.43 19.06 224.53 19.6 224.61 20.14 224.68 20.67 224.73 21.2 224.77 21.73 224.8 22.26 224.82 22.78 224.82 23.3 224.81 23.96 224.79 24.62 224.74 25.29 224.67 25.96 224.58 26.64 224.47 27.33 224.34 28.01 224.19 28.7 224.01 29.39 223.82 30.08 223.6 30.77 223.35 31.45 223.09 32.13 222.8 32.81 222.48 33.48 222.15 34.15 221.79 34.81 221.41 35.46 221 36.09 220.57 36.72 220.13 37.34 219.66 37.94 219.17 38.52 218.66 39.09 218.14 39.65 217.59 40.18 217.03 40.7 216.45 41.2 215.86 41.68 215.25 42.14 214.63 42.58 214 42.99 210.73 37.84 211.2 37.54 211.66 37.21 212.1 36.88 212.54 36.52 212.97 36.15 213.38 35.77 213.79 35.37 214.18 34.97 214.55 34.54 214.91 34.11 215.26 33.67 215.59 33.21 215.9 32.75 216.2 32.28 216.48 31.8 216.75 31.31 217 30.82 217.23 30.33 217.44 29.82 217.64 29.32 217.82 28.82 217.98 28.31 218.13 27.8 218.26 27.29 218.37 26.78 218.47 26.27 218.55 25.77 218.61 25.27 218.66 24.77 218.7 24.27 218.72 23.79 218.73 23.3 218.72 22.92 218.71 22.53 218.69 22.14 218.66 21.75 218.62 21.36 218.57 20.96 218.51 20.57 218.44 20.16 218.36 19.77 218.27 19.36 218.17 18.96 218.06 18.56 217.94 18.16 217.81 17.76 217.67 17.36 217.52 16.96 217.35 16.56 217.18 16.17 217 15.78 216.8 15.39 216.6 15 216.38 14.62 216.16 14.24 215.92 13.87 215.67 13.51 215.42 13.15 215.15 12.79 214.87 12.44 214.59 12.1 214.29 11.77 213.99 11.44 213.68 11.12 213.36 10.81 213.03 10.51 212.7 10.21 212.36 9.93 212.01 9.65 211.66 9.38 211.29 9.13 210.93 8.88 210.56 8.64 210.18 8.42 209.8 8.2 209.41 8 209.02 7.8 208.63 7.62 208.24 7.45 207.84 7.28 207.44 7.13 207.04 6.99 206.64 6.86 206.24 6.74 205.84 6.63 205.44 6.53 205.04 6.44 204.63 6.36 204.24 6.29 203.84 6.23 203.44 6.18 203.05 6.14 202.66 6.11 202.27 6.09 201.88 6.08 201.5 6.07 201.5 -0.02"/></g><g id="HATCH-5" data-name="HATCH"><polygon class="cls-3" points="201.5 6.07 201.12 6.08 200.73 6.09 200.34 6.11 199.95 6.14 199.56 6.18 199.16 6.23 198.77 6.29 198.37 6.36 197.97 6.44 197.56 6.53 197.16 6.63 196.76 6.74 196.36 6.86 195.96 6.99 195.56 7.13 195.16 7.28 194.76 7.45 194.37 7.62 193.98 7.8 193.59 8 193.2 8.2 192.82 8.42 192.45 8.64 192.07 8.88 191.71 9.13 191.35 9.38 190.99 9.65 190.64 9.93 190.3 10.21 189.97 10.51 189.64 10.81 189.32 11.12 189.01 11.44 188.71 11.77 188.41 12.1 188.13 12.44 187.85 12.79 187.59 13.15 187.33 13.51 187.08 13.87 186.85 14.24 186.62 14.62 186.41 15 186.2 15.39 186 15.78 185.82 16.17 185.65 16.56 185.48 16.96 185.33 17.36 185.19 17.76 185.06 18.16 184.94 18.56 184.83 18.96 184.73 19.36 184.64 19.77 184.56 20.16 184.49 20.57 184.43 20.96 184.38 21.36 184.34 21.75 184.31 22.14 184.29 22.53 184.28 22.92 184.28 23.3 184.28 23.68 184.29 24.07 184.31 24.46 184.34 24.85 184.38 25.24 184.43 25.64 184.49 26.04 184.56 26.43 184.64 26.84 184.73 27.24 184.83 27.64 184.94 28.04 185.06 28.44 185.19 28.84 185.33 29.24 185.48 29.64 185.65 30.04 185.82 30.43 186 30.82 186.2 31.21 186.41 31.6 186.62 31.98 186.85 32.35 187.08 32.73 187.33 33.09 187.59 33.45 187.85 33.81 188.13 34.16 188.41 34.5 188.71 34.83 189.01 35.16 189.32 35.48 189.64 35.79 189.97 36.09 190.3 36.39 190.64 36.67 190.99 36.95 191.35 37.22 191.71 37.47 192.07 37.72 192.45 37.95 192.82 38.18 193.2 38.4 193.59 38.6 193.98 38.8 194.37 38.98 194.76 39.15 195.16 39.32 195.56 39.47 195.96 39.61 196.36 39.74 196.76 39.86 197.16 39.97 197.56 40.07 197.97 40.16 198.37 40.24 198.77 40.31 199.16 40.37 199.56 40.42 199.95 40.46 200.34 40.49 200.73 40.51 201.12 40.52 201.5 40.53 202.06 40.52 202.63 40.49 203.21 40.44 203.79 40.37 204.37 40.28 204.96 40.18 205.25 40.11 205.54 40.04 205.84 39.97 206.13 39.89 206.43 39.81 206.72 39.72 207.02 39.62 207.31 39.52 207.6 39.41 207.9 39.3 208.19 39.17 208.48 39.05 208.76 38.92 209.05 38.78 209.34 38.64 209.62 38.49 209.9 38.34 210.18 38.18 210.46 38.02 210.73 37.84 214 42.99 213.63 43.22 213.25 43.45 212.87 43.66 212.49 43.87 212.11 44.07 211.72 44.26 211.34 44.45 210.94 44.63 210.55 44.79 210.16 44.96 209.76 45.11 209.37 45.26 208.97 45.39 208.57 45.52 208.17 45.65 207.77 45.76 207.38 45.87 206.98 45.97 206.58 46.06 206.18 46.15 205.38 46.3 204.59 46.42 203.81 46.51 203.03 46.57 202.26 46.61 201.5 46.62 200.98 46.62 200.46 46.6 199.94 46.57 199.41 46.53 198.87 46.47 198.34 46.41 197.8 46.33 197.26 46.23 196.72 46.13 196.17 46.01 195.63 45.87 195.08 45.72 194.54 45.56 194 45.38 193.46 45.19 192.92 44.98 192.38 44.77 191.84 44.53 191.31 44.28 190.79 44.02 190.27 43.74 189.75 43.45 189.24 43.14 188.74 42.82 188.24 42.49 187.75 42.14 187.27 41.78 186.8 41.41 186.34 41.02 185.88 40.62 185.44 40.21 185.01 39.79 184.59 39.36 184.18 38.92 183.78 38.46 183.39 38 183.02 37.53 182.66 37.05 182.31 36.56 181.98 36.06 181.66 35.56 181.35 35.05 181.06 34.53 180.78 34.01 180.52 33.49 180.27 32.96 180.04 32.42 179.81 31.89 179.61 31.34 179.42 30.8 179.24 30.26 179.08 29.72 178.93 29.17 178.79 28.63 178.67 28.09 178.57 27.54 178.47 27 178.39 26.46 178.33 25.93 178.27 25.39 178.23 24.87 178.2 24.34 178.18 23.82 178.18 23.3 178.18 22.78 178.2 22.26 178.23 21.73 178.27 21.2 178.33 20.67 178.39 20.14 178.47 19.6 178.57 19.06 178.67 18.51 178.79 17.97 178.93 17.43 179.08 16.88 179.24 16.34 179.42 15.8 179.61 15.25 179.81 14.71 180.04 14.18 180.27 13.64 180.52 13.11 180.78 12.59 181.06 12.07 181.35 11.55 181.66 11.04 181.98 10.54 182.31 10.04 182.66 9.55 183.02 9.07 183.39 8.6 183.78 8.14 184.18 7.68 184.59 7.24 185.01 6.81 185.44 6.39 185.88 5.98 186.34 5.58 186.8 5.19 187.27 4.82 187.75 4.46 188.24 4.11 188.74 3.78 189.24 3.46 189.75 3.15 190.27 2.86 190.79 2.58 191.31 2.32 191.84 2.07 192.38 1.83 192.92 1.61 193.46 1.41 194 1.22 194.54 1.04 195.08 0.88 195.63 0.73 196.17 0.59 196.72 0.47 197.26 0.37 197.8 0.27 198.34 0.19 198.87 0.13 199.41 0.07 199.94 0.03 200.46 0 200.98 -0.02 201.5 -0.02 201.5 6.07"/></g><g id="HATCH-6" data-name="HATCH"><polygon class="cls-3" points="142.13 6.07 141.7 6.08 141.28 6.09 140.86 6.12 140.44 6.16 140.03 6.2 139.61 6.26 139.21 6.32 138.81 6.4 138.41 6.48 138.02 6.57 137.63 6.67 137.25 6.78 136.88 6.89 136.51 7.02 136.14 7.15 135.79 7.28 135.43 7.43 135.08 7.58 134.72 7.75 134.37 7.92 134.02 8.1 133.67 8.29 133.32 8.49 132.98 8.71 132.63 8.93 132.29 9.16 131.96 9.4 131.62 9.65 131.29 9.91 130.97 10.18 130.65 10.45 130.34 10.74 130.03 11.04 129.72 11.35 129.43 11.66 129.14 11.98 128.86 12.32 128.58 12.66 128.31 13.01 128.06 13.36 127.81 13.73 127.56 14.1 127.33 14.48 127.11 14.86 126.9 15.25 126.69 15.65 126.5 16.05 126.32 16.46 126.15 16.87 125.99 17.29 125.84 17.7 125.7 18.13 125.57 18.55 125.45 18.98 125.35 19.41 125.25 19.84 125.17 20.28 125.1 20.71 125.04 21.14 124.99 21.58 124.95 22.01 124.92 22.44 124.91 22.87 124.9 23.3 124.91 23.73 124.92 24.15 124.95 24.57 124.98 24.99 125.03 25.4 125.09 25.81 125.15 26.22 125.22 26.62 125.31 27.02 125.4 27.41 125.5 27.8 125.61 28.18 125.72 28.55 125.84 28.92 125.97 29.28 126.11 29.64 126.26 30 126.41 30.35 126.57 30.7 126.75 31.05 126.93 31.41 127.12 31.76 127.32 32.1 127.53 32.45 127.75 32.79 127.98 33.13 128.22 33.47 128.47 33.8 128.73 34.13 129 34.46 129.28 34.78 129.57 35.09 129.87 35.4 130.17 35.7 130.49 36 130.81 36.29 131.15 36.57 131.49 36.85 131.84 37.11 132.19 37.37 132.56 37.62 132.93 37.86 133.31 38.09 133.69 38.32 134.08 38.53 134.48 38.73 134.88 38.93 135.29 39.11 135.7 39.28 136.11 39.44 136.53 39.59 136.96 39.73 137.38 39.86 137.81 39.98 138.24 40.08 138.67 40.17 139.1 40.26 139.54 40.33 139.97 40.39 140.4 40.44 140.84 40.48 141.27 40.5 141.7 40.52 142.13 40.53 142.56 40.52 142.98 40.51 143.4 40.48 143.82 40.44 144.23 40.4 144.64 40.34 145.05 40.28 145.45 40.2 145.84 40.12 146.24 40.03 146.62 39.93 147 39.82 147.38 39.71 147.75 39.58 148.11 39.45 148.47 39.32 148.77 39.2 149.06 39.07 149.36 38.93 149.66 38.79 149.95 38.65 150.25 38.49 150.54 38.33 150.84 38.16 151.13 37.99 151.42 37.81 151.71 37.62 151.99 37.42 152.28 37.22 152.56 37.01 152.83 36.8 153.11 36.57 156.99 41.27 156.58 41.61 156.16 41.93 155.73 42.25 155.29 42.55 154.85 42.84 154.41 43.13 153.96 43.4 153.5 43.66 153.04 43.91 152.57 44.15 152.11 44.38 151.64 44.6 151.16 44.8 150.69 45 150.21 45.18 149.73 45.35 149.25 45.51 148.77 45.66 148.28 45.8 147.8 45.92 147.32 46.04 146.84 46.14 146.36 46.24 145.88 46.32 145.4 46.39 144.93 46.45 144.45 46.51 143.98 46.55 143.51 46.58 143.05 46.6 142.59 46.62 142.13 46.62 141.61 46.62 141.09 46.6 140.56 46.57 140.03 46.53 139.5 46.47 138.96 46.41 138.42 46.33 137.88 46.23 137.34 46.13 136.8 46.01 136.25 45.87 135.71 45.72 135.17 45.56 134.62 45.38 134.08 45.19 133.54 44.98 133.01 44.77 132.47 44.53 131.94 44.28 131.42 44.02 130.89 43.74 130.38 43.45 129.87 43.14 129.37 42.82 128.87 42.49 128.38 42.14 127.9 41.78 127.43 41.41 126.96 41.02 126.51 40.62 126.07 40.21 125.64 39.79 125.22 39.36 124.81 38.92 124.41 38.46 124.02 38 123.65 37.53 123.29 37.05 122.94 36.56 122.61 36.06 122.29 35.56 121.98 35.05 121.69 34.53 121.41 34.01 121.15 33.49 120.9 32.96 120.66 32.42 120.44 31.89 120.24 31.34 120.05 30.8 119.87 30.26 119.7 29.72 119.56 29.17 119.42 28.63 119.3 28.09 119.19 27.54 119.1 27 119.02 26.46 118.95 25.93 118.9 25.39 118.86 24.87 118.83 24.34 118.81 23.82 118.81 23.3 118.81 22.78 118.83 22.26 118.86 21.73 118.9 21.2 118.95 20.67 119.02 20.14 119.1 19.6 119.19 19.06 119.3 18.51 119.42 17.97 119.56 17.43 119.7 16.88 119.87 16.34 120.05 15.8 120.24 15.25 120.44 14.71 120.66 14.18 120.9 13.64 121.15 13.11 121.41 12.59 121.69 12.07 121.98 11.55 122.29 11.04 122.61 10.54 122.94 10.04 123.29 9.55 123.65 9.07 124.02 8.6 124.41 8.14 124.81 7.68 125.22 7.24 125.64 6.81 126.07 6.39 126.51 5.98 126.96 5.58 127.43 5.19 127.9 4.82 128.38 4.46 128.87 4.11 129.37 3.78 129.87 3.46 130.38 3.15 130.89 2.86 131.42 2.58 131.94 2.32 132.47 2.07 133.01 1.83 133.54 1.61 134.08 1.41 134.62 1.22 135.17 1.04 135.71 0.88 136.25 0.73 136.8 0.59 137.34 0.47 137.88 0.37 138.42 0.27 138.96 0.19 139.5 0.13 140.03 0.07 140.56 0.03 141.09 0 141.61 -0.02 142.13 -0.02 142.13 6.07"/></g><g id="HATCH-7" data-name="HATCH"><polygon class="cls-3" points="98.72 6.3 99.17 6.73 99.61 7.18 100.04 7.64 100.45 8.11 100.85 8.59 101.24 9.08 101.61 9.58 101.97 10.09 102.32 10.6 102.65 11.13 102.96 11.65 103.26 12.19 103.55 12.73 103.82 13.28 104.07 13.83 104.31 14.39 104.53 14.95 104.74 15.51 104.93 16.07 105.11 16.64 105.27 17.2 105.41 17.76 105.54 18.33 105.66 18.89 105.76 19.45 105.84 20.01 105.92 20.57 105.98 21.12 106.02 21.67 106.05 22.22 106.07 22.76 106.08 23.3 106.07 23.82 106.05 24.34 106.03 24.87 105.98 25.39 105.93 25.93 105.86 26.46 105.78 27 105.69 27.54 105.58 28.09 105.46 28.63 105.33 29.17 105.18 29.72 105.01 30.26 104.84 30.8 104.65 31.34 104.44 31.89 104.22 32.42 103.98 32.96 103.74 33.49 103.47 34.01 103.19 34.53 102.9 35.05 102.6 35.56 102.28 36.06 101.94 36.56 101.59 37.05 101.23 37.53 100.86 38 100.48 38.46 100.08 38.92 99.67 39.36 99.25 39.79 98.81 40.21 98.37 40.62 97.92 41.02 97.45 41.41 96.98 41.78 96.5 42.14 96.01 42.49 95.52 42.82 95.01 43.14 94.5 43.45 93.99 43.74 93.47 44.02 92.94 44.28 92.41 44.53 91.88 44.77 91.34 44.98 90.8 45.19 90.26 45.38 89.72 45.56 89.17 45.72 88.63 45.87 88.08 46.01 87.54 46.13 87 46.23 86.46 46.33 85.92 46.41 85.38 46.47 84.85 46.53 84.32 46.57 83.79 46.6 83.27 46.62 82.75 46.62 82.24 46.62 81.72 46.6 81.19 46.57 80.66 46.53 80.13 46.47 79.59 46.41 79.05 46.33 78.51 46.23 77.97 46.13 77.42 46.01 76.88 45.87 76.34 45.72 75.79 45.56 75.25 45.38 74.71 45.19 74.17 44.98 73.63 44.77 73.1 44.53 72.57 44.28 72.04 44.02 71.52 43.74 71 43.45 70.5 43.14 69.99 42.82 69.5 42.49 69.01 42.14 68.53 41.78 68.05 41.41 67.59 41.02 67.14 40.62 66.69 40.21 66.26 39.79 65.84 39.36 65.43 38.92 65.03 38.46 64.65 38 64.28 37.53 63.91 37.05 63.57 36.56 63.23 36.06 62.91 35.56 62.61 35.05 62.31 34.53 62.04 34.01 61.77 33.49 61.52 32.96 61.29 32.42 61.07 31.89 60.86 31.34 60.67 30.8 60.49 30.26 60.33 29.72 60.18 29.17 60.05 28.63 59.93 28.09 59.82 27.54 59.73 27 59.65 26.46 59.58 25.93 59.53 25.39 59.48 24.87 59.45 24.34 59.44 23.82 59.43 23.3 59.44 22.78 59.45 22.26 59.48 21.73 59.53 21.2 59.58 20.67 59.65 20.14 59.73 19.6 59.82 19.06 59.93 18.51 60.05 17.97 60.18 17.43 60.33 16.88 60.49 16.34 60.67 15.8 60.86 15.25 61.07 14.71 61.29 14.18 61.52 13.64 61.77 13.11 62.04 12.59 62.31 12.07 62.61 11.55 62.91 11.04 63.23 10.54 63.57 10.04 63.91 9.55 64.28 9.07 64.65 8.6 65.03 8.14 65.43 7.68 65.84 7.24 66.26 6.81 66.69 6.39 67.14 5.98 67.59 5.58 68.05 5.19 68.53 4.82 69.01 4.46 69.5 4.11 69.99 3.78 70.5 3.46 71 3.15 71.52 2.86 72.04 2.58 72.57 2.32 73.1 2.07 73.63 1.83 74.17 1.61 74.71 1.41 75.25 1.22 75.79 1.04 76.34 0.88 76.88 0.73 77.42 0.59 77.97 0.47 78.51 0.37 79.05 0.27 79.59 0.19 80.13 0.13 80.66 0.07 81.19 0.03 81.72 0 82.24 -0.02 82.75 -0.02 82.75 6.07 82.4 6.08 82.04 6.09 81.68 6.11 81.33 6.13 80.97 6.17 80.62 6.21 80.27 6.25 79.92 6.31 79.58 6.37 79.23 6.44 78.89 6.51 78.55 6.59 78.22 6.68 77.89 6.78 77.56 6.88 77.23 6.98 76.91 7.09 76.6 7.21 76.28 7.33 75.98 7.46 75.67 7.6 75.37 7.74 75.08 7.88 74.78 8.03 74.5 8.18 74.22 8.34 73.94 8.5 73.67 8.67 73.4 8.84 73.14 9.01 72.88 9.18 72.63 9.36 72.32 9.59 72.02 9.83 71.72 10.07 71.42 10.33 71.12 10.59 70.83 10.87 70.55 11.15 70.26 11.44 69.98 11.74 69.71 12.05 69.45 12.36 69.19 12.69 68.93 13.02 68.68 13.36 68.44 13.71 68.21 14.07 67.98 14.43 67.77 14.81 67.56 15.19 67.36 15.57 67.17 15.96 66.99 16.36 66.82 16.77 66.65 17.18 66.5 17.59 66.36 18.01 66.23 18.43 66.11 18.86 66 19.29 65.9 19.73 65.82 20.17 65.74 20.61 65.68 21.05 65.62 21.49 65.58 21.93 65.55 22.38 65.53 22.82 65.53 23.26 65.53 23.71 65.55 24.15 65.58 24.59 65.61 25.03 65.67 25.46 65.72 25.89 65.8 26.32 65.88 26.75 65.97 27.17 66.07 27.58 66.18 28 66.3 28.4 66.43 28.8 66.57 29.2 66.72 29.59 66.87 29.97 67.04 30.35 67.21 30.72 67.39 31.08 67.57 31.44 67.77 31.79 67.97 32.13 68.17 32.47 68.38 32.79 68.6 33.11 68.82 33.42 69.05 33.73 69.28 34.04 69.53 34.34 69.78 34.64 70.05 34.93 70.32 35.22 70.6 35.51 70.89 35.79 71.19 36.07 71.5 36.34 71.82 36.61 72.14 36.87 72.48 37.12 72.82 37.37 73.17 37.61 73.52 37.84 73.89 38.07 74.26 38.29 74.64 38.49 75.03 38.7 75.42 38.88 75.82 39.07 76.22 39.24 76.63 39.4 77.05 39.55 77.47 39.69 77.89 39.82 78.32 39.94 78.75 40.05 79.18 40.15 79.62 40.24 80.06 40.31 80.5 40.38 80.94 40.43 81.39 40.47 81.83 40.5 82.28 40.52 82.72 40.53 83.16 40.52 83.6 40.51 84.04 40.48 84.48 40.44 84.92 40.39 85.35 40.33 85.78 40.26 86.2 40.18 86.62 40.09 87.04 39.98 87.45 39.87 87.86 39.75 88.26 39.62 88.65 39.48 89.04 39.34 89.43 39.18 89.8 39.02 90.17 38.85 90.54 38.67 90.89 38.48 91.24 38.29 91.59 38.09 91.92 37.88 92.25 37.67 92.57 37.46 92.88 37.24 93.19 37.01 93.49 36.77 93.79 36.52 94.09 36.27 94.39 36.01 94.68 35.73 94.96 35.45 95.25 35.16 95.52 34.86 95.8 34.55 96.06 34.24 96.32 33.91 96.58 33.58 96.83 33.24 97.07 32.89 97.3 32.53 97.52 32.17 97.74 31.79 97.95 31.41 98.15 31.03 98.34 30.64 98.52 30.24 98.69 29.83 98.86 29.42 99.01 29.01 99.15 28.59 99.28 28.16 99.4 27.74 99.51 27.31 99.61 26.87 99.69 26.43 99.77 26 99.83 25.55 99.89 25.11 99.93 24.67 99.96 24.22 99.97 23.78 99.98 23.34 99.98 22.89 99.96 22.45 99.93 22.01 99.89 21.57 99.84 21.14 99.78 20.71 99.71 20.28 99.63 19.85 99.54 19.43 99.44 19.02 99.33 18.6 99.21 18.2 99.08 17.8 98.94 17.4 98.79 17.01 98.64 16.63 98.47 16.25 98.3 15.88 98.12 15.52 97.94 15.16 97.74 14.81 97.54 14.47 97.34 14.13 97.13 13.81 96.91 13.49 96.69 13.18 96.46 12.86 96.21 12.55 95.96 12.24 95.69 11.93 95.42 11.63 95.14 11.33 94.85 11.03 94.55 10.74 98.72 6.3"/></g><g id="HATCH-8" data-name="HATCH"><polygon class="cls-3" points="34.62 2.86 35.31 3.26 35.99 3.68 36.66 4.12 37.31 4.59 37.95 5.09 38.58 5.61 39.18 6.14 39.77 6.7 40.34 7.28 40.88 7.88 41.41 8.5 41.91 9.13 42.39 9.78 42.84 10.45 43.27 11.12 43.68 11.81 44.06 12.51 44.41 13.21 44.74 13.93 45.04 14.65 45.32 15.37 45.57 16.1 45.79 16.83 45.99 17.56 46.16 18.29 46.31 19.02 46.43 19.75 46.53 20.47 46.61 21.19 46.66 21.9 46.69 22.6 46.7 23.3 46.7 23.82 46.68 24.34 46.65 24.87 46.61 25.39 46.56 25.93 46.49 26.46 46.41 27 46.31 27.54 46.21 28.09 46.09 28.63 45.95 29.17 45.8 29.72 45.64 30.26 45.46 30.8 45.27 31.34 45.07 31.89 44.85 32.42 44.61 32.96 44.36 33.49 44.1 34.01 43.82 34.53 43.53 35.05 43.22 35.56 42.9 36.06 42.57 36.56 42.22 37.05 41.86 37.53 41.49 38 41.1 38.46 40.7 38.92 40.3 39.36 39.87 39.79 39.44 40.21 39 40.62 38.55 41.02 38.08 41.41 37.61 41.78 37.13 42.14 36.64 42.49 36.14 42.82 35.64 43.14 35.13 43.45 34.62 43.74 34.09 44.02 33.57 44.28 33.04 44.53 32.5 44.77 31.97 44.98 31.43 45.19 30.89 45.38 30.34 45.56 29.8 45.72 29.25 45.87 28.71 46.01 28.17 46.13 27.63 46.23 27.09 46.33 26.55 46.41 26.01 46.47 25.48 46.53 24.95 46.57 24.42 46.6 23.9 46.62 23.38 46.62 22.86 46.62 22.34 46.6 21.82 46.57 21.29 46.53 20.75 46.47 20.22 46.41 19.68 46.33 19.14 46.23 18.59 46.13 18.05 46.01 17.51 45.87 16.96 45.72 16.42 45.56 15.88 45.38 15.34 45.19 14.8 44.98 14.26 44.77 13.73 44.53 13.2 44.28 12.67 44.02 12.15 43.74 11.63 43.45 11.12 43.14 10.62 42.82 10.12 42.49 9.63 42.14 9.15 41.78 8.68 41.41 8.22 41.02 7.76 40.62 7.32 40.21 6.89 39.79 6.47 39.36 6.06 38.92 5.66 38.46 5.28 38 4.9 37.53 4.54 37.05 4.19 36.56 3.86 36.06 3.54 35.56 3.23 35.05 2.94 34.53 2.66 34.01 2.4 33.49 2.15 32.96 1.92 32.42 1.7 31.89 1.49 31.34 1.3 30.8 1.12 30.26 0.96 29.72 0.81 29.17 0.68 28.63 0.56 28.09 0.45 27.54 0.35 27 0.27 26.46 0.21 25.93 0.15 25.39 0.11 24.87 0.08 24.34 0.06 23.82 0.06 23.3 0.06 22.78 0.08 22.26 0.11 21.73 0.15 21.2 0.21 20.67 0.27 20.14 0.35 19.6 0.45 19.06 0.56 18.51 0.68 17.97 0.81 17.43 0.96 16.88 1.12 16.34 1.3 15.8 1.49 15.25 1.7 14.71 1.92 14.18 2.15 13.64 2.4 13.11 2.66 12.59 2.94 12.07 3.23 11.55 3.54 11.04 3.86 10.54 4.19 10.04 4.54 9.55 4.9 9.07 5.28 8.6 5.66 8.14 6.06 7.68 6.47 7.24 6.89 6.81 7.32 6.39 7.76 5.98 8.22 5.58 8.68 5.19 9.15 4.82 9.63 4.46 10.12 4.11 10.62 3.78 11.12 3.46 11.63 3.15 12.15 2.86 12.67 2.58 13.2 2.32 13.73 2.07 14.26 1.83 14.8 1.61 15.34 1.41 15.88 1.22 16.42 1.04 16.96 0.88 17.51 0.73 18.05 0.59 18.59 0.47 19.14 0.37 19.68 0.27 20.22 0.19 20.75 0.13 21.29 0.07 21.82 0.03 22.34 0 22.86 -0.02 23.38 -0.02 23.38 6.07 23 6.08 22.61 6.09 22.23 6.11 21.83 6.14 21.44 6.18 21.04 6.23 20.65 6.29 20.25 6.36 19.85 6.44 19.45 6.53 19.04 6.63 18.64 6.74 18.24 6.86 17.84 6.99 17.44 7.13 17.04 7.28 16.64 7.45 16.25 7.62 15.86 7.8 15.47 8 15.09 8.2 14.7 8.42 14.33 8.64 13.96 8.88 13.59 9.13 13.23 9.38 12.87 9.65 12.52 9.93 12.18 10.21 11.85 10.51 11.52 10.81 11.2 11.12 10.89 11.44 10.59 11.77 10.29 12.1 10.01 12.44 9.73 12.79 9.47 13.15 9.21 13.51 8.96 13.87 8.73 14.24 8.5 14.62 8.29 15 8.08 15.39 7.88 15.78 7.7 16.17 7.53 16.56 7.37 16.96 7.21 17.36 7.07 17.76 6.94 18.16 6.82 18.56 6.71 18.96 6.61 19.36 6.52 19.77 6.44 20.16 6.37 20.57 6.32 20.96 6.26 21.36 6.22 21.75 6.19 22.14 6.17 22.53 6.16 22.92 6.16 23.3 6.16 23.68 6.17 24.07 6.19 24.46 6.22 24.85 6.26 25.24 6.32 25.64 6.37 26.04 6.44 26.43 6.52 26.84 6.61 27.24 6.71 27.64 6.82 28.04 6.94 28.44 7.07 28.84 7.21 29.24 7.37 29.64 7.53 30.04 7.7 30.43 7.88 30.82 8.08 31.21 8.29 31.6 8.5 31.98 8.73 32.35 8.96 32.73 9.21 33.09 9.47 33.45 9.73 33.81 10.01 34.16 10.29 34.5 10.59 34.83 10.89 35.16 11.2 35.48 11.52 35.79 11.85 36.09 12.18 36.39 12.52 36.67 12.87 36.95 13.23 37.22 13.59 37.47 13.96 37.72 14.33 37.95 14.7 38.18 15.09 38.4 15.47 38.6 15.86 38.8 16.25 38.98 16.64 39.15 17.04 39.32 17.44 39.47 17.84 39.61 18.24 39.74 18.64 39.86 19.04 39.97 19.45 40.07 19.85 40.16 20.25 40.24 20.65 40.31 21.04 40.37 21.44 40.42 21.83 40.46 22.23 40.49 22.61 40.51 23 40.52 23.38 40.53 23.76 40.52 24.15 40.51 24.54 40.49 24.93 40.46 25.32 40.42 25.72 40.37 26.12 40.31 26.52 40.24 26.92 40.16 27.32 40.07 27.72 39.97 28.12 39.86 28.52 39.74 28.92 39.61 29.32 39.47 29.72 39.32 30.12 39.15 30.51 38.98 30.91 38.8 31.29 38.6 31.68 38.4 32.06 38.18 32.44 37.95 32.81 37.72 33.17 37.47 33.53 37.22 33.89 36.95 34.24 36.67 34.58 36.39 34.92 36.09 35.24 35.79 35.56 35.48 35.87 35.16 36.18 34.83 36.47 34.5 36.76 34.16 37.03 33.81 37.3 33.45 37.55 33.09 37.8 32.73 38.04 32.35 38.26 31.98 38.48 31.6 38.68 31.21 38.88 30.82 39.06 30.43 39.23 30.04 39.4 29.64 39.55 29.24 39.69 28.84 39.82 28.44 39.94 28.04 40.05 27.64 40.15 27.24 40.24 26.84 40.32 26.43 40.39 26.04 40.45 25.64 40.5 25.24 40.54 24.85 40.57 24.46 40.59 24.07 40.6 23.68 40.61 23.3 40.6 22.79 40.58 22.27 40.54 21.74 40.48 21.21 40.41 20.68 40.31 20.14 40.21 19.6 40.08 19.06 39.93 18.52 39.77 17.98 39.58 17.45 39.38 16.91 39.16 16.38 38.91 15.85 38.65 15.33 38.37 14.81 38.07 14.3 37.76 13.8 37.42 13.32 37.06 12.84 36.69 12.37 36.31 11.91 35.9 11.47 35.48 11.04 35.05 10.63 34.6 10.23 34.14 9.85 33.67 9.48 33.19 9.14 32.69 8.81 32.19 8.5 31.68 8.21 34.62 2.86"/></g><text class="cls-4" transform="translate(16.68 26.74)">NC</text><text class="cls-5" transform="translate(76.54 26.74)">P<tspan class="cls-6" x="5.97" y="0">C</tspan></text><text class="cls-4" transform="translate(135.65 26.74)">HC</text><text class="cls-4" transform="translate(195.51 26.74)">EC</text></svg>