<svg id="Layer_1" data-name="Layer 1" xmlns="http://www.w3.org/2000/svg" viewBox="0 0 224.82 46.35"><defs><style>.cls-1{opacity:0.6;}.cls-2,.cls-5{fill:#005488;}.cls-2,.cls-4{fill-rule:evenodd;}.cls-3{opacity:0.8;}.cls-4{fill:#e6e6e5;}.cls-5{font-size:10px;font-family:CooperHewitt-Bold, Cooper Hewitt;font-weight:700;}</style></defs><g id="HATCH" class="cls-1"><polygon class="cls-2" points="23.38 -0.3 23.92 -0.29 24.46 -0.27 25.01 -0.24 25.56 -0.19 26.11 -0.14 26.67 -0.06 27.23 0.02 27.79 0.12 28.35 0.24 28.92 0.37 29.48 0.52 30.05 0.68 30.61 0.85 31.17 1.04 31.73 1.25 32.29 1.47 32.85 1.71 33.4 1.97 33.95 2.23 34.49 2.52 35.03 2.82 35.56 3.13 36.08 3.46 36.6 3.81 37.1 4.17 37.6 4.54 38.09 4.93 38.57 5.33 39.04 5.74 39.5 6.17 39.95 6.61 40.38 7.06 35.94 11.23 35.66 10.95 35.38 10.67 35.09 10.39 34.78 10.12 34.47 9.85 34.15 9.58 33.82 9.33 33.48 9.07 33.14 8.83 32.78 8.59 32.42 8.36 32.05 8.14 31.66 7.92 31.28 7.72 30.88 7.52 30.48 7.33 30.07 7.15 29.66 6.99 29.23 6.83 28.81 6.68 28.37 6.54 27.94 6.41 27.49 6.3 27.05 6.2 26.6 6.1 26.14 6.02 25.69 5.96 25.23 5.9 24.77 5.86 24.31 5.83 23.84 5.81 23.38 5.8 23.38 -0.3"/></g><g id="HATCH-2" data-name="HATCH"><polygon class="cls-2" points="82.75 -0.3 83.27 -0.29 83.79 -0.27 84.32 -0.24 84.85 -0.2 85.38 -0.15 85.92 -0.08 86.46 0 87 0.09 87.54 0.2 88.08 0.32 88.63 0.46 89.17 0.6 89.72 0.77 90.26 0.94 90.8 1.14 91.34 1.34 91.88 1.56 92.41 1.8 92.94 2.05 93.47 2.31 93.99 2.59 94.5 2.88 95.01 3.19 95.52 3.51 96.01 3.84 96.5 4.19 96.98 4.55 97.45 4.92 97.92 5.31 98.37 5.7 98.81 6.11 99.25 6.54 99.67 6.97 100.08 7.41 100.48 7.86 100.86 8.33 101.23 8.8 101.59 9.28 101.94 9.77 102.28 10.27 102.6 10.77 102.9 11.28 103.19 11.79 103.47 12.31 103.74 12.84 103.98 13.37 104.22 13.9 104.44 14.44 104.65 14.98 104.84 15.52 105.01 16.07 105.18 16.61 105.33 17.15 105.46 17.7 105.58 18.24 105.69 18.78 105.78 19.32 105.86 19.86 105.93 20.4 105.98 20.93 106.03 21.46 106.05 21.99 106.07 22.51 106.08 23.03 106.07 23.55 106.05 24.07 106.03 24.59 105.98 25.12 105.93 25.66 105.86 26.19 105.78 26.73 105.69 27.27 105.58 27.81 105.46 28.36 105.33 28.9 105.18 29.45 105.01 29.99 104.84 30.53 104.65 31.07 104.44 31.61 104.22 32.15 103.98 32.68 103.74 33.21 103.47 33.74 103.19 34.26 102.9 34.78 102.6 35.29 102.28 35.79 101.94 36.29 101.59 36.77 101.23 37.26 100.86 37.73 100.48 38.19 100.08 38.64 99.67 39.09 99.25 39.52 98.81 39.94 98.37 40.35 97.92 40.75 97.45 41.13 96.98 41.51 96.5 41.87 96.01 42.22 95.52 42.55 95.01 42.87 94.5 43.17 93.99 43.47 93.47 43.74 92.94 44.01 92.41 44.26 91.88 44.49 91.34 44.71 90.8 44.92 90.26 45.11 89.72 45.29 89.17 45.45 88.63 45.6 88.08 45.73 87.54 45.85 87 45.96 86.46 46.05 85.92 46.13 85.38 46.2 84.85 46.26 84.32 46.3 83.79 46.33 83.27 46.34 82.75 46.35 82.32 46.35 81.88 46.33 81.44 46.31 81 46.28 80.55 46.25 80.1 46.2 79.65 46.14 79.2 46.08 78.75 46 78.29 45.92 77.83 45.83 77.38 45.72 76.92 45.61 76.46 45.48 76 45.35 75.55 45.21 77.43 39.41 77.77 39.52 78.11 39.61 78.44 39.7 78.78 39.79 79.12 39.87 79.46 39.93 79.79 40 80.13 40.05 80.46 40.1 80.8 40.14 81.13 40.18 81.46 40.2 81.78 40.23 82.11 40.24 82.43 40.25 82.75 40.25 83.14 40.25 83.52 40.24 83.91 40.21 84.3 40.18 84.7 40.14 85.09 40.09 85.49 40.03 85.89 39.97 86.29 39.89 86.69 39.8 87.09 39.7 87.49 39.59 87.9 39.47 88.3 39.34 88.7 39.2 89.09 39.04 89.49 38.88 89.89 38.71 90.28 38.52 90.67 38.33 91.05 38.12 91.43 37.91 91.81 37.68 92.18 37.45 92.55 37.2 92.91 36.94 93.26 36.68 93.61 36.4 93.95 36.12 94.29 35.82 94.62 35.52 94.94 35.21 95.25 34.89 95.55 34.56 95.84 34.23 96.13 33.88 96.4 33.54 96.67 33.18 96.93 32.82 97.17 32.45 97.41 32.08 97.64 31.7 97.85 31.32 98.06 30.94 98.25 30.55 98.44 30.16 98.61 29.76 98.77 29.37 98.92 28.97 99.06 28.57 99.19 28.17 99.32 27.77 99.42 27.36 99.53 26.96 99.61 26.56 99.69 26.16 99.76 25.76 99.82 25.36 99.87 24.97 99.91 24.57 99.94 24.18 99.96 23.8 99.98 23.41 99.98 23.03 99.98 22.64 99.96 22.26 99.94 21.87 99.91 21.48 99.87 21.09 99.82 20.69 99.76 20.29 99.69 19.89 99.61 19.49 99.53 19.09 99.42 18.69 99.32 18.29 99.19 17.89 99.06 17.48 98.92 17.09 98.77 16.69 98.61 16.29 98.44 15.89 98.25 15.5 98.06 15.12 97.85 14.73 97.64 14.35 97.41 13.97 97.17 13.6 96.93 13.23 96.67 12.87 96.4 12.52 96.13 12.17 95.84 11.83 95.55 11.49 95.25 11.17 94.94 10.85 94.62 10.54 94.29 10.23 93.95 9.94 93.61 9.65 93.26 9.38 92.91 9.11 92.55 8.86 92.18 8.61 91.81 8.37 91.43 8.15 91.05 7.93 90.67 7.73 90.28 7.53 89.89 7.35 89.49 7.17 89.09 7.01 88.7 6.86 88.3 6.72 87.9 6.59 87.49 6.47 87.09 6.36 86.69 6.26 86.29 6.17 85.89 6.09 85.49 6.02 85.09 5.96 84.7 5.91 84.3 5.87 83.91 5.84 83.52 5.82 83.14 5.8 82.75 5.8 82.75 -0.3"/></g><g id="HATCH-3" data-name="HATCH" class="cls-3"><polygon class="cls-2" points="157.71 15.69 157.47 15.2 157.22 14.72 156.94 14.23 156.64 13.75 156.33 13.28 155.99 12.8 155.64 12.34 155.27 11.89 154.87 11.44 154.46 11 154.25 10.79 154.03 10.58 153.81 10.37 153.59 10.16 153.36 9.96 153.12 9.77 152.88 9.57 152.64 9.38 152.39 9.19 152.14 9.01 151.89 8.83 151.63 8.66 151.37 8.49 151.1 8.32 150.83 8.16 150.56 8 150.28 7.85 150 7.71 149.72 7.56 149.43 7.43 149.15 7.3 148.86 7.17 148.56 7.05 148.27 6.93 147.97 6.82 147.67 6.72 147.37 6.62 147.07 6.53 146.76 6.44 146.46 6.36 146.15 6.28 145.84 6.21 145.54 6.14 145.23 6.08 144.92 6.03 144.61 5.98 144.3 5.94 143.99 5.9 143.67 5.87 143.36 5.85 143.05 5.83 142.75 5.81 142.44 5.8 142.13 5.8 142.13 -0.3 142.6 -0.29 143.08 -0.28 143.56 -0.25 144.04 -0.22 144.53 -0.17 145.01 -0.12 145.5 -0.05 146 0.03 146.49 0.12 146.99 0.22 147.48 0.33 147.98 0.45 148.48 0.58 148.97 0.73 149.47 0.89 149.96 1.06 150.46 1.24 150.95 1.44 151.44 1.64 151.93 1.86 152.41 2.09 152.89 2.33 153.36 2.59 153.84 2.85 154.3 3.13 154.76 3.42 155.22 3.72 155.67 4.04 156.11 4.36 156.54 4.69 156.97 5.04 157.39 5.39 157.81 5.76 158.21 6.13 158.6 6.52 158.99 6.91 159.37 7.32 159.73 7.73 160.09 8.15 160.43 8.58 160.77 9.01 161.09 9.45 161.41 9.9 161.71 10.36 162 10.82 162.28 11.28 162.55 11.76 162.8 12.23 163.04 12.71 163.28 13.19 163.5 13.68 163.7 14.17 163.9 14.66 164.08 15.15 164.25 15.65 164.41 16.14 164.56 16.64 164.69 17.14 164.82 17.63 164.93 18.13 165.03 18.63 165.12 19.12 165.2 19.61 165.27 20.1 159.22 20.87 159.17 20.52 159.12 20.17 159.05 19.83 158.99 19.48 158.91 19.15 158.83 18.81 158.74 18.48 158.65 18.16 158.55 17.83 158.45 17.51 158.34 17.2 158.22 16.89 158.1 16.58 157.98 16.28 157.85 15.98 157.71 15.69"/></g><g id="HATCH-4" data-name="HATCH" class="cls-1"><polygon class="cls-2" points="201.5 -0.3 202.26 -0.28 203.03 -0.25 203.81 -0.18 204.59 -0.09 205.38 0.03 206.18 0.18 206.58 0.26 206.98 0.36 207.38 0.46 207.77 0.56 208.17 0.68 208.57 0.8 208.97 0.93 209.37 1.07 209.76 1.22 210.16 1.37 210.55 1.53 210.94 1.7 211.34 1.88 211.72 2.06 212.11 2.26 212.49 2.46 212.87 2.67 213.25 2.88 213.63 3.1 214 3.33 210.73 8.48 210.46 8.31 210.18 8.15 209.9 7.99 209.62 7.83 209.34 7.69 209.05 7.54 208.76 7.41 208.48 7.28 208.19 7.15 207.9 7.03 207.6 6.92 207.31 6.81 207.02 6.71 206.72 6.61 206.43 6.52 206.13 6.44 205.84 6.36 205.54 6.28 205.25 6.21 204.96 6.15 204.37 6.04 203.79 5.95 203.21 5.89 202.63 5.84 202.06 5.81 201.5 5.8 201.5 -0.3"/></g><g id="HATCH-5" data-name="HATCH"><polygon class="cls-4" points="40.38 7.06 40.77 7.49 41.16 7.93 41.53 8.37 41.88 8.83 42.23 9.29 42.56 9.76 42.89 10.24 43.2 10.72 43.49 11.21 43.77 11.71 44.04 12.21 44.3 12.71 44.54 13.22 44.77 13.73 44.99 14.25 45.19 14.77 45.38 15.29 45.56 15.81 45.72 16.33 45.87 16.86 46.01 17.38 46.13 17.9 46.25 18.43 46.34 18.95 46.43 19.47 46.51 19.98 46.57 20.5 46.62 21.01 46.66 21.52 46.68 22.03 46.7 22.53 46.7 23.03 46.7 23.55 46.68 24.07 46.65 24.59 46.61 25.12 46.56 25.66 46.49 26.19 46.41 26.73 46.31 27.27 46.21 27.81 46.09 28.36 45.95 28.9 45.8 29.45 45.64 29.99 45.46 30.53 45.27 31.07 45.07 31.61 44.85 32.15 44.61 32.68 44.36 33.21 44.1 33.74 43.82 34.26 43.53 34.78 43.22 35.29 42.9 35.79 42.57 36.29 42.22 36.77 41.86 37.26 41.49 37.73 41.1 38.19 40.7 38.64 40.3 39.09 39.87 39.52 39.44 39.94 39 40.35 38.55 40.75 38.08 41.13 37.61 41.51 37.13 41.87 36.64 42.22 36.14 42.55 35.64 42.87 35.13 43.17 34.62 43.47 34.09 43.74 33.57 44.01 33.04 44.26 32.5 44.49 31.97 44.71 31.43 44.92 30.89 45.11 30.34 45.29 29.8 45.45 29.25 45.6 28.71 45.73 28.17 45.85 27.63 45.96 27.09 46.05 26.55 46.13 26.01 46.2 25.48 46.26 24.95 46.3 24.42 46.33 23.9 46.34 23.38 46.35 22.86 46.34 22.34 46.33 21.82 46.3 21.29 46.26 20.75 46.2 20.22 46.13 19.68 46.05 19.14 45.96 18.59 45.85 18.05 45.73 17.51 45.6 16.96 45.45 16.42 45.29 15.88 45.11 15.34 44.92 14.8 44.71 14.26 44.49 13.73 44.26 13.2 44.01 12.67 43.74 12.15 43.47 11.63 43.17 11.12 42.87 10.62 42.55 10.12 42.22 9.63 41.87 9.15 41.51 8.68 41.13 8.22 40.75 7.76 40.35 7.32 39.94 6.89 39.52 6.47 39.09 6.06 38.64 5.66 38.19 5.28 37.73 4.9 37.26 4.54 36.77 4.19 36.29 3.86 35.79 3.54 35.29 3.23 34.78 2.94 34.26 2.66 33.74 2.4 33.21 2.15 32.68 1.92 32.15 1.7 31.61 1.49 31.07 1.3 30.53 1.12 29.99 0.96 29.45 0.81 28.9 0.68 28.36 0.56 27.81 0.45 27.27 0.35 26.73 0.27 26.19 0.21 25.66 0.15 25.12 0.11 24.59 0.08 24.07 0.06 23.55 0.06 23.03 0.06 22.51 0.08 21.99 0.11 21.46 0.15 20.93 0.21 20.4 0.27 19.86 0.35 19.32 0.45 18.78 0.56 18.24 0.68 17.7 0.81 17.15 0.96 16.61 1.12 16.07 1.3 15.52 1.49 14.98 1.7 14.44 1.92 13.9 2.15 13.37 2.4 12.84 2.66 12.31 2.94 11.79 3.23 11.28 3.54 10.77 3.86 10.27 4.19 9.77 4.54 9.28 4.9 8.8 5.28 8.33 5.66 7.86 6.06 7.41 6.47 6.97 6.89 6.54 7.32 6.11 7.76 5.7 8.22 5.31 8.68 4.92 9.15 4.55 9.63 4.19 10.12 3.84 10.62 3.51 11.12 3.19 11.63 2.88 12.15 2.59 12.67 2.31 13.2 2.05 13.73 1.8 14.26 1.56 14.8 1.34 15.34 1.14 15.88 0.94 16.42 0.77 16.96 0.6 17.51 0.46 18.05 0.32 18.59 0.2 19.14 0.09 19.68 0 20.22 -0.08 20.75 -0.15 21.29 -0.2 21.82 -0.24 22.34 -0.27 22.86 -0.29 23.38 -0.3 23.38 5.8 22.95 5.81 22.52 5.82 22.1 5.85 21.67 5.89 21.25 5.93 20.82 5.99 20.41 6.06 19.99 6.14 19.58 6.23 19.17 6.33 18.76 6.43 18.36 6.55 17.96 6.68 17.57 6.81 17.18 6.96 16.8 7.11 16.42 7.27 16.05 7.44 15.69 7.61 15.33 7.8 14.98 7.99 14.64 8.19 14.3 8.39 13.97 8.6 13.64 8.82 13.33 9.04 13.02 9.27 12.72 9.5 12.43 9.73 12.14 9.98 11.86 10.22 11.59 10.47 11.31 10.73 11.04 11.01 10.77 11.29 10.51 11.58 10.25 11.88 9.99 12.19 9.74 12.5 9.5 12.82 9.26 13.16 9.03 13.5 8.81 13.84 8.59 14.2 8.38 14.56 8.18 14.93 7.98 15.31 7.79 15.69 7.62 16.08 7.45 16.48 7.29 16.88 7.14 17.29 7 17.7 6.87 18.12 6.75 18.54 6.64 18.97 6.54 19.4 6.45 19.83 6.38 20.27 6.31 20.71 6.26 21.15 6.21 21.6 6.18 22.04 6.16 22.49 6.16 22.93 6.16 23.38 6.17 23.82 6.2 24.27 6.24 24.71 6.29 25.15 6.35 25.59 6.42 26.03 6.5 26.46 6.59 26.89 6.7 27.31 6.81 27.73 6.93 28.15 7.07 28.56 7.21 28.97 7.37 29.37 7.53 29.76 7.7 30.15 7.88 30.53 8.06 30.91 8.26 31.28 8.46 31.64 8.67 31.99 8.89 32.34 9.11 32.68 9.34 33.01 9.57 33.33 9.82 33.64 10.06 33.95 10.31 34.25 10.57 34.54 10.82 34.82 11.09 35.09 11.36 35.37 11.64 35.64 11.94 35.9 12.23 36.16 12.54 36.41 12.86 36.66 13.18 36.91 13.51 37.15 13.85 37.38 14.2 37.6 14.55 37.82 14.92 38.03 15.29 38.23 15.66 38.43 16.05 38.61 16.44 38.79 16.83 38.96 17.23 39.12 17.64 39.27 18.06 39.41 18.47 39.54 18.9 39.66 19.32 39.77 19.75 39.87 20.19 39.95 20.63 40.03 21.07 40.1 21.51 40.15 21.95 40.19 22.39 40.23 22.84 40.24 23.29 40.25 23.73 40.25 24.18 40.23 24.62 40.21 25.06 40.17 25.5 40.12 25.94 40.06 26.38 39.99 26.81 39.91 27.24 39.81 27.67 39.71 28.09 39.6 28.5 39.47 28.92 39.34 29.32 39.2 29.72 39.04 30.12 38.88 30.51 38.71 30.89 38.53 31.26 38.34 31.63 38.15 31.99 37.95 32.35 37.74 32.69 37.52 33.03 37.3 33.36 37.07 33.68 36.83 34 36.59 34.3 36.35 34.6 36.1 34.89 35.84 35.17 35.58 35.45 35.32 35.72 35.05 35.99 34.76 36.25 34.47 36.51 34.17 36.77 33.87 37.02 33.55 37.26 33.23 37.5 32.9 37.73 32.56 37.96 32.21 38.17 31.86 38.38 31.49 38.59 31.12 38.78 30.75 38.97 30.36 39.15 29.97 39.31 29.58 39.47 29.17 39.62 28.77 39.76 28.35 39.89 27.93 40.01 27.51 40.12 27.09 40.22 26.65 40.31 26.22 40.39 25.78 40.45 25.34 40.51 24.9 40.55 24.46 40.58 24.01 40.6 23.57 40.61 23.12 40.6 22.68 40.59 22.23 40.56 21.79 40.52 21.34 40.48 20.9 40.42 20.46 40.34 20.03 40.26 19.6 40.17 19.17 40.07 18.74 39.95 18.32 39.83 17.9 39.69 17.49 39.55 17.09 39.4 16.68 39.24 16.29 39.06 15.9 38.89 15.52 38.7 15.15 38.5 14.78 38.3 14.42 38.09 14.06 37.88 13.72 37.65 13.38 37.42 13.05 37.19 12.73 36.95 12.41 36.7 12.11 36.45 11.81 36.2 11.52 35.94 11.23 40.38 7.06"/></g><g id="HATCH-6" data-name="HATCH"><polygon class="cls-4" points="82.75 5.8 82.37 5.8 81.99 5.82 81.6 5.84 81.21 5.87 80.81 5.91 80.42 5.96 80.02 6.02 79.62 6.09 79.22 6.17 78.82 6.26 78.42 6.36 78.02 6.47 77.61 6.59 77.21 6.72 76.81 6.86 76.41 7.01 76.02 7.17 75.62 7.35 75.23 7.53 74.84 7.73 74.46 7.93 74.08 8.15 73.7 8.37 73.33 8.61 72.96 8.86 72.6 9.11 72.25 9.38 71.9 9.65 71.56 9.94 71.22 10.23 70.89 10.54 70.57 10.85 70.26 11.17 69.96 11.49 69.67 11.83 69.38 12.17 69.11 12.52 68.84 12.87 68.58 13.23 68.34 13.6 68.1 13.97 67.87 14.35 67.66 14.73 67.45 15.12 67.26 15.5 67.07 15.89 66.9 16.29 66.74 16.69 66.59 17.09 66.44 17.48 66.31 17.89 66.19 18.29 66.08 18.69 65.98 19.09 65.89 19.49 65.82 19.89 65.75 20.29 65.69 20.69 65.64 21.09 65.6 21.48 65.57 21.87 65.55 22.26 65.53 22.64 65.53 23.03 65.53 23.33 65.54 23.63 65.55 23.94 65.57 24.25 65.6 24.55 65.63 24.87 65.66 25.18 65.71 25.49 65.75 25.8 65.81 26.12 65.87 26.44 65.94 26.75 66.01 27.07 66.09 27.39 66.18 27.7 66.27 28.02 66.37 28.34 66.47 28.66 66.59 28.97 66.71 29.29 66.83 29.6 66.97 29.91 67.1 30.22 67.25 30.53 67.4 30.84 67.56 31.14 67.73 31.45 67.9 31.75 68.08 32.05 68.26 32.34 68.45 32.63 68.65 32.92 68.86 33.2 69.07 33.48 69.28 33.76 69.5 34.03 69.73 34.3 69.96 34.56 70.2 34.82 70.45 35.08 70.69 35.33 70.95 35.57 71.21 35.81 71.47 36.04 71.74 36.27 72.01 36.49 72.29 36.71 72.57 36.92 72.85 37.12 73.14 37.32 73.43 37.51 73.73 37.7 74.02 37.88 74.32 38.05 74.63 38.22 74.93 38.37 75.24 38.53 75.55 38.67 75.86 38.81 76.17 38.95 76.48 39.07 76.8 39.19 77.11 39.3 77.43 39.41 75.55 45.21 75.12 45.06 74.69 44.91 74.27 44.75 73.84 44.58 73.42 44.4 73 44.21 72.58 44.01 72.16 43.81 71.75 43.59 71.34 43.37 70.93 43.13 70.53 42.89 70.13 42.64 69.74 42.38 69.35 42.11 68.96 41.84 68.58 41.55 68.21 41.26 67.84 40.96 67.48 40.65 67.12 40.34 66.77 40.01 66.43 39.68 66.09 39.34 65.76 39 65.44 38.65 65.12 38.29 64.81 37.93 64.51 37.56 64.22 37.19 63.94 36.81 63.66 36.42 63.39 36.03 63.13 35.64 62.88 35.24 62.64 34.84 62.41 34.43 62.18 34.02 61.97 33.61 61.76 33.19 61.56 32.77 61.38 32.35 61.2 31.93 61.03 31.5 60.87 31.08 60.71 30.65 60.57 30.22 60.43 29.79 60.31 29.36 60.19 28.93 60.08 28.5 59.98 28.07 59.89 27.64 59.81 27.22 59.74 26.79 59.67 26.36 59.61 25.94 59.56 25.52 59.52 25.1 59.49 24.68 59.46 24.26 59.45 23.85 59.44 23.44 59.43 23.03 59.44 22.51 59.45 21.99 59.48 21.46 59.53 20.93 59.58 20.4 59.65 19.86 59.73 19.32 59.82 18.78 59.93 18.24 60.05 17.7 60.18 17.15 60.33 16.61 60.49 16.07 60.67 15.52 60.86 14.98 61.07 14.44 61.29 13.9 61.52 13.37 61.77 12.84 62.04 12.31 62.31 11.79 62.61 11.28 62.91 10.77 63.23 10.27 63.57 9.77 63.91 9.28 64.28 8.8 64.65 8.33 65.03 7.86 65.43 7.41 65.84 6.97 66.26 6.54 66.69 6.11 67.14 5.7 67.59 5.31 68.05 4.92 68.53 4.55 69.01 4.19 69.5 3.84 69.99 3.51 70.5 3.19 71 2.88 71.52 2.59 72.04 2.31 72.57 2.05 73.1 1.8 73.63 1.56 74.17 1.34 74.71 1.14 75.25 0.94 75.79 0.77 76.34 0.6 76.88 0.46 77.42 0.32 77.97 0.2 78.51 0.09 79.05 0 79.59 -0.08 80.13 -0.15 80.66 -0.2 81.19 -0.24 81.72 -0.27 82.24 -0.29 82.75 -0.3 82.75 5.8"/></g><g id="HATCH-7" data-name="HATCH"><polygon class="cls-4" points="142.13 5.8 141.63 5.81 141.13 5.83 140.64 5.87 140.15 5.92 139.67 5.98 139.19 6.05 138.72 6.14 138.25 6.24 137.79 6.36 137.34 6.48 136.9 6.62 136.46 6.76 136.03 6.92 135.61 7.08 135.2 7.26 134.79 7.44 134.45 7.61 134.11 7.78 133.76 7.97 133.42 8.16 133.08 8.37 132.75 8.58 132.41 8.8 132.08 9.04 131.75 9.28 131.43 9.53 131.1 9.79 130.79 10.06 130.47 10.34 130.17 10.63 129.87 10.93 129.57 11.23 129.28 11.55 129 11.88 128.72 12.21 128.45 12.55 128.19 12.9 127.94 13.26 127.7 13.62 127.46 13.99 127.23 14.37 127.02 14.76 126.81 15.15 126.61 15.55 126.42 15.95 126.24 16.36 126.08 16.77 125.92 17.19 125.78 17.61 125.64 18.04 125.52 18.47 125.4 18.9 125.3 19.33 125.21 19.76 125.14 20.2 125.07 20.64 125.01 21.07 124.97 21.51 124.94 21.95 124.91 22.38 124.9 22.82 124.9 23.25 124.91 23.68 124.94 24.11 124.97 24.54 125.01 24.96 125.06 25.38 125.13 25.79 125.2 26.2 125.28 26.61 125.37 27.01 125.47 27.4 125.57 27.79 125.69 28.18 125.81 28.56 125.94 28.93 126.08 29.3 126.23 29.66 126.38 30.01 126.54 30.36 126.71 30.71 126.88 31.05 127.07 31.39 127.26 31.73 127.47 32.07 127.68 32.41 127.9 32.74 128.14 33.08 128.38 33.4 128.63 33.73 128.89 34.05 129.16 34.37 129.44 34.68 129.73 34.99 130.03 35.29 130.34 35.58 130.65 35.87 130.98 36.16 131.31 36.43 131.65 36.7 132 36.96 132.36 37.22 132.72 37.46 133.09 37.7 133.47 37.92 133.86 38.14 134.25 38.35 134.65 38.55 135.05 38.73 135.46 38.91 135.88 39.08 136.29 39.23 136.71 39.38 137.14 39.52 137.57 39.64 138 39.75 138.43 39.85 138.87 39.94 139.3 40.02 139.74 40.09 140.18 40.14 140.61 40.19 141.05 40.22 141.48 40.24 141.92 40.25 142.35 40.25 142.78 40.24 143.21 40.22 143.63 40.19 144.06 40.15 144.48 40.09 144.89 40.03 145.3 39.96 145.71 39.88 146.11 39.79 146.5 39.69 146.89 39.58 147.28 39.47 147.66 39.34 148.03 39.21 148.4 39.07 148.76 38.92 149.11 38.77 149.46 38.61 149.73 38.48 150 38.35 150.28 38.2 150.55 38.06 150.82 37.9 151.08 37.74 151.35 37.58 151.62 37.4 151.88 37.23 152.14 37.04 152.4 36.85 152.66 36.66 152.92 36.46 153.17 36.25 153.42 36.04 153.67 35.82 153.91 35.59 154.15 35.36 154.39 35.13 154.63 34.88 154.85 34.63 155.08 34.38 155.3 34.12 155.52 33.86 155.73 33.59 155.94 33.32 156.15 33.04 156.34 32.76 156.54 32.47 156.72 32.17 156.91 31.88 157.08 31.57 157.25 31.27 157.42 30.96 157.58 30.65 157.73 30.33 157.87 30.01 158.01 29.69 158.15 29.36 158.27 29.03 158.39 28.7 158.5 28.37 158.61 28.03 158.71 27.69 158.8 27.36 158.89 27.01 158.96 26.67 159.03 26.33 159.1 25.98 159.15 25.64 159.2 25.3 159.25 24.95 159.28 24.61 159.31 24.26 159.33 23.91 159.34 23.57 159.35 23.23 159.35 22.89 159.35 22.55 159.33 22.21 159.31 21.87 159.29 21.53 159.26 21.2 159.22 20.87 165.27 20.1 165.35 20.84 165.41 21.58 165.44 22.31 165.45 23.03 165.44 23.55 165.43 24.07 165.4 24.59 165.36 25.12 165.3 25.66 165.24 26.19 165.16 26.73 165.06 27.27 164.95 27.81 164.83 28.36 164.7 28.9 164.55 29.45 164.39 29.99 164.21 30.53 164.02 31.07 163.81 31.61 163.59 32.15 163.36 32.68 163.11 33.21 162.84 33.74 162.57 34.26 162.28 34.78 161.97 35.29 161.65 35.79 161.31 36.29 160.97 36.77 160.61 37.26 160.24 37.73 159.85 38.19 159.45 38.64 159.04 39.09 158.62 39.52 158.19 39.94 157.74 40.35 157.29 40.75 156.83 41.13 156.36 41.51 155.88 41.87 155.39 42.22 154.89 42.55 154.39 42.87 153.88 43.17 153.36 43.47 152.84 43.74 152.31 44.01 151.78 44.26 151.25 44.49 150.71 44.71 150.17 44.92 149.63 45.11 149.09 45.29 148.54 45.45 148 45.6 147.46 45.73 146.91 45.85 146.37 45.96 145.83 46.05 145.29 46.13 144.76 46.2 144.22 46.26 143.69 46.3 143.17 46.33 142.65 46.34 142.13 46.35 141.61 46.34 141.09 46.33 140.56 46.3 140.03 46.26 139.5 46.2 138.96 46.13 138.42 46.05 137.88 45.96 137.34 45.85 136.8 45.73 136.25 45.6 135.71 45.45 135.17 45.29 134.62 45.11 134.08 44.92 133.54 44.71 133.01 44.49 132.47 44.26 131.94 44.01 131.42 43.74 130.89 43.47 130.38 43.17 129.87 42.87 129.37 42.55 128.87 42.22 128.38 41.87 127.9 41.51 127.43 41.13 126.96 40.75 126.51 40.35 126.07 39.94 125.64 39.52 125.22 39.09 124.81 38.64 124.41 38.19 124.02 37.73 123.65 37.26 123.29 36.77 122.94 36.29 122.61 35.79 122.29 35.29 121.98 34.78 121.69 34.26 121.41 33.74 121.15 33.21 120.9 32.68 120.66 32.15 120.44 31.61 120.24 31.07 120.05 30.53 119.87 29.99 119.7 29.45 119.56 28.9 119.42 28.36 119.3 27.81 119.19 27.27 119.1 26.73 119.02 26.19 118.95 25.66 118.9 25.12 118.86 24.59 118.83 24.07 118.81 23.55 118.81 23.03 118.81 22.51 118.83 21.99 118.86 21.46 118.9 20.93 118.95 20.4 119.02 19.86 119.1 19.32 119.19 18.78 119.3 18.24 119.42 17.7 119.56 17.15 119.7 16.61 119.87 16.07 120.05 15.52 120.24 14.98 120.44 14.44 120.66 13.9 120.9 13.37 121.15 12.84 121.41 12.31 121.69 11.79 121.98 11.28 122.29 10.77 122.61 10.27 122.94 9.77 123.29 9.28 123.65 8.8 124.02 8.33 124.41 7.86 124.81 7.41 125.22 6.97 125.64 6.54 126.07 6.11 126.51 5.7 126.96 5.31 127.43 4.92 127.9 4.55 128.38 4.19 128.87 3.84 129.37 3.51 129.87 3.19 130.38 2.88 130.89 2.59 131.42 2.31 131.94 2.05 132.47 1.8 133.01 1.56 133.54 1.34 134.08 1.14 134.62 0.94 135.17 0.77 135.71 0.6 136.25 0.46 136.8 0.32 137.34 0.2 137.88 0.09 138.42 0 138.96 -0.08 139.5 -0.15 140.03 -0.2 140.56 -0.24 141.09 -0.27 141.61 -0.29 142.13 -0.3 142.13 5.8"/></g><g id="HATCH-8" data-name="HATCH"><polygon class="cls-4" points="214 3.33 214.63 3.75 215.25 4.19 215.86 4.65 216.45 5.13 217.03 5.63 217.59 6.14 218.14 6.68 218.66 7.23 219.17 7.8 219.66 8.39 220.13 8.99 220.57 9.61 221 10.23 221.41 10.87 221.79 11.52 222.15 12.18 222.48 12.84 222.8 13.51 223.09 14.19 223.35 14.87 223.6 15.56 223.82 16.25 224.01 16.94 224.19 17.63 224.34 18.31 224.47 19 224.58 19.68 224.67 20.36 224.74 21.04 224.79 21.71 224.81 22.37 224.82 23.03 224.82 23.55 224.8 24.07 224.77 24.59 224.73 25.12 224.68 25.66 224.61 26.19 224.53 26.73 224.43 27.27 224.33 27.81 224.21 28.36 224.07 28.9 223.92 29.45 223.76 29.99 223.58 30.53 223.39 31.07 223.19 31.61 222.97 32.15 222.73 32.68 222.48 33.21 222.22 33.74 221.94 34.26 221.65 34.78 221.34 35.29 221.02 35.79 220.69 36.29 220.34 36.77 219.98 37.26 219.61 37.73 219.22 38.19 218.82 38.64 218.41 39.09 217.99 39.52 217.56 39.94 217.12 40.35 216.66 40.75 216.2 41.13 215.73 41.51 215.25 41.87 214.76 42.22 214.26 42.55 213.76 42.87 213.25 43.17 212.73 43.47 212.21 43.74 211.69 44.01 211.16 44.26 210.62 44.49 210.09 44.71 209.55 44.92 209 45.11 208.46 45.29 207.92 45.45 207.37 45.6 206.83 45.73 206.29 45.85 205.75 45.96 205.2 46.05 204.67 46.13 204.13 46.2 203.6 46.26 203.07 46.3 202.54 46.33 202.02 46.34 201.5 46.35 200.98 46.34 200.46 46.33 199.94 46.3 199.41 46.26 198.87 46.2 198.34 46.13 197.8 46.05 197.26 45.96 196.72 45.85 196.17 45.73 195.63 45.6 195.08 45.45 194.54 45.29 194 45.11 193.46 44.92 192.92 44.71 192.38 44.49 191.84 44.26 191.31 44.01 190.79 43.74 190.27 43.47 189.75 43.17 189.24 42.87 188.74 42.55 188.24 42.22 187.75 41.87 187.27 41.51 186.8 41.13 186.34 40.75 185.88 40.35 185.44 39.94 185.01 39.52 184.59 39.09 184.18 38.64 183.78 38.19 183.39 37.73 183.02 37.26 182.66 36.77 182.31 36.29 181.98 35.79 181.66 35.29 181.35 34.78 181.06 34.26 180.78 33.74 180.52 33.21 180.27 32.68 180.04 32.15 179.81 31.61 179.61 31.07 179.42 30.53 179.24 29.99 179.08 29.45 178.93 28.9 178.79 28.36 178.67 27.81 178.57 27.27 178.47 26.73 178.39 26.19 178.33 25.66 178.27 25.12 178.23 24.59 178.2 24.07 178.18 23.55 178.18 23.03 178.18 22.51 178.2 21.99 178.23 21.46 178.27 20.93 178.33 20.4 178.39 19.86 178.47 19.32 178.57 18.78 178.67 18.24 178.79 17.7 178.93 17.15 179.08 16.61 179.24 16.07 179.42 15.52 179.61 14.98 179.81 14.44 180.04 13.9 180.27 13.37 180.52 12.84 180.78 12.31 181.06 11.79 181.35 11.28 181.66 10.77 181.98 10.27 182.31 9.77 182.66 9.28 183.02 8.8 183.39 8.33 183.78 7.86 184.18 7.41 184.59 6.97 185.01 6.54 185.44 6.11 185.88 5.7 186.34 5.31 186.8 4.92 187.27 4.55 187.75 4.19 188.24 3.84 188.74 3.51 189.24 3.19 189.75 2.88 190.27 2.59 190.79 2.31 191.31 2.05 191.84 1.8 192.38 1.56 192.92 1.34 193.46 1.14 194 0.94 194.54 0.77 195.08 0.6 195.63 0.46 196.17 0.32 196.72 0.2 197.26 0.09 197.8 0 198.34 -0.08 198.87 -0.15 199.41 -0.2 199.94 -0.24 200.46 -0.27 200.98 -0.29 201.5 -0.3 201.5 5.8 201.12 5.8 200.73 5.82 200.34 5.84 199.95 5.87 199.56 5.91 199.16 5.96 198.77 6.02 198.37 6.09 197.97 6.17 197.56 6.26 197.16 6.36 196.76 6.47 196.36 6.59 195.96 6.72 195.56 6.86 195.16 7.01 194.76 7.17 194.37 7.35 193.98 7.53 193.59 7.73 193.2 7.93 192.82 8.15 192.45 8.37 192.07 8.61 191.71 8.86 191.35 9.11 190.99 9.38 190.64 9.65 190.3 9.94 189.97 10.23 189.64 10.54 189.32 10.85 189.01 11.17 188.71 11.49 188.41 11.83 188.13 12.17 187.85 12.52 187.59 12.87 187.33 13.23 187.08 13.6 186.85 13.97 186.62 14.35 186.41 14.73 186.2 15.12 186 15.5 185.82 15.89 185.65 16.29 185.48 16.69 185.33 17.09 185.19 17.48 185.06 17.89 184.94 18.29 184.83 18.69 184.73 19.09 184.64 19.49 184.56 19.89 184.49 20.29 184.43 20.69 184.38 21.09 184.34 21.48 184.31 21.87 184.29 22.26 184.28 22.64 184.28 23.03 184.28 23.41 184.29 23.8 184.31 24.18 184.34 24.57 184.38 24.97 184.43 25.36 184.49 25.76 184.56 26.16 184.64 26.56 184.73 26.96 184.83 27.36 184.94 27.77 185.06 28.17 185.19 28.57 185.33 28.97 185.48 29.37 185.65 29.76 185.82 30.16 186 30.55 186.2 30.94 186.41 31.32 186.62 31.7 186.85 32.08 187.08 32.45 187.33 32.82 187.59 33.18 187.85 33.54 188.13 33.88 188.41 34.23 188.71 34.56 189.01 34.89 189.32 35.21 189.64 35.52 189.97 35.82 190.3 36.12 190.64 36.4 190.99 36.68 191.35 36.94 191.71 37.2 192.07 37.45 192.45 37.68 192.82 37.91 193.2 38.12 193.59 38.33 193.98 38.52 194.37 38.71 194.76 38.88 195.16 39.04 195.56 39.2 195.96 39.34 196.36 39.47 196.76 39.59 197.16 39.7 197.56 39.8 197.97 39.89 198.37 39.97 198.77 40.03 199.16 40.09 199.56 40.14 199.95 40.18 200.34 40.21 200.73 40.24 201.12 40.25 201.5 40.25 201.88 40.25 202.27 40.24 202.66 40.21 203.05 40.18 203.44 40.14 203.84 40.09 204.24 40.03 204.63 39.97 205.04 39.89 205.44 39.8 205.84 39.7 206.24 39.59 206.64 39.47 207.04 39.34 207.44 39.2 207.84 39.04 208.24 38.88 208.63 38.71 209.02 38.52 209.41 38.33 209.8 38.12 210.18 37.91 210.56 37.68 210.93 37.45 211.29 37.2 211.66 36.94 212.01 36.68 212.36 36.4 212.7 36.12 213.03 35.82 213.36 35.52 213.68 35.21 213.99 34.89 214.29 34.56 214.59 34.23 214.87 33.88 215.15 33.54 215.42 33.18 215.67 32.82 215.92 32.45 216.16 32.08 216.38 31.7 216.6 31.32 216.8 30.94 217 30.55 217.18 30.16 217.35 29.76 217.52 29.37 217.67 28.97 217.81 28.57 217.94 28.17 218.06 27.77 218.17 27.36 218.27 26.96 218.36 26.56 218.44 26.16 218.51 25.76 218.57 25.36 218.62 24.97 218.66 24.57 218.69 24.18 218.71 23.8 218.72 23.41 218.73 23.03 218.72 22.54 218.7 22.05 218.66 21.56 218.61 21.06 218.55 20.56 218.47 20.05 218.37 19.55 218.26 19.04 218.13 18.53 217.98 18.02 217.82 17.51 217.64 17.01 217.44 16.5 217.23 16 217 15.51 216.75 15.01 216.48 14.53 216.2 14.05 215.9 13.58 215.59 13.11 215.26 12.66 214.91 12.22 214.55 11.78 214.18 11.36 213.79 10.95 213.38 10.56 212.97 10.17 212.54 9.81 212.1 9.45 211.66 9.11 211.2 8.79 210.73 8.48 214 3.33"/></g><text class="cls-5" transform="translate(15.45 26.9)">WV</text><text class="cls-5" transform="translate(74.9 27.05)">WS</text><text class="cls-5" transform="translate(134.66 26.9)">WE</text><text class="cls-5" transform="translate(193.9 26.9)">WP</text></svg>